<svg width="1440" height="474" viewBox="0 0 1440 474" fill="none" xmlns="http://www.w3.org/2000/svg">
<g filter="url(#filter0_d_2707_8559)">
<path d="M1027.84 269.929C1027.31 279.34 1023.94 288.379 1018.17 295.892C1012.4 303.405 1004.5 309.051 995.459 312.108C986.423 315.165 976.668 315.494 967.441 313.054C958.214 310.613 949.933 305.514 943.658 298.408C937.348 304.325 929.463 308.35 920.923 310.014C914.271 311.29 907.417 311.113 900.843 309.495C894.268 307.878 888.132 304.859 882.866 300.651C876.513 307.873 868.774 313.784 860.095 318.044C851.417 322.304 841.971 324.828 832.3 325.472C822.629 326.116 812.924 324.866 803.745 321.794C794.565 318.723 786.092 313.89 778.813 307.575C770.576 316.171 759.368 321.402 747.408 322.233C735.449 323.064 723.608 319.434 714.232 312.062C704.93 324.643 691.325 333.475 675.933 336.923C660.542 340.372 644.405 338.204 630.508 330.82C620.557 341.729 607.006 348.8 592.266 350.777C577.526 352.753 562.554 349.506 550.013 341.613C537.141 364.961 516.359 383.1 491.302 392.858C466.245 402.617 438.508 403.372 412.944 394.994C405.064 406.956 394.62 417.067 382.348 424.613C370.076 432.159 356.276 436.957 341.92 438.668C327.565 440.379 313.004 438.962 299.264 434.517C285.524 430.071 272.94 422.705 262.399 412.939C246.961 424.914 229.071 433.438 209.966 437.921C190.861 442.404 170.998 442.738 151.749 438.901C132.5 435.065 114.326 427.148 98.4829 415.7C82.64 404.251 69.5067 389.544 59.9913 372.595C37.8752 384.312 12.4422 388.454 -12.3174 384.371C-37.077 380.288 -59.7622 368.21 -76.814 350.033C-84.5882 358.336 -94.977 363.806 -106.296 365.554C-117.615 367.302 -129.201 365.227 -139.175 359.665C-149.149 354.103 -156.927 345.38 -161.247 334.91C-165.567 324.44 -166.177 312.838 -162.976 301.984C-160.12 310.137 -155.067 317.37 -148.361 322.906C-141.655 328.442 -133.549 332.073 -124.911 333.41C-116.272 334.746 -107.428 333.738 -99.3269 330.492C-91.2254 327.247 -84.1719 321.887 -78.9228 314.988C-75.1329 321.27 -69.8444 326.543 -63.5175 330.348C-57.1906 334.153 -50.0171 336.375 -42.6211 336.821C-35.2252 337.266 -27.8309 335.922 -21.0819 332.904C-14.3329 329.886 -8.43353 325.287 -3.89731 319.506C0.208176 323.899 5.34625 327.227 11.0637 329.198C16.7811 331.168 22.9021 331.72 28.8866 330.804C34.8712 329.888 40.5355 327.534 45.3796 323.948C50.2238 320.362 54.099 315.654 56.6635 310.241C68.7135 326.662 85.1896 339.419 104.22 347.063C123.25 354.707 144.072 356.932 164.32 353.485C184.568 350.038 203.43 341.057 218.764 327.563C234.097 314.068 245.288 296.602 251.064 277.146C256.33 289.711 265.278 300.438 276.762 307.953C288.246 315.467 301.742 319.428 315.522 319.327C329.302 319.225 342.737 315.067 354.106 307.384C365.475 299.701 374.26 288.844 379.336 276.204C383.861 291.053 392.668 304.282 404.684 314.276C416.699 324.27 431.403 330.598 447.002 332.486C462.6 334.375 478.419 331.744 492.527 324.913C506.636 318.082 518.424 307.348 526.454 294.019C531.754 301.994 539.074 308.465 547.689 312.791C556.304 317.117 565.915 319.147 575.569 318.68C585.224 318.214 594.587 315.267 602.732 310.132C610.878 304.996 617.522 297.851 622.007 289.402C627.495 294.419 634.039 298.175 641.171 300.402C648.303 302.629 655.846 303.272 663.26 302.284C670.673 301.296 677.773 298.701 684.051 294.687C690.328 290.673 695.628 285.338 699.57 279.064C704.684 284.185 711.189 287.738 718.301 289.299C725.414 290.859 732.832 290.359 739.663 287.859C746.495 285.36 752.449 280.966 756.811 275.208C761.172 269.449 763.755 262.57 764.249 255.397C780.221 267.937 799.913 274.976 820.319 275.439C840.725 275.903 860.725 269.766 877.265 257.966C882.002 264.935 888.307 270.73 895.688 274.9C903.068 279.069 911.325 281.501 919.815 282.004C928.304 282.507 936.797 281.069 944.63 277.802C952.464 274.535 959.427 269.526 964.976 263.167C969.485 267.007 974.84 269.757 980.615 271.199C986.39 272.64 992.426 272.733 998.243 271.471C1004.06 270.209 1009.5 267.626 1014.13 263.927C1018.76 260.228 1022.45 255.516 1024.91 250.163C1027.32 256.467 1028.32 263.209 1027.84 269.929Z" fill="#E5D6B6"/>
<path d="M1024.78 250.196C1022.32 255.548 1018.63 260.261 1014 263.96C1009.37 267.658 1003.93 270.241 998.111 271.504C992.294 272.766 986.258 272.673 980.483 271.231C974.708 269.79 969.354 267.04 964.844 263.2C959.295 269.559 952.332 274.567 944.498 277.835C936.665 281.102 928.172 282.54 919.683 282.037C911.193 281.533 902.936 279.102 895.556 274.932C888.175 270.762 881.87 264.967 877.133 257.998C860.593 269.799 840.593 275.936 820.187 275.472C799.781 275.008 780.089 267.969 764.117 255.43C763.617 262.6 761.03 269.475 756.666 275.229C752.303 280.983 746.348 285.371 739.517 287.867C732.687 290.363 725.271 290.86 718.162 289.299C711.052 287.737 704.55 284.183 699.438 279.064C695.496 285.338 690.196 290.673 683.919 294.687C677.641 298.701 670.541 301.296 663.128 302.284C655.714 303.272 648.171 302.629 641.039 300.402C633.907 298.175 627.363 294.419 621.875 289.402C617.39 297.851 610.746 304.997 602.601 310.132C594.455 315.267 585.092 318.214 575.437 318.68C565.783 319.147 556.172 317.117 547.557 312.791C538.943 308.465 531.622 301.994 526.322 294.019C518.292 307.348 506.504 318.082 492.395 324.913C478.287 331.744 462.468 334.375 446.87 332.487C431.271 330.598 416.567 324.27 404.552 314.276C392.536 304.282 383.729 291.053 379.204 276.204C374.128 288.844 365.343 299.701 353.974 307.384C342.605 315.067 329.17 319.225 315.39 319.327C301.61 319.428 288.114 315.467 276.63 307.953C265.146 300.438 256.198 289.711 250.932 277.146C245.156 296.602 233.965 314.069 218.632 327.563C203.298 341.057 184.436 350.038 164.188 353.485C143.94 356.932 123.118 354.707 104.088 347.063C85.0576 339.419 68.5816 326.662 56.5315 310.241C53.9671 315.654 50.0919 320.362 45.2477 323.948C40.4035 327.534 34.7393 329.889 28.7547 330.804C22.7701 331.72 16.6491 331.168 10.9317 329.198C5.21428 327.227 0.0762177 323.899 -4.02927 319.506C-8.56902 325.26 -14.4616 329.835 -21.1969 332.835C-27.9322 335.836 -35.3072 337.171 -42.6834 336.726C-50.0596 336.281 -57.2147 334.069 -63.5293 330.281C-69.8439 326.493 -75.1276 321.244 -78.923 314.988C-84.1721 321.887 -91.2256 327.247 -99.3271 330.492C-107.429 333.738 -116.273 334.746 -124.911 333.41C-133.549 332.073 -141.656 328.442 -148.362 322.906C-155.067 317.37 -160.12 310.137 -162.977 301.984C-161.87 297.999 -160.242 294.174 -158.133 290.605C-153.779 283.147 -147.55 276.922 -140.047 272.532C-132.544 268.141 -124.02 265.733 -115.299 265.54C-115.241 259.35 -113.593 253.274 -110.508 247.883C-107.424 242.491 -103.004 237.96 -97.6615 234.712C-92.3192 231.464 -86.2294 229.607 -79.9616 229.313C-73.6937 229.019 -67.4527 230.298 -61.8223 233.031C-59.7578 229.772 -57.0628 226.946 -53.8912 224.715C-50.7196 222.483 -47.1334 220.891 -43.3377 220.027C-41.627 219.633 -39.8854 219.383 -38.1318 219.279C-39.0914 211.977 -38.3871 204.556 -36.0703 197.556C-33.7534 190.557 -29.8825 184.156 -24.7397 178.82C-19.5968 173.484 -13.3118 169.348 -6.34302 166.713C0.625809 164.078 8.10278 163.012 15.5426 163.59C14.4507 150.564 18.4391 137.619 26.6936 127.396C34.9481 117.173 46.846 110.445 59.9582 108.584C67.1521 83.9094 81.703 61.9407 101.719 45.5338C121.736 29.1268 146.292 19.0405 172.195 16.5861C198.098 14.1317 224.151 19.4226 246.966 31.7711C269.781 44.1196 288.304 62.9545 300.125 85.8274C307.556 81.3757 315.987 78.806 324.667 78.3471C333.348 77.8881 342.008 79.5542 349.878 83.1969C357.748 86.8397 364.583 92.346 369.774 99.2257C374.966 106.105 378.352 114.145 379.632 122.628C404.093 111.964 431.678 110.568 457.116 118.706C482.555 126.844 504.061 143.947 517.525 166.744C526.066 159.821 536.066 154.865 546.794 152.238C557.523 149.612 568.711 149.38 579.542 151.56C590.373 153.741 600.574 158.278 609.403 164.841C618.231 171.405 625.464 179.829 630.574 189.501C642.71 175.71 659.888 167.222 678.35 165.894C696.812 164.566 715.056 170.505 729.092 182.413C734.296 163.206 745.8 146.24 761.808 134.165C777.816 122.089 797.426 115.584 817.577 115.666C837.727 115.748 857.283 122.411 873.189 134.616C889.096 146.821 900.459 163.88 905.502 183.129C919.206 182.259 932.872 185.317 944.856 191.932C956.84 198.548 966.63 208.44 973.048 220.417C983.828 218.862 994.823 220.973 1004.22 226.403C1013.63 231.833 1020.88 240.258 1024.78 250.293V250.196Z" fill="#F6ECD2"/>
<path d="M348 256.86C352.085 262.77 357.512 267.657 363.849 271.132C369.446 274.142 375.731 275.687 382.105 275.618C388.479 275.55 394.729 273.871 400.258 270.742C406.521 267.121 411.845 262.113 415.81 256.113C416.081 260.338 415.4 264.57 413.816 268.504C412.232 272.439 409.785 275.979 406.65 278.869C400.069 285.081 391.331 288.578 382.224 288.644C373.117 288.711 364.328 285.342 357.654 279.227C354.487 276.421 351.98 272.965 350.312 269.1C348.644 265.236 347.855 261.058 348 256.86Z" fill="#E5D6B6"/>
<path d="M221.113 263.525C224.546 267.511 228.804 270.726 233.601 272.953C237.535 274.778 241.841 275.69 246.187 275.618C250.54 275.571 254.827 274.572 258.741 272.693C263.479 270.318 267.665 266.997 271.031 262.94C271.548 266.148 271.282 269.431 270.257 272.518C269.231 275.605 267.475 278.406 265.133 280.69C260.181 285.675 253.426 288.517 246.352 288.59C239.277 288.663 232.463 285.962 227.406 281.08C225.015 278.861 223.196 276.109 222.102 273.056C221.007 270.002 220.668 266.734 221.113 263.525Z" fill="#E5D6B6"/>
<path d="M13.4009 277.829C20.8788 287.273 30.1583 295.18 40.7158 301.106C50.3175 306.405 60.9957 309.525 71.9735 310.239C82.9513 310.954 93.9524 309.244 104.176 305.235C115.431 300.74 125.685 294.113 134.358 285.729C131.426 299.213 123.282 311.039 111.656 318.694C99.6274 326.794 85.191 330.674 70.6608 329.713C56.1306 328.752 42.3481 323.006 31.523 313.395C21.0132 304.324 14.5103 291.562 13.4009 277.829Z" fill="#E5D6B6"/>
<path d="M564.049 262.68C572.892 270.888 583.28 277.305 594.626 281.568C604.935 285.343 615.959 286.83 626.917 285.924C637.857 284.931 648.447 281.603 657.955 276.171C668.388 270.022 677.509 261.928 684.808 252.342C683.981 266.108 677.753 279.016 667.444 288.33C656.804 298.132 643.137 304.13 628.633 305.361C614.129 306.593 599.625 302.989 587.443 295.124C575.645 287.744 567.247 276.097 564.049 262.68Z" fill="#E5D6B6"/>
<path d="M833.442 236.964C839.679 242.993 847.088 247.715 855.222 250.846C862.67 253.662 870.669 254.773 878.616 254.097C886.558 253.375 894.236 250.909 901.087 246.88C908.541 242.409 914.997 236.492 920.066 229.487C919.303 239.266 914.776 248.385 907.414 254.975C899.806 261.911 890.078 266.155 879.758 267.038C869.439 267.92 859.115 265.392 850.411 259.851C842.009 254.631 835.941 246.446 833.442 236.964Z" fill="#E5D6B6"/>
<path d="M1549.05 251.101C1546.3 260.21 1540.72 268.242 1533.11 274.073C1533.77 286.136 1531.01 298.143 1525.15 308.751C1519.29 319.359 1510.55 328.151 1499.91 334.143C1489.28 340.135 1477.16 343.092 1464.91 342.684C1452.67 342.275 1440.78 338.517 1430.58 331.829C1426.98 329.412 1423.63 326.642 1420.6 323.559C1412.85 334.43 1401.22 342.02 1388.05 344.818C1374.88 347.615 1361.12 345.415 1349.52 338.655C1344.19 352.322 1335.56 364.501 1324.38 374.135C1313.2 383.77 1299.8 390.57 1285.36 393.945C1270.91 397.321 1255.84 397.169 1241.47 393.504C1227.09 389.84 1213.84 382.772 1202.86 372.915C1180.22 382.107 1155.15 383.747 1131.47 377.586C1107.79 371.425 1086.81 357.799 1071.71 338.786C1061.54 346.248 1048.86 349.59 1036.27 348.125C1023.67 346.661 1012.13 340.501 1003.99 330.91C998.123 344.29 987.175 354.872 973.492 360.392C959.809 365.912 944.479 365.931 930.782 360.445C917.979 374.259 900.321 382.746 881.398 384.178C862.476 385.611 843.71 379.882 828.919 368.156C819.2 376.02 807.617 381.322 795.253 383.566C782.89 385.811 770.151 384.924 758.229 380.989C746.308 377.054 735.595 370.199 727.093 361.068C718.591 351.936 712.578 340.825 709.618 328.777C701.602 332.696 692.671 334.437 683.746 333.822C674.82 333.207 666.222 330.257 658.836 325.277C651.451 320.297 645.544 313.466 641.725 305.487C637.905 297.508 636.311 288.669 637.106 279.881C631.996 276.102 627.934 271.115 625.293 265.379C622.653 259.644 621.52 253.346 621.998 247.065C631.154 265.328 645.999 280.22 664.358 289.562C682.718 298.904 703.628 302.204 724.028 298.98C729.355 312.211 739.389 323.074 752.252 329.537C765.115 336 779.925 337.62 793.911 334.093C801.938 341.729 811.813 347.213 822.596 350.024C833.379 352.835 844.712 352.879 855.517 350.153C866.322 347.427 876.241 342.02 884.33 334.448C892.418 326.875 898.409 317.388 901.731 306.889C917.166 316.611 935.659 320.467 953.763 317.738C971.868 315.009 988.348 305.881 1000.13 292.056C1004.71 297.954 1010.66 302.685 1017.47 305.852C1024.28 309.02 1031.76 310.532 1039.29 310.262C1046.82 309.992 1054.17 307.948 1060.73 304.301C1067.29 300.654 1072.87 295.51 1077 289.299C1087.4 301.068 1100.6 310.103 1115.42 315.591C1130.24 321.079 1146.21 322.848 1161.89 320.74C1177.57 318.631 1192.48 312.71 1205.27 303.51C1218.05 294.309 1228.32 282.119 1235.14 268.034C1240.29 273.682 1246.58 278.21 1253.61 281.328C1260.64 284.446 1268.24 286.087 1275.95 286.146C1283.65 286.205 1291.29 284.68 1298.36 281.669C1305.44 278.658 1311.8 274.227 1317.04 268.658C1322.84 275.189 1329.97 280.448 1337.96 284.092C1345.95 287.737 1354.63 289.688 1363.43 289.818C1372.24 289.947 1380.97 288.254 1389.07 284.846C1397.17 281.439 1404.45 276.394 1410.45 270.036C1415.4 275.295 1421.37 279.523 1428.01 282.472C1434.64 285.42 1441.81 287.028 1449.09 287.203C1456.36 287.377 1463.6 286.113 1470.38 283.486C1477.15 280.859 1483.32 276.921 1488.53 271.906C1493.73 266.89 1497.87 260.897 1500.69 254.281C1503.51 247.664 1504.96 240.558 1504.95 233.381C1504.95 226.203 1503.48 219.1 1500.65 212.489C1497.81 205.878 1493.67 199.893 1488.45 194.887C1496.56 191.98 1505.32 191.348 1513.77 193.063C1522.22 194.778 1530.02 198.771 1536.3 204.599C1542.58 210.426 1547.1 217.859 1549.35 226.07C1551.6 234.28 1551.5 242.946 1549.05 251.101Z" fill="#E5D6B6"/>
<path d="M1504.26 236.597C1503.55 247.002 1499.78 256.979 1493.42 265.311C1487.06 273.643 1478.38 279.97 1468.43 283.522C1458.49 287.073 1447.71 287.696 1437.42 285.313C1427.12 282.93 1417.75 277.645 1410.45 270.102C1404.45 276.459 1397.17 281.505 1389.07 284.912C1380.97 288.32 1372.24 290.013 1363.43 289.883C1354.63 289.753 1345.95 287.803 1337.96 284.158C1329.97 280.513 1322.84 275.255 1317.04 268.723C1311.8 274.292 1305.43 278.724 1298.36 281.735C1291.29 284.745 1283.65 286.27 1275.95 286.212C1268.24 286.153 1260.64 284.512 1253.61 281.394C1246.58 278.276 1240.29 273.748 1235.14 268.1C1228.32 282.184 1218.05 294.375 1205.27 303.575C1192.48 312.775 1177.57 318.696 1161.89 320.805C1146.21 322.914 1130.24 321.145 1115.42 315.657C1100.6 310.169 1087.4 301.134 1077 289.365C1072.87 295.575 1067.29 300.719 1060.73 304.366C1054.17 308.013 1046.82 310.057 1039.29 310.327C1031.76 310.597 1024.28 309.085 1017.47 305.918C1010.66 302.75 1004.71 298.019 1000.13 292.121C988.339 305.936 971.854 315.051 953.75 317.768C935.646 320.485 917.158 316.618 901.73 306.889C898.395 317.371 892.4 326.838 884.312 334.394C876.225 341.949 866.315 347.342 855.521 350.061C844.727 352.779 833.408 352.734 822.637 349.928C811.866 347.122 802.001 341.648 793.977 334.028C779.991 337.554 765.181 335.934 752.318 329.471C739.456 323.009 729.422 312.145 724.094 298.914C703.639 302.211 682.652 298.942 664.224 289.59C645.795 280.238 630.9 265.296 621.731 246.966C616.51 246.826 611.387 245.524 606.747 243.158C602.107 240.792 598.069 237.422 594.935 233.301C591.801 229.18 589.651 224.414 588.647 219.359C587.643 214.304 587.809 209.09 589.135 204.107C590.461 199.125 592.911 194.502 596.302 190.584C599.694 186.666 603.939 183.554 608.721 181.481C613.504 179.408 618.699 178.427 623.919 178.612C629.14 178.797 634.25 180.143 638.869 182.548C642.242 177.503 646.768 173.31 652.084 170.305C657.401 167.3 663.358 165.568 669.477 165.249C675.596 164.93 681.705 166.032 687.313 168.467C692.921 170.901 697.871 174.601 701.764 179.267C713.374 163.786 730.656 153.389 749.928 150.293C769.199 147.197 788.934 151.648 804.925 162.695C807.688 157.58 811.514 153.099 816.154 149.544C820.794 145.989 826.143 143.44 831.852 142.065C837.56 140.689 843.498 140.518 849.278 141.562C855.057 142.606 860.548 144.843 865.391 148.124C870.069 139.803 877.125 133.021 885.68 128.622C894.236 124.222 903.914 122.4 913.511 123.381C921.254 104.438 934.714 88.3004 952.067 77.1521C969.42 66.0038 989.828 60.3839 1010.53 61.0536C1031.23 61.7233 1051.22 68.6501 1067.79 80.896C1084.37 93.142 1096.73 110.115 1103.19 129.518C1109.79 125.191 1117.19 122.193 1124.97 120.698C1132.75 119.202 1140.75 119.237 1148.51 120.802C1156.27 122.366 1163.64 125.429 1170.2 129.814C1176.76 134.199 1182.37 139.82 1186.72 146.352C1193.93 137.959 1203.2 131.52 1213.64 127.647C1224.68 123.533 1236.62 122.4 1248.25 124.365C1255.68 109.594 1267.44 97.3704 1282.01 89.289C1296.58 81.2075 1313.29 77.6429 1329.94 79.0598C1346.6 80.4767 1362.44 86.8094 1375.39 97.2323C1388.34 107.655 1397.81 121.685 1402.56 137.492C1421.64 134.093 1441.31 138.212 1457.35 148.963C1473.39 159.713 1484.5 176.238 1488.32 194.986C1493.83 200.399 1498.1 206.913 1500.85 214.09C1503.6 221.267 1504.76 228.941 1504.26 236.597Z" fill="#F6ECD2"/>
<path d="M884.393 289.595C887.703 293.104 891.699 295.917 896.14 297.864C899.71 299.381 903.563 300.141 907.449 300.096C911.336 300.051 915.17 299.201 918.702 297.602C923.108 295.56 927.048 292.657 930.283 289.069C930.876 292.05 930.719 295.128 929.825 298.034C928.932 300.94 927.329 303.586 925.158 305.74C922.881 308.074 920.156 309.937 917.141 311.22C914.126 312.504 910.882 313.182 907.598 313.215C904.314 313.249 901.056 312.637 898.015 311.416C894.973 310.194 892.209 308.388 889.884 306.101C887.676 303.998 886.022 301.395 885.065 298.518C884.108 295.642 883.877 292.579 884.393 289.595Z" fill="#E5D6B6"/>
<path d="M1389.18 258.682C1392.49 262.219 1396.5 265.045 1400.96 266.984C1404.53 268.5 1408.37 269.26 1412.26 269.215C1416.14 269.17 1419.97 268.32 1423.49 266.722C1427.9 264.677 1431.84 261.774 1435.07 258.19C1435.67 261.17 1435.51 264.248 1434.62 267.154C1433.72 270.06 1432.12 272.706 1429.95 274.86C1427.68 277.197 1424.95 279.063 1421.94 280.348C1418.93 281.634 1415.69 282.313 1412.4 282.347C1409.12 282.381 1405.87 281.768 1402.83 280.544C1399.79 279.32 1397.03 277.511 1394.71 275.221C1392.49 273.114 1390.83 270.507 1389.87 267.625C1388.91 264.743 1388.67 261.674 1389.18 258.682Z" fill="#E5D6B6"/>
<path d="M1167.05 222.912C1174.31 235.332 1184.6 245.758 1197 253.234C1208.44 259.989 1221.55 263.488 1234.88 263.343C1248.2 263.199 1261.23 259.416 1272.51 252.414C1284.83 244.724 1295 234.12 1302.1 221.567C1302.01 229.71 1300.21 237.748 1296.82 245.174C1293.43 252.6 1288.52 259.255 1282.39 264.72C1269.55 276.402 1252.78 282.972 1235.31 283.16C1217.84 283.348 1200.92 277.14 1187.82 265.737C1181.55 260.394 1176.48 253.832 1172.9 246.463C1169.33 239.094 1167.34 231.076 1167.05 222.912Z" fill="#E5D6B6"/>
<path d="M1040.37 259.076C1045.82 265.627 1052.62 270.953 1060.33 274.696C1066.77 277.761 1073.85 279.311 1081 279.225C1088.15 279.141 1095.19 277.434 1101.56 274.237C1109.14 270.308 1115.79 264.838 1121.06 258.19C1121.77 263.323 1121.26 268.548 1119.55 273.449C1117.85 278.349 1115 282.788 1111.25 286.411C1103.29 294.303 1092.51 298.792 1081.23 298.909C1069.94 299.025 1059.07 294.76 1050.95 287.035C1047.1 283.509 1044.14 279.145 1042.3 274.291C1040.46 269.437 1039.8 264.227 1040.37 259.076Z" fill="#E5D6B6"/>
<path d="M768.387 291.596C763.986 298.544 757.321 303.81 749.485 306.528C741.43 309.43 732.706 310.02 724.324 308.232C715.943 306.443 708.247 302.347 702.131 296.42C696.123 290.734 692.261 283.199 691.182 275.057C696.399 280.125 702.234 284.535 708.553 288.183C714.339 291.476 720.601 293.878 727.122 295.305C733.677 296.704 740.413 297.092 747.089 296.453C754.363 295.703 761.517 294.072 768.387 291.596Z" fill="#E5D6B6"/>
</g>
<defs>
<filter id="filter0_d_2707_8559" x="-189" y="0" width="1763.97" height="473.55" filterUnits="userSpaceOnUse" color-interpolation-filters="sRGB">
<feFlood flood-opacity="0" result="BackgroundImageFix"/>
<feColorMatrix in="SourceAlpha" type="matrix" values="0 0 0 0 0 0 0 0 0 0 0 0 0 0 0 0 0 0 127 0" result="hardAlpha"/>
<feOffset dy="8"/>
<feGaussianBlur stdDeviation="12"/>
<feComposite in2="hardAlpha" operator="out"/>
<feColorMatrix type="matrix" values="0 0 0 0 0 0 0 0 0 0 0 0 0 0 0 0 0 0 0.25 0"/>
<feBlend mode="overlay" in2="BackgroundImageFix" result="effect1_dropShadow_2707_8559"/>
<feBlend mode="normal" in="SourceGraphic" in2="effect1_dropShadow_2707_8559" result="shape"/>
</filter>
</defs>
</svg>
