<svg width="33" height="34" viewBox="0 0 33 34" fill="none" xmlns="http://www.w3.org/2000/svg">
<path d="M6.39067 32.0435C9.15212 32.0435 11.3907 29.8049 11.3907 27.0435C11.3907 24.2821 9.15212 22.0435 6.39067 22.0435C3.62922 22.0435 1.39062 24.2821 1.39062 27.0435C1.39062 29.8049 3.62922 32.0435 6.39067 32.0435Z" fill="white" stroke="white" stroke-width="2.26087" stroke-linecap="round" stroke-linejoin="round"/>
<path d="M26.3907 30.3768C29.1521 30.3768 31.3907 28.1383 31.3907 25.3768C31.3907 22.6154 29.1521 20.3768 26.3907 20.3768C23.6292 20.3768 21.3906 22.6154 21.3906 25.3768C21.3906 28.1383 23.6292 30.3768 26.3907 30.3768Z" fill="white" stroke="white" stroke-width="2.26087" stroke-linecap="round" stroke-linejoin="round"/>
<path d="M30.8252 8.2681L11.9561 12.9859V7.48489L30.8252 2.76712V8.2681Z" fill="white" stroke="white" stroke-width="1.13043"/>
<path d="M11.3906 27.0435V13.7102V27.0435ZM31.3908 25.3768V8.71016V25.3768ZM11.3906 13.7102V7.04349L31.3908 2.04349V8.71016M11.3906 13.7102L31.3908 8.71016L11.3906 13.7102Z" fill="white"/>
<path d="M11.3906 27.0435V13.7102M11.3906 13.7102V7.04349L31.3908 2.04349V8.71016M11.3906 13.7102L31.3908 8.71016M31.3908 25.3768V8.71016" stroke="white" stroke-width="2.26087" stroke-linecap="round"/>
</svg>
