<svg width="33" height="31" viewBox="0 0 33 31" fill="none" xmlns="http://www.w3.org/2000/svg">
<path d="M20.5202 0.0434875V30.0435L7.34635 22.7466H0.609375V7.34041H7.34635L20.5202 0.0434875ZM6.29677 10.1415H3.45378V19.9454H6.29677V10.1415ZM9.14118 20.5267L17.6758 25.2536V4.8334L9.14118 9.55889V20.5267ZM28.2698 6.12892L29.2767 7.12052C30.3333 8.16096 31.1714 9.39616 31.7432 10.7556C32.3151 12.115 32.6094 13.572 32.6094 15.0435C32.6094 16.5149 32.3151 17.972 31.7432 19.3314C31.1714 20.6908 30.3333 21.926 29.2767 22.9665L28.2712 23.9567L26.2588 21.9749L27.2657 20.9847C28.8659 19.4087 29.7649 17.2714 29.7649 15.0428C29.7649 12.8142 28.8659 10.6768 27.2657 9.10091L26.2602 8.11072L28.2698 6.12892ZM23.7458 10.5869L25.7568 8.60651L26.7623 9.59671C28.2291 11.0413 29.0532 13.0006 29.0532 15.0435C29.0532 17.0864 28.2291 19.0457 26.7623 20.4903L25.7568 21.4805L23.7458 19.5001L24.7513 18.5099C25.2136 18.0547 25.5803 17.5143 25.8304 16.9195C26.0806 16.3247 26.2094 15.6873 26.2094 15.0435C26.2094 14.3997 26.0806 13.7622 25.8304 13.1675C25.5803 12.5727 25.2136 12.0323 24.7513 11.5771L23.7458 10.5869ZM23.2423 11.0813L24.2478 12.0715C24.6441 12.4617 24.9584 12.9249 25.1729 13.4347C25.3874 13.9445 25.4977 14.491 25.4977 15.0428C25.4977 15.5946 25.3874 16.1411 25.1729 16.6509C24.9584 17.1607 24.6441 17.6239 24.2478 18.0141L23.2423 19.0043L21.2313 17.0239L22.2368 16.0337C22.5035 15.771 22.6532 15.4149 22.6532 15.0435C22.6532 14.6721 22.5035 14.3159 22.2368 14.0533L21.2313 13.0631L23.2423 11.0813Z" fill="white"/>
</svg>
