<svg width="38" height="40" viewBox="0 0 38 40" fill="none" xmlns="http://www.w3.org/2000/svg">
<path d="M8.39067 33.0435C11.1521 33.0435 13.3907 30.8049 13.3907 28.0435C13.3907 25.2821 11.1521 23.0435 8.39067 23.0435C5.62922 23.0435 3.39062 25.2821 3.39062 28.0435C3.39062 30.8049 5.62922 33.0435 8.39067 33.0435Z" fill="white" stroke="white" stroke-width="2.26087" stroke-linecap="round" stroke-linejoin="round"/>
<path d="M28.3907 31.3768C31.1521 31.3768 33.3907 29.1383 33.3907 26.3768C33.3907 23.6154 31.1521 21.3768 28.3907 21.3768C25.6292 21.3768 23.3906 23.6154 23.3906 26.3768C23.3906 29.1383 25.6292 31.3768 28.3907 31.3768Z" fill="white" stroke="white" stroke-width="2.26087" stroke-linecap="round" stroke-linejoin="round"/>
<path d="M32.8252 9.2681L13.9561 13.9859V8.48489L32.8252 3.76712V9.2681Z" fill="white" stroke="white" stroke-width="1.13043"/>
<path d="M13.3906 28.0435V14.7102ZM33.3908 26.3768V9.71016ZM13.3906 14.7102V8.04349L33.3908 3.04349V9.71016M13.3906 14.7102L33.3908 9.71016Z" fill="white"/>
<path d="M13.3906 28.0435V14.7102M13.3906 14.7102V8.04349L33.3908 3.04349V9.71016M13.3906 14.7102L33.3908 9.71016M33.3908 26.3768V9.71016" stroke="white" stroke-width="2.26087" stroke-linecap="round"/>
<g filter="url(#filter0_d_3729_3094)">
<path d="M36.3906 2.04349L2.39062 36.0435" stroke="white" stroke-width="3" stroke-linecap="round"/>
</g>
<defs>
<filter id="filter0_d_3729_3094" x="0.890625" y="0.543488" width="37" height="39" filterUnits="userSpaceOnUse" color-interpolation-filters="sRGB">
<feFlood flood-opacity="0" result="BackgroundImageFix"/>
<feColorMatrix in="SourceAlpha" type="matrix" values="0 0 0 0 0 0 0 0 0 0 0 0 0 0 0 0 0 0 127 0" result="hardAlpha"/>
<feOffset dy="2"/>
<feComposite in2="hardAlpha" operator="out"/>
<feColorMatrix type="matrix" values="0 0 0 0 0.368627 0 0 0 0 0.862745 0 0 0 0 0.490196 0 0 0 1 0"/>
<feBlend mode="normal" in2="BackgroundImageFix" result="effect1_dropShadow_3729_3094"/>
<feBlend mode="normal" in="SourceGraphic" in2="effect1_dropShadow_3729_3094" result="shape"/>
</filter>
</defs>
</svg>
