<svg width="38" height="40" viewBox="0 0 38 40" fill="none" xmlns="http://www.w3.org/2000/svg">
<path d="M22.5202 3.04349V33.0435L9.34635 25.7466H2.60938V10.3404H9.34635L22.5202 3.04349ZM8.29677 13.1415H5.45378V22.9454H8.29677V13.1415ZM11.1412 23.5267L19.6758 28.2536V7.8334L11.1412 12.5589V23.5267ZM30.2698 9.12892L31.2767 10.1205C32.3333 11.161 33.1714 12.3962 33.7432 13.7556C34.3151 15.115 34.6094 16.572 34.6094 18.0435C34.6094 19.5149 34.3151 20.972 33.7432 22.3314C33.1714 23.6908 32.3333 24.926 31.2767 25.9665L30.2712 26.9567L28.2588 24.9749L29.2657 23.9847C30.8659 22.4087 31.7649 20.2714 31.7649 18.0428C31.7649 15.8142 30.8659 13.6768 29.2657 12.1009L28.2602 11.1107L30.2698 9.12892ZM25.7458 13.5869L27.7568 11.6065L28.7623 12.5967C30.2291 14.0413 31.0532 16.0006 31.0532 18.0435C31.0532 20.0864 30.2291 22.0457 28.7623 23.4903L27.7568 24.4805L25.7458 22.5001L26.7513 21.5099C27.2136 21.0547 27.5803 20.5143 27.8304 19.9195C28.0806 19.3247 28.2094 18.6873 28.2094 18.0435C28.2094 17.3997 28.0806 16.7622 27.8304 16.1675C27.5803 15.5727 27.2136 15.0323 26.7513 14.5771L25.7458 13.5869ZM25.2423 14.0813L26.2478 15.0715C26.6441 15.4617 26.9584 15.9249 27.1729 16.4347C27.3874 16.9445 27.4977 17.491 27.4977 18.0428C27.4977 18.5946 27.3874 19.1411 27.1729 19.6509C26.9584 20.1607 26.6441 20.6239 26.2478 21.0141L25.2423 22.0043L23.2313 20.0239L24.2368 19.0337C24.5035 18.771 24.6532 18.4149 24.6532 18.0435C24.6532 17.6721 24.5035 17.3159 24.2368 17.0533L23.2313 16.0631L25.2423 14.0813Z" fill="white"/>
<g filter="url(#filter0_d_3729_3093)">
<path d="M36 2.04349L2 36.0435" stroke="white" stroke-width="3" stroke-linecap="round"/>
</g>
<defs>
<filter id="filter0_d_3729_3093" x="0.5" y="0.543488" width="37" height="39" filterUnits="userSpaceOnUse" color-interpolation-filters="sRGB">
<feFlood flood-opacity="0" result="BackgroundImageFix"/>
<feColorMatrix in="SourceAlpha" type="matrix" values="0 0 0 0 0 0 0 0 0 0 0 0 0 0 0 0 0 0 127 0" result="hardAlpha"/>
<feOffset dy="2"/>
<feComposite in2="hardAlpha" operator="out"/>
<feColorMatrix type="matrix" values="0 0 0 0 0.368627 0 0 0 0 0.862745 0 0 0 0 0.490196 0 0 0 1 0"/>
<feBlend mode="normal" in2="BackgroundImageFix" result="effect1_dropShadow_3729_3093"/>
<feBlend mode="normal" in="SourceGraphic" in2="effect1_dropShadow_3729_3093" result="shape"/>
</filter>
</defs>
</svg>
