<svg xmlns="http://www.w3.org/2000/svg" viewBox="0 0 1033.46 620.1"><defs><style>.cls-1,.cls-10,.cls-13{fill:#f5f0d9;}.cls-1,.cls-10,.cls-13,.cls-14,.cls-15,.cls-16,.cls-4,.cls-6,.cls-7,.cls-8,.cls-9{stroke:#3a3d53;}.cls-1,.cls-10,.cls-15,.cls-4,.cls-6,.cls-7,.cls-8,.cls-9{stroke-miterlimit:10;}.cls-1,.cls-13,.cls-14,.cls-9{stroke-width:1.5px;}.cls-2{fill:#a9c0c9;}.cls-3{opacity:0.4;}.cls-12,.cls-15,.cls-16,.cls-4,.cls-6,.cls-7,.cls-8,.cls-9{fill:none;}.cls-4{stroke-width:0.6px;}.cls-11,.cls-5{opacity:0.8;}.cls-6,.cls-7,.cls-8{stroke-width:7px;}.cls-7{stroke-dasharray:20.32 20.32;}.cls-8{stroke-dasharray:20.08 20.08;}.cls-11{fill:#3a3d53;}.cls-12{stroke:#94b0bc;stroke-width:10px;}.cls-12,.cls-13,.cls-14,.cls-16{stroke-linecap:round;stroke-linejoin:round;}.cls-14{fill:#94b0bc;}</style></defs><g id="Layer_2" data-name="Layer 2"><g id="OBJECTS"><rect class="cls-1" x="3.6" y="3.6" width="1026.25" height="612.9"/><rect class="cls-2" x="14.29" y="14.29" width="1004.87" height="591.52"/><g class="cls-3"><line class="cls-4" x1="1019.14" y1="51.35" x2="14.32" y2="51.35"/><line class="cls-4" x1="1019.14" y1="22.84" x2="14.32" y2="22.84"/><line class="cls-4" x1="1019.14" y1="78.43" x2="14.32" y2="78.43"/><line class="cls-4" x1="1019.14" y1="105.51" x2="14.32" y2="105.51"/><line class="cls-4" x1="1019.14" y1="159.68" x2="14.32" y2="159.68"/><line class="cls-4" x1="1019.14" y1="132.6" x2="14.32" y2="132.6"/><line class="cls-4" x1="1019.14" y1="186.76" x2="14.32" y2="186.76"/><line class="cls-4" x1="1019.14" y1="215.27" x2="14.32" y2="215.27"/><line class="cls-4" x1="1019.14" y1="242.35" x2="14.32" y2="242.35"/><line class="cls-4" x1="1019.14" y1="269.43" x2="14.32" y2="269.43"/><line class="cls-4" x1="1019.14" y1="296.51" x2="14.32" y2="296.51"/><line class="cls-4" x1="1019.14" y1="350.67" x2="14.32" y2="350.67"/><line class="cls-4" x1="1019.14" y1="323.59" x2="14.32" y2="323.59"/><line class="cls-4" x1="1019.14" y1="377.76" x2="14.32" y2="377.76"/><line class="cls-4" x1="1019.14" y1="406.26" x2="14.32" y2="406.26"/><line class="cls-4" x1="1019.14" y1="433.35" x2="14.32" y2="433.35"/><line class="cls-4" x1="1019.14" y1="460.43" x2="14.32" y2="460.43"/><line class="cls-4" x1="1019.14" y1="487.51" x2="14.32" y2="487.51"/><line class="cls-4" x1="1019.14" y1="542.45" x2="14.31" y2="542.45"/><line class="cls-4" x1="1019.14" y1="514.59" x2="14.31" y2="514.59"/><line class="cls-4" x1="1019.14" y1="568.75" x2="14.31" y2="568.75"/><line class="cls-4" x1="1019.14" y1="597.26" x2="14.31" y2="597.26"/><line class="cls-4" x1="51.3" y1="15" x2="51.3" y2="604.89"/><line class="cls-4" x1="22.8" y1="15" x2="22.8" y2="604.89"/><line class="cls-4" x1="79.81" y1="15" x2="79.81" y2="604.89"/><line class="cls-4" x1="108.32" y1="15" x2="108.32" y2="604.89"/><line class="cls-4" x1="135.4" y1="15" x2="135.4" y2="604.89"/><line class="cls-4" x1="163.91" y1="15" x2="163.91" y2="604.89"/><line class="cls-4" x1="192.41" y1="15" x2="192.41" y2="604.89"/><line class="cls-4" x1="220.92" y1="15" x2="220.92" y2="604.89"/><line class="cls-4" x1="249.43" y1="15" x2="249.43" y2="604.89"/><line class="cls-4" x1="277.94" y1="15" x2="277.94" y2="604.89"/><line class="cls-4" x1="305.02" y1="15" x2="305.02" y2="604.89"/><line class="cls-4" x1="333.52" y1="15" x2="333.52" y2="604.89"/><line class="cls-4" x1="362.03" y1="15" x2="362.03" y2="604.89"/><line class="cls-4" x1="390.54" y1="15" x2="390.54" y2="604.89"/><line class="cls-4" x1="417.62" y1="15" x2="417.62" y2="604.89"/><line class="cls-4" x1="446.13" y1="15" x2="446.13" y2="604.89"/><line class="cls-4" x1="474.63" y1="15" x2="474.63" y2="604.89"/><line class="cls-4" x1="503.14" y1="15" x2="503.14" y2="604.89"/><line class="cls-4" x1="530.22" y1="15" x2="530.22" y2="604.89"/><line class="cls-4" x1="558.73" y1="15" x2="558.73" y2="604.89"/><line class="cls-4" x1="587.24" y1="15" x2="587.24" y2="604.89"/><line class="cls-4" x1="615.75" y1="15" x2="615.75" y2="604.89"/><line class="cls-4" x1="644.25" y1="15" x2="644.25" y2="604.89"/><line class="cls-4" x1="671.33" y1="15" x2="671.33" y2="604.89"/><line class="cls-4" x1="699.84" y1="15" x2="699.84" y2="604.89"/><line class="cls-4" x1="728.35" y1="15" x2="728.35" y2="604.89"/><line class="cls-4" x1="756.86" y1="15" x2="756.86" y2="604.89"/><line class="cls-4" x1="785.36" y1="15" x2="785.36" y2="604.89"/><line class="cls-4" x1="812.44" y1="15" x2="812.44" y2="604.89"/><line class="cls-4" x1="840.95" y1="15" x2="840.95" y2="604.89"/><line class="cls-4" x1="869.46" y1="15" x2="869.46" y2="604.89"/><line class="cls-4" x1="897.97" y1="15" x2="897.97" y2="604.89"/><line class="cls-4" x1="925.05" y1="15" x2="925.05" y2="604.89"/><line class="cls-4" x1="953.55" y1="15" x2="953.55" y2="604.89"/><line class="cls-4" x1="982.06" y1="15" x2="982.06" y2="604.89"/><line class="cls-4" x1="1010.57" y1="15" x2="1010.57" y2="604.89"/></g><g class="cls-5"><polyline class="cls-6" points="1024.51 601.16 1024.51 611.16 1014.51 611.16"/><line class="cls-7" x1="994.19" y1="611.16" x2="29.1" y2="611.16"/><polyline class="cls-6" points="18.95 611.16 8.95 611.16 8.95 601.16"/><line class="cls-8" x1="8.95" y1="581.08" x2="8.95" y2="28.98"/><polyline class="cls-6" points="8.95 18.95 8.95 8.95 18.95 8.95"/><line class="cls-7" x1="39.26" y1="8.95" x2="1004.35" y2="8.95"/><polyline class="cls-6" points="1014.51 8.95 1024.51 8.95 1024.51 18.95"/><line class="cls-8" x1="1024.51" y1="39.02" x2="1024.51" y2="591.12"/></g><rect class="cls-9" x="14.29" y="14.29" width="1004.87" height="591.52"/><rect class="cls-1" x="0.75" y="0.75" width="19.16" height="19.16"/><rect class="cls-10" x="4.58" y="4.58" width="11.49" height="11.49"/><rect class="cls-11" x="7.45" y="7.45" width="5.75" height="5.75"/><rect class="cls-1" x="1013.55" y="0.75" width="19.16" height="19.16"/><rect class="cls-10" x="1017.38" y="4.58" width="11.49" height="11.49"/><rect class="cls-11" x="1020.25" y="7.45" width="5.75" height="5.75"/><rect class="cls-1" x="0.75" y="600.2" width="19.16" height="19.16"/><rect class="cls-10" x="4.58" y="604.03" width="11.49" height="11.49"/><rect class="cls-11" x="7.45" y="606.9" width="5.75" height="5.75"/><rect class="cls-1" x="1013.55" y="600.2" width="19.16" height="19.16"/><rect class="cls-10" x="1017.38" y="604.03" width="11.49" height="11.49"/><rect class="cls-11" x="1020.25" y="606.9" width="5.75" height="5.75"/><path class="cls-12" d="M312.86,456.7c4.64-6.2,14.13-1.5,18.36-7.69,1.82-2.77,2.63-6.61,3.83-9.61,1.42-3.2,3.64-6.82,3.84-10.45,0-5.12-3.84-12.8-1.21-17.51.81-1.48,2.22-2.13,3.43-3.2,2-2.13,1.61-3.41,2.62-6,1.42-3.85,5.45-4.91,6.06-9.18a31.69,31.69,0,0,0-.21-8.75,10.52,10.52,0,0,0-1.41-4.27c-1.61-2.14-1.61-1.07-3.83-1.28-3.44-.42-4.44-2.34-7.27-4.48a18.81,18.81,0,0,0-9.88-3.63l-3.64-.64a20.92,20.92,0,0,0-3.63,0c-3.23-.42-2.22-1.28-4-3.2a14.49,14.49,0,0,0-6.06-3.41c-2.82-.43-3,1.07-5.24,1.27-.2-1.27-.2-2.77-1-3.84l-.2-.64c-2-2.34-3.43-1.06-4.24-4.69-.2-1.07.2-2.35,0-3.2-.61-1.28-2-1.28-2.42-2.57-.81-2.13.4-4.48-.81-6.82-1-1.93-3.83-4.07-5.65-5.13-6.46-4.05-13.73.85-18.16-6-2-3-2.83-4.06-5.65-5.77-2-1.28-3.84-3.63-5.66-5.33C258,318,258,316.9,254.13,318a13.83,13.83,0,0,1-9.29,0,29.62,29.62,0,0,1-4.64-1.29c-1.42-.65-3-2.35-4.65-2.78-2.82-.42-4.23,3.2-7.06,2.13.2-.85,2.42-3,1.41-4-.61-.85-3.22.85-3.83,1.07-2.83,1.5-7.07,1.92-9.29,3.63-2.83,2.14-1.82,8.11-4.84,9-2.83.87-2.22-1.7-3.44-2.77-1.4-1.07-2.61-1.07-4.63-.63v.41c-2.63-1.28-4.64,2.14-7.47,1.5-2.22-.65-2-1.5-3.63-3.2-.81-1.06-2.43-1.91-3.24-3.2-1.41-2.57-.4-6,.61-8.53,1.42-3.85,2.22-5.34.81-9.41-.81-1.91,0-2.13-2.43-3.2a8.21,8.21,0,0,0-5-.21c-1.82.21-6.86,3-8.28.21s3.84-10.67,4.65-13.43c.6-1.72,3.43-6,2.42-7.69-1-1.92-7.07-.85-8.48,0-3.23,1.7-2.22,4.69-3.63,7.47-1.21,2.35-4.64,4.05-6.86,4.7-2.23.85-6.66-.22-8.89-1.28C151,284.24,152,281,151,277.63c-1-3.86-3.23-6.19-2.23-10.46.81-3.21,3.24-5.55,3.84-9,.61-3.63.41-5.77,3.23-8.33a44.39,44.39,0,0,1,7.47-5.34c4-2.77,6-1.06,10.49-.63,2,.22,4.85.63,6.66-.85,1.21-1.07.6-2.14,2.22-3,1.42-.86,8.08-1.07,9.9-.21,1.61.63,2.21,2.13,3.62,2.55s1.82-.85,3.44.65c3.63,3.2-1.41,16,5.45,16.44,6.46.41,3.83-12.82,3-16-2.42-9.39,3-13.66,10.9-16.86,3.43-1.5,7.07-3.2,9.28-6.4,2.63-3.84,2-6,2.83-10,1-4.48,3-.85,5.85-3.2s4.85-6.18,7.07-9l.2-.42c2.22-2.57,4.24-.65,7.07-1.29,3.42-1.06,2.22-4.05,3.63-7,1.81-3.63,4.44-3.41,7.67-4.48,2.83-1.07,5-3,8.07-3.85,1.21-.63,7.47-2.13,4.24,1.5-.8,1.07-8.47,1.92-3.43,4.48,3,1.28,5.65-3.2,8.28-3.84,1.81-.64,7.06-.64,5.65-4.27-1-2.56-5.65-.43-7.07-3-2-3.63,3.43-4.7,4.24-6.83,2.83-6.62-15.54,1.71-16.55.85-2.42-2.13,3.63-6,5.25-6.61,2.83-.86,5.85.21,8.88-.64,3.23-.85,5.45-1.49,9.08-1.28,4.64.64,5.85,1.49,10.3-1.49,3.83-2.57,12.51-1.92,12.31-9.19,0-2.76-3-5.76-5.05-7.47-3.23-2.55-4-2.34-4-7,0-3,.81-6.82-1.21-8.75-3.63-3-6.66,1.07-10.09,1.49a7,7,0,0,1-3.63-.2c-2.63-2.14.19-1.72.4-4.06,0-1.71-2.82-6.62-4-7.47-1-.85-11.9-1.92-13.92-.64-3.63,2.13-.81,7-3.43,9.39-1.82,1.92-7.27-.64-5.25,5.33.8,2.78,3.84,4.7,1,7.9-4.85,5.34-11.91.22-13.53,9-.4,2.55-.6,6.82-3,8.32-2,1.28-5.85-.21-6.86-2.35-2.23-5.12,3.63-5.12,4.23-8.32.81-4.27-4.84-2.35-7.06-2.78-2.42-.63-6.06-3.2-7.87-4.9-1.41-1.29-1.21-3.2-3.43-3.42-1.62,0-3.23,2.35-5.45,1.49,0-3.41,3-5.76-1.62-6.82a7,7,0,0,1,.81-1.71l-.6.42c1-2.13.2-4,2-5.55,1.2-1.07,2.62-.21,4-.85,3-1.5,4.24-4.27,8.08-4.91,3.62-.64,5.85-2.13,9.27-4.27,3-1.92,6.07-2.34,9.29-4.06,2.43-1.49,4.44-4.9,6.86-5.76,2.83-1.06,6.26,1.28,9.29.43,2.22-.64,7.66-5.12,8.88-7,2.83-4.7-2.62-3-5.25-2.56-3.43.64-4,1.49-6.86,3.41-4.64,3.42-3-.43-4.84-3-1.22-1.71-2.83-.85-3.44-3-.2-1.28,1.21-2.55.81-3.84-1-4-4.24-1.06-5.85.64-.41.21-.2,1.5-.61,1.92-1,.86-2,0-3,.43-1.82,1.07-1.42,1.71-2.22,3.63-1.82,4.48-3,3-7.07,3.84-2,.43-2.22,1.07-4.64,1.07-2.42-.21-5.05-1.28-7.47-.86-1.82.43-2.42,1.92-4.65,1.29-1.2-.43-2.21-1.71-3.62-2.35-6.87-2.78-14.34,6.61-21.8,2.35-2.62-1.71-2.62-4.27-6.06-5.34a22.47,22.47,0,0,0-5.45-1.28c-2.61-.43-6.25.43-8.68-.43s-2.62-2.77-5.85-3a23.7,23.7,0,0,0-8.67.64c-3.84,1.5-5.46,2.78-9.49,3.21-3.84.42-5.05,1.7-8.68.42-1-.42-3.83-.85-4.84-1.49-1.22-1.07,0-2.14-2-3-2.22-.86-6.67,0-8.88,0-3.64,0-7.47.21-10.9-.86-2.82-1.06-4.85-2.13-8.07-1.91l.19.21c-3.42.42-6.25,1.49-9.68,1.7-3.44,0-6.26,0-9.49,1.29S82,91.72,78.53,92.79c-1.82.64-9.89,1.06-10.5,2.35-1.41,2.55,4,3.84,4,5.76,0,1.7-5.45,4-6.86,3.63-1-.22-2-1.93-3.84-2.35a6.35,6.35,0,0,0-4.44,1.06c-1.41.64-4.64,2.78-5,4.49,3,1.27,6,.63,9.28.85,6.86.64-.61,3-3.23,4C52.09,115,38.16,115.2,36.75,124c-1.21,6,3.83.42,5.45,1.7,1.82,1.5-5.45,4.06,0,5.55,1.41.22,8.48-3,5.45,1.07-1.21,1.92-6.46,2.35-8.48,3.42-1,.42-7.06,3.2-7.06,4.69,0,3.63,8.47-1.06,9.89-1.49,4.44-1.07,6.66-1.71,10.29-4.7,3.43-3,7.88-3.62,11.3-6.19,3-2.13,5.25-4.48,8.68-5.55,3.43-1.28,4,0,1.42,2.35-1.62,1.28-6.46,3.2-2.83,4.49,2.83.84,6.46-3.21,8.48-4.49,3-1.92,5-3.63,8.67-2.35,3.24,1.07,6.46,1.92,9.69,3,6.46,2.35,10.1,9.82,9.29,17.08-.4,3-2.63,6-2.42,9,.4,3,3.42,5.13,4.84,7.68.81,1.28,3.43,8.33,1.61,9.4-2.22,1.07-2.82-6-4-6.83-2.83-1.71-4.44,1.28-3.23,3.62,1.41,3.21,3.64,2.56,2,6.83a67.14,67.14,0,0,1-4.65,8.54c-2,3.63-5.25,4.7-7.67,7.68-2.62,3-.4,6.62-2,9.82-1,2.35-4.64,2.78-5,5.77-.2,1.92,1.61,5.55,2.22,7.68a34.74,34.74,0,0,1,.6,6.4l-.2-.84c.2,1.91-.6,6.18.61,7.46.81.85,2.63.64,3.43,1.07,1.81,1.28,1.61,1.92,2.42,3.62,1,3,2.63,5.55,2.22,8.75-.2,1.07-1,2.78-.8,3.85.4,2.14,1.61,1.49,2.22,3,1.62,3.63-1.42,5.55-1.21,8.31.4,2.79,3.22,2.36,4.64,3.64,1.61,1.28,1.41,2.13,2,4.27.4,1.91,2,7.05,4.84,7.25,3.84,0,0-5.12-.61-6.82-1-2.35-.81-4.7-1.4-7.05-.81-2.56-2.83-4.49-3.44-7-.2-1.28.2-2.56,0-3.63-.61-1.7-1.82-2.14-2.43-3.63-.79-1.71-1-4.27,1.42-4.69l.4-.22c4.24-.64,4.64,3,4.64,6.19,0,3.42.41,4.7,2.23,7.9,1.81,2.77,2,5.77,3.23,8.54,1.61,3.41,4.64,5.55,6.46,9,1.2,2.35,3.83,5.76,4,8.54.2,3.2-2.62,4.69-1.41,7.9,1.21,3.62,7.26,5.34,10.09,8.1,3.23,3.21,6.66,3.42,10.7,4.91,4.23,1.28,5.65,1.5,9.49.43,3.62-.85,7.66-.22,9.68,3,.6,1.29-.2,2.14,1,3.42a11,11,0,0,0,3.84,1.92c3,1.72,5.85,1.93,8.87,3,3.24,1.07,1.82,3.2,4.24,4.9,1,.65,2.63-.42,3.64.65,1.82,2.13-.61,1.7-1,3.2-1,4.47,2,4.9,4.84,7,2.42,1.7,4.24,5.33,7.47,6.18,3.84.87,6.86-6.62,9.28-4.68l-.4-.44c2,1.71,3,5.77,3.83,8.12a15.56,15.56,0,0,1,.81,7.47c-.2,4.27-.61,7-3.63,9.82a10.64,10.64,0,0,0-3,3c-.2.42.4,1.49,0,1.92-.61.85-1.61.64-2,1.29-3.24,3.41-5.66,8.75-3,13.65a11.86,11.86,0,0,0,2,2.35c.4,2.57-.41,1.5-1.82,2.78-2,1.92-2,.21-2.23,3.41a17,17,0,0,0,.41,4.48c.6,4.27,3.23,3,5.24,6.4,2.63,4.07,2.83,8.12,6.27,11.75,5.65,6,6.05,17.07,13.31,22,3.64,2.35,7.07,1.71,10.3,5.33,1.82,1.93,5.45,4.06,6.25,6.41.61,2.13.21,5.76.41,7.9,0,2.77.2,5.55.2,8.32v2.78l-.4.21c-.21,5.55,1.82,10.46,2.42,15.79.61,5.77-.6,12,.2,17.93a74.12,74.12,0,0,1,.81,11.74c0,3.63-1.82,6.62-1.41,9.82.2,3.2,2.41,6,2.82,9.18.2,1.91.2,4.69,1.21,6.4,1,1.92,1.21,1.06,2.63,2.13,5.65,4.49,4.84,15.59,7.87,22,1.21,3,1.41,5.33,2.22,8.11,1,3.41,4.44,6.83,6.45,10s3.84,4.91,7.47,3.42c1.42-.43,1.62-2.57,3.84-1.29,1.41.86,1.61,3.2,2.62,4.49,1.62,2.56,3.44,3,6.26,2.77,1.21,0,2.62.64,3.23-.64,1-2.56-1.62-1.92-2.83-2.56-2.62-1.28-4.84-2.56-6.46-5.34-.81-1.49-1-3-2-4.27-1.4-2.13-2.21-1.92-2.21-4.9.2-6.83,8.07-9.4.6-13.88-2.62-1.71-4.64-3-2.22-6.19.81-1.28,2.43-1.28,3-2.77.41-1.07-.4-2.78,0-4.06,1-3.63,3.63-3.2-.2-5.76-2.83-1.71-4.85-4.27,0-3.84,3,.21,3.83,1.49,4-3,0-3.42-2.22-6.4,2.63-6.62,3.23-.21,6.26,1.71,8.88-2.13,1.61-2.14,1-6,0-8.33-1.41-3.2-5.45-6,.2-5.33,2.42.22,3.84,1.28,6.66,0,3.23-1.07,2-1.07,2.83-3.63.4-1.07.6-1.92,1-3,.4-.85,1.4-1.7,1.81-3.41.81-3.84,1.41-6.19,4-9.18,4-4.06,5.85-6.4,5-12.6-.6-5.54-.6-5.75,3.24-9.38"/><path class="cls-12" d="M578.87,217.37c-.81,4.55.79,7.4-.81,11.95-1.08,3.7-.55,6.83-3.77,8-4,1.42-6.2-2-9.42-2.56-4-.58-5.38,3.69-9.69,2.56a64,64,0,0,1-10.49-3.42c-3.77-1.42-6.19-5.12-10.23-4.84-5.92.57-3.5,4.27-5.12,8-2.41,6.55-5.65,0-9.14-1.41-1.35-.57-3,.28-4-.29-1.89-.86-1.61-2.28-3-3.41-3.23-2.29-7-1.15-10.23-3.14h0c-1.34-1.13-4.3-2.27-4.56-4.26-.55-2.29,1.34-2.57,2.15-4.55,1.61-5.13-.27-8-4.85-8-7.27,0-14.53,2.27-21.79,2.84-4.32.29-7.81.57-11.85,2.84-3.23,1.72-5.65,4-9.69,3.14-5.65-1.14-4.57-2-8.34,2.85-3.22,4.27-8.34,6-10,11.38-1.08,3.41-.54,7.39-3.24,10.24-2.42,2.57-5.65,5.12-8.07,7.68-1.35,1.14-3.5,2.29-4.3,4-1.08,1.7-.27,3.42-.81,4.83-1.61,4-5.92,4.84-7,9.11-.81,4,1.08,8.55,1.62,12.23.53,4.85-.81,7.41-1.88,12a26.78,26.78,0,0,0,4.3,22.2c3,4,7,6.84,9.42,10.82a39.46,39.46,0,0,0,7.53,10.24c4.84,4.83,8.61,4.27,13.73,2.57,4.3-1.72,8.61.56,13.72-.29,8.08-1.43,15.88-10.54,22.87-1.43,1.08,1.15,1.89,3.42,3.24,4,2.15.57,3-1.42,4.57-1.7,4.57,0,7.26,3.42,7.26,8V350l-.26-.85c.54,8.53-6.2,13.93-.55,21.34,2.43,3.41,6.2,5.4,8.08,9.1,1.89,3.42,1.34,7.4,2.7,11.1,1.34,4,1.07,7.4,1.88,11.67,1.08,5.69,1.34,5.4-1.62,10.25a23.67,23.67,0,0,0,.27,27c2.43,3.42,5.38,8.25,5.12,12.81,0,5.41-1.62,6,1.61,11.66,2.16,3.7,3,7.69,4.57,11.67,1.62,3.7,4.31,6.55,4.84,10.82.54,4-1.34,8.25,2.16,11.38,3.23,2.56,7,0,10.76-.57,5.39-.85,12.38-1.42,17-4.84,3-2.55,4.58-6.54,7.27-9.67,3-3.13,6.18-5.41,7.8-9.68,1.07-2.84.81-6.54,1.88-9.39,1.62-4,5.38-4,8.35-6.83,2.15-2.56,2.42-5.41,1.88-9.11s-2.43-6.83-.81-10.52c1.35-3.42,5.66-6.27,8.61-8.26,4-2.84,9.15-5.41,11-10.24,1.61-3.71-.28-7.41-.81-11.39-.28-4,.27-7.4-.81-11.1-1.61-4.27-1.61-5.12-1.35-9.39.28-8-2.68-16.22,5.93-20.77l-.28-.28c3.77-2.85,5.93-6.56,9.15-9.39s7.28-5.13,10-8.54c5.37-6.55,8.61-16.52,11.57-24.77.81-2.83,3.49-10-1.62-10.8-2.42-.29-6.73,4.55-9.68,4.83-2.7.29-7.27.57-10,0-5.92-1.13-4-4-5.37-8.53-1.62-6-9.42-6.55-12.38-11.39-1.62-2.28-.28-6-1.89-8.82-2.16-3.13-4.31-3.13-5.38-7.12-.54-2.85,0-6-.81-8.82-.81-4-3.5-5.11-5.92-8-2.16-3.13-3-6.26-4.31-10-1.07-3.12-3.76-6-4.3-9.39,1.89-.57,7.8,3.13,9.42,4.55,2.69,2.85,4.85,8.82,6.73,12.52,1.61,3.14,4.3,7.12,5.11,10.54.81,4.27-1.08,6,3,8.82,1.61,1.13,3.23,1.13,4.84,2.85,1.08,1.13,1.88,3.13,2.69,4.55,2.16,3.42,4.31,6.83,5.12,11.1.27,3.12-1.08,7.1,2.42,8.25,3,.85,8.88-2.85,11.57-3.41,5.12-1.14,10.49-.29,13.72-4.84,2.7-3.42,3.77-5.7,7.27-8.53A83.78,83.78,0,0,0,652.6,284c2.16-2,7.26-8,7.26-11.39,0-5.11-7.8-6.26-10.76-8.81-3-2.85-2.42-7.69-6.72-4-2.7,2.55-2.43,6.82-7.27,5.69a14.19,14.19,0,0,1-4.85-4.27c-1.34-2.28.53-3.42-.26-5.69-1.08-2-5.12-2.28-6.73-4-1.88-1.72-2.69-4.85-3.5-7.12l-.54-.85c1.07-5.42,5.38-3.42,7.53-.86,3.24,4,3.24,6.55,7.8,8.54,3.24,1.42,7,3.41,10.51,3.12,1.88-.28,2.68-3.12,5.37-1.42,1.89,1.42.81,3.42,1.89,4.84,2.43,2.28,7.27,1.14,10.23,1.43,2.69.29,5.65,1.71,8.07,1.71,4.57,0,8.88-4,13.46-.86,2.41,2,2.69,6,4.84,8.82.81.85,1.62.85,2.41,1.7.28.87-.26,2.29,0,2.85,1.36,2.29,1.89,3.42,4.32,3.71,4.84.85,1.34-2.29,4.57-3.71,3.5-1.7,3.23,2.29,3.23,4.84s-1.34,5.42-1.08,8c.27,3.41,2.69,4.55,4,7.68,1.61,2.85.27,6,1.61,9.1,1.08,3.14,3.77,4.86,4.85,8.26a139.4,139.4,0,0,0,6.46,14.8l-.27-.85c2.42,4,5.38-1.71,7-3.7,3.23-4,1.62-4,1.89-9.38.26-4,1.07-8.26,1.34-12.24.28-4.85,3.23-6,6.46-9.12,2.69-2.83,6.73-5.12,8.89-8.54,2.69-4,2.15-5.4,6.18-8.25,2.43-1.7,7-4.83,10.23-3.13,2.43,1.15,1.07,2,2.15,3.7a20.83,20.83,0,0,0,4,4.55c3.23,3.13,4.57,6,5.66,10.54.52,2.85-.28,8.25,3.48,8.25,3.51,0,3.24-6.84,6.2-5.69,1.61.85,3,8.54,3.77,10.52a39.7,39.7,0,0,1,4,19.36c0,3.42-.81,6,.54,9.1,1.61,3.13,4.85,6,6.73,9.4,1.61,3.12,2.69,7.4,5.11,10,3,3.41,6.72,5.41,6.46.28a78.46,78.46,0,0,0-1.88-11.39c-1.35-4-5.66-4.83-8.35-8-6.46-6.53-7-10.8-5.92-19.62.81-5.42,2.15-5.13,6.19-2.85,4.57,2.57,5.38,3.7,7.53,7.69.55,1.13,2.16,2.55,2.69,3.41.28.86.81,4.84,1.36,5.12,3.22,2.57,5.11-2.56,6.72-4.26,2.7-3.42,6.73-4.56,7.54-9.11.53-3.42-.28-10-1.88-12.53-3.5-6-16.43-13.94-10.5-22.19,2.42-3.42,6.73-3.42,9.69-1.14,1.07.57.26,4.55,3.76,3.12.81-.28.81-3.4,2.15-4.27,1.08-.85,3-.28,4-.85,2.16-.85,3-3.13,5.38-3.41h-.54c13.19-2.27,15.88-18.49,16.69-29.88-5.11-.28-1.08-2.85-1.34-5.4-.28-2-4.85-6.55-6.2-8.25s-5.65-5.42-6.18-7.4c-.54-3.42,4-5.7,5.92-7.69-2.7-2.85-6.73.57-10-.56-1.34-.58-6.72-4.85-6.72-6.27,0-2,7-7.69,8.88-7.4,4.31.85-.54,6.55,3.23,8,4.58,1.72,5.38-7.68,10.23-.85,1.34,1.71.26,2.29,2.42,4.27,1.61,1.43,3,1.14,4.3,3.42,1.89,3.13.81,6,1.89,8.82.81,2.57.26,2.57,3.22,2.57a31.57,31.57,0,0,0,4.85-1.72c8.88-7.1-8.34-12.81-9.69-18.49-.53-3.7,3-4.84,3.24-8.54.26-3.41-2.16-8.53,4.3-6.55,1.88.57,1.35,3.14,4,2.85,3-.28,2.43-1.42,2.43-4,.26-1.72-1.08-3.7-.81-5.7.27-2.27,1.35-3.69,1.88-5.69.81-3.13,1.08-6.55,1.62-10,1.07-4.55-.27-4.84-2.43-8.82-2.69-4.27-2.69-6.54-7.8-8.26-3.22-.85-6.19,0-9.15-.85-2.15-.56-2.15-1.13-3.77-2-.8-.57-3.22-1.71-3.77-2.28-2.15-1.42-1.61.57-2.15-2.56-.26-1.42.54-4.27,1.08-5.69,1.35-2.85,3.5-8,6.46-9.1,1.35-.57,4.31-.29,5.92,0s3.76,2,5.11,2c2.16,0,2.7-1.7,4.3-2.27,3-.57,3.51,1.42,5.66,2,1.61.57,3.76,1.43,5.65.57,3.5-1.14,1.62-.85,1.62-3.41,0-2-1.08-9.11,4-6.26,2.43,1.42,3.24,8.25,7.53,4,1.62-1.14.27-4,2.16-5.12,2.42-1.71,4,0,4.31,2.27.54,2.57-1.89,3.42-2.43,5.41-.53,2.56.81,4,.27,6.26s-3.23.85-2.95,4c0,1.71,2.68,3.7,3.49,4.83a80.07,80.07,0,0,0,8.61,10.54c1.35,1.41,7.54,8.25,9.42,7.4,2.69-1.15-.27-3.14-.27-4.27,0-.86-.26-1.43-.26-2.28.26-1.42,1.88-1.42,2.14-2.28.55-2-.53-3.13-.81-5.41,0-.57,1.89-.85,1.89-2.56-.27-1.14-1.89-2-2.15-2.84-.81-1.71-1.07-4.55-2.42-5.69-1.89-2.56-4-1.14-6.19-2.56-4.31-3.14-2.43-7.4,2.15-7.12,2.43.28,3.77,2,6.19,2,1.89-.28,4.3-2,5.92-2.56h-.26c3.22-2,2.41-5.69,6.72-6.55,3.23-.57,8.07.86,3.49-3.41-1.34-1.71-10.49-4.55-4.56-7.68,3.22-1.71,9.68,4,12.91,4.27,1.07.28,3.5.85,4.31,0,2.15-2.28-.55-2.57-1.08-4.27-2.42-5.41-3.5-4.27-8.61-5.41-7.53-2-15.61-2.28-22.88-5.12-8.34-2.85-22.33-8-31.22-5.41.55,1.14,1.35,2.84,1.89,3.7-3,1.42-6.19-2-9.15-2.84-4-.86-8.88,0-12.92.28-4.57,0-6.18-1.14-10.49-2.85-3.77-1.42-8.88-.57-12.92-.85-5.92,0-8.07-.29-12.91-3.42-5.65-3.41-10.77-3.13-17-3.13-3,0-7.8-.85-10,1.14-2.41,2,.28,3.42-3.49,4.27-1.62.29-4-.85-5.65-.85-3.5,0-3,1.42-5.65,2.27-3.77,1.14-5.93-2-8.35-4a29.41,29.41,0,0,0-18-6c-2.15.29-3.76,2-6.46,2.28-3.5.28-7-2-10.76-2.28-6.19-.28-13.18,3.7-19.11,1.71.81-3.42,6.19-1.71,6.19-6,0-3.42-4-4-6.46-3.71h.27c-3,0-5.65,1.14-8.07.85s-5.92-1.71-8.08-2.56c-2.68-.85-4.57-2.85-7.53-1.42-2.68,1.13-1.89,3.13-3.77,4.27-1.61.85-3.77.56-5.38.56A30.2,30.2,0,0,0,679,72a28.4,28.4,0,0,0-4.84.85c-3.23,1.14-1.89,1.14-3.77,2.85s0,1.7-3.23,2.56c-1.35.28-3.23-.57-4.58,0-5.91,2,.81,2.56,1.08,6-2.42.86-17.76-3.41-17,2.28.27.86,3.23,3.42,4,4,.53.28-.28,1.7.53,2.27,1.08.85,2.7.29,3.5.85,2.15,1.43,1.89.29,1.89,3.71,0,1.42.26,3.12-.55,4.26-2.41,2.85-8.34,1.43-8.34-2.27,0-2,1.62-2.85,1.35-5.12-.54-2-3.23-4.84-4-6.27-2.43-3.7-3.24-7.4-8.08-7.11-5.39.28-7,3.7-3.22,7.68,1.88,1.71,8.33,6.83,1.88,6.26-3.5-.28-5.93-4-9.7-4.26-4.84-.29-6.45,2.84-10.22,4.26-3,1.14-8.07,0-11.3,0s-18.3,6.55-19.11,5.41c-.53-1.42,2.69-2.28,2.16-3.7s-3.77-2-5.12-1.42c-5.65,2.28,2.16,4.83-2.15,8.25-1.08,1.14-3.5-.28-5.11.57-2.16,1.14-1.35,2.56-2.43,3.42-3,2.84-4.3,0-8.07,0-2.16,0-.8,2.27-4,.85-.26,0-3.49-3.42-3.49-4-.28-2.84,5.11-1.42,7.53-1.42s7.54,1.14,8.34-1.71c1.35-4-5.11-4.55-7.26-5.4-5.93-2-13.19-3.7-18.57-5.69-2.7-.86-4.3-2.85-7.8-2.28v-.28c-7.8-.29-13.45,2-21,3.41-6.73,1.42-10.78,11.67-15.88,16.79a29.61,29.61,0,0,1-9.16,6.26c-4.57,2-7.8,1.14-8.87,6.83-.55,2.85.26,8,2.41,10,3.24,3.13,5.93-.28,8.89-1.71,4.3-2.27,5.65-.85,7.26,3.7.54,1.43,2.16,9.68,2.69,10,2.16,1.7,8.89-3.13,9.42-5.13.81-1.42-.27-3.7.54-5.12.81-2,3-2.28,3.77-4,2.42-4.83-3.5-6.26-2.15-11.09,1.34-4.56,6.18-4,8.61-6.83,2.42-2.57,2.69-7.4,7-6,5.66,1.71-.54,5.69-2.69,8.25-4.84,5.7-.81,14.23,6.19,12.24,2.42-.85,6.19-3.13,8.88-2.27,4.58,1.42,2.43,4.83-1.34,5.4-2.16.28-6.19-2-7.81.28-1.88,3.14,2.16,2.28,1.88,4-.8,2.85-2.41,2-4.3,2.56-2.15.57-2.69-1.14-4.31,2-.53,1.14.28,3.42,0,4.55,0-.28-3.77,4-3.22,3.7-3.51,2-1.35-.85-4.31-1.13-3.77-.29-6.19,4.26-9.95,4.26-2.7,0-2.43-2.27-4.32-2.84-2.41-.57-3.76,1.43-5.91,1.14-6.73-.28-3.23-4-3-7.68.53-5.7-5.11-4-5.92.28-.54,2.84,3.49,6.55.81,9.1-1.62,2-7.27,1.14-10,3.42-2.43,2-4.58,5.12-7.27,6.83-1.34,1.14-3,1.71-4,2.84s-1.61,4-3.22,4.56c-1.88.28-7.54-6-6.46.86-2.69.57-7.27-.86-8.08,2.55-1.34,4.56,3,2.85,5.12,3.7,4.3,1.72,8.88,12.52,2.15,14.81-5.11,1.7-13.45-2.86-18.84,0-3.22,1.7-1.88,5.68-2.15,9.1-.54,3.7-2.15,4.83-3.77,7.68,5.11,2.28-1.07,7.12,5.39,8.25,3.76.57,7-1.13,8.61,3.71,3-3.42,4.3-.57,7.8-1.71,2.69-.86,1.62-1.71,3.77-3.7,1.34-1.43,4-2,4.84-3.41.54-1.43-.81-4.27,0-6,.54-1.7,2.15-2.83,3.5-3.69,4.3-2.56,4.57-1.43,6.73-6,1.61-3.42,1.08-3.7,5.38-3.42,1.61,0,3.76.86,5.38.29.81-.29.54-2,1.07-2,1.36-.57,2.17.29,3.24,0,3.49-.86,6.45-2,8.61,2.56.81,1.71-.27,4,1.08,5.7.8.56,4.3,1.41,5.1,1.7,1.62.85,5.66,1.71,6.73,2.85,1.62,2,.54,4.27,1.09,6.54,2.41,10,2.15-6.26,6.45-4.27,2.16-4.56-12.91-11.09-14.8-14.79-1.88-3.42-1.35-9.11,3.23-6.55,1.62.85,2.42,4.26,3.77,5.4,1.61,1.43,3.23,1.15,4.84,2.28,2.69,1.42,6.19,4.27,7.53,7.12a16.81,16.81,0,0,1,.81,3.7c.54,2.27.27,2.84,1.35,4.55.8,1.7,2.69,3.13,3.23,4.55.53,1.14,1.34,5.12,2.15,5.69,3.23,2.85,6.19-2.55,6.19-5.12,0-2.27-2.16-5.4-1.35-7.69,1.08-2.84,5.65-2,8.35-2.26,1.35,2,0,3.41.26,5.68.28,2.57,1.89,3.7,3,6,.8,1.42,1.34,3.13,3,4,.8.57,1.88,0,3,.28a18.76,18.76,0,0,1,2.42,1.71c2.16.28,2.42-.86,4.84-1.14,2.16-.28,3.5,1.42,5.65,1.42,3-.28,7.27-5.12,9.7-.57"/><path class="cls-12" d="M580.89,172.61c-1.22.85-1.62,1.92-3.14,2.45s-3.52.22-5,1c-2.12,1.07-1.11,2.24-1,4.16.1,1.49-.61,3.09-2.32,2.88-3.33-.54-3.53-6-6.66-6.83-5.05-1.28-7,5.34-8.69,9-.79,1.82-2.31,3.32-2.82,5.23-.5,2.14.91,3.1,2.13,4.7,1,1.39,2.21,4.16,4.23,3.2.71-.32,1-1.18,2-1.49,1.32-.32,2.62.43,3.93,0,1-.32,1.72-1.5,2.53-2.14a8.06,8.06,0,0,1,3.83-1.17c3.13-.33,6.36,1.27,9,2.77,2.42,1.29,4.43,2.67,7.16,2,1.92-.53,5.05-.86,6.46-2.34,2.82-3.2-1.62-6.84-3.94-8.33-2-1.28-4.24-2.24-6.36-3.31-1.1-.53-3.42-1.17-4-2.35-1.31-3,2.42-2.45,3.54-3.73,1.4-1.5,1.7-5.56-.81-5.66"/><path class="cls-12" d="M619.94,173.46a9.73,9.73,0,0,0-7.67,3c-1.31,1.39-3.74,3.32-3.94,5.45-.2,2.56,2.63,6.08,4,7.89,1.21,1.4,2.21,2.88,3.33,4.38.91,1.38,2.62,2.67,3.23,4.37a12.5,12.5,0,0,1,0,5.77c-.4,1.5-1.62,2.66-1.72,4.37-.1,3.09,2,3.21,4.24,3.84,2.42.75,3.94,3.1,6.46,3.85,5.45,1.6,8.57-4.16,6.46-9.29-1.21-2.77-4.75-3.2-5.86-5.76s1.42-2.25,2.93-1.92c2.43.42,3.33-.75,2.12-3.2s-3.53-3.32-5.86-3.95a13.3,13.3,0,0,1-7.46-4.91c-1.31-1.71-2.22-5.23.71-6,1.51-.33,2.82.95,4.44.1s1.51-3.1,1-4.81c-.71-2.23-3.74-3.41-5.95-3.3"/><path class="cls-12" d="M461.3,134c-.5,0-1.51-.21-1.61-.74-.31-1.18,1.21-1,1.51-1.61,1.11-2.24-3.53-2.24-4.65-1.5-2.71,1.5-3.22,7.47-2.12,10.14.91,2.25,3.94,3.42,5.66,4.59.91.75,2.82,3.53,1.91,4.81s-2.92-.21-3.93,1.17-1.62,3.95-.3,5c.6.53,1.72,0,1.51,1.28-.1,1-1.51.85-2.12,1.17-1.31.43-2.52,1.5-2,3.31.81,2.77,3.23-.64,4.65-1.18,2.31-.95,4.13.75,6.25.44,1.22-.12,1.42-1.07,2.22-1.5s1.62-.11,2.42-.32c2-.53.91-2.24,2-3.84.51-.75,1.52-.75,1.61-1.82s-.9-2-1.61-2.56-1.81-.85-2.52-1.6a15.75,15.75,0,0,1-2-3.2c-1.11-1.71-4.25-3.31-4.55-5.55-.41-2.67,2.22-1.71,3-3.42,1.71-3.52-3.64-3-5-3"/><path class="cls-12" d="M448.08,142.73c-1.92.86-1.71,2.78-3.73,3.09s-3.44.11-3.44,2.78c0,1.6,2.12,2.35,1.62,3.84s-2.82,1-2.42,3.31c.71,4.38,6.05-.21,7.86-.64,1.62-.32,3.14.11,4.15-1.82.81-1.49-.31-3,.2-4.58.81-2.35,2.52-2.46.61-4.91-1.72-2.14-2.63-2-4.85-1.07"/><path class="cls-12" d="M495,197.15c-2.82,0-2.52,2.25-2.72,4.49-.2,2.45-.3,4.27,2.72,4.17s3.23-2,3.23-4.71c0-2.13-.1-4.16-2.82-3.95"/><path class="cls-12" d="M494.4,191.07c-3.13.43-.5,4.8,2,3.32,1.81-1.19.1-4-1.81-3.42"/><path class="cls-12" d="M511.66,208.57c-1.72,0-6.26-1.16-6.06,1.71.1,1.39.81,1.49,1.92,1.93,1.51.53,1.21.74,2.22,1.81,4,4.69,5.75-6.08,1.82-5.55"/><path class="cls-12" d="M570.08,220.43c-1.11-.12-2.72,0-3,1.38-.39,2.13,1.92,1.49,3.13,1.82s2.43,1.48,2.73-.75c.31-1.71-1.21-1.92-2.42-2.35"/><path class="cls-12" d="M731.35,323.4c-3.33.1-2,5.55-2.23,7.69-.1,1.5-.69,2.67.31,3.83a3.25,3.25,0,0,0,3.43,1.19,10.06,10.06,0,0,0,3-2.57c1.31-1.38,1-2.55.2-4.15-.9-1.94-2.42-5.89-4.74-6.09"/><path class="cls-12" d="M798.56,350.83a30.66,30.66,0,0,1-5.15-5.22c-1-1.4-1.72-3.32-2.83-4.6-1.41-1.81-8.68-3.42-9.88-1.07-1.62,3.32,4.33,5.45,5.95,6.74,2.32,1.91,5.35,4.9,6.16,8s-.91,4.68,1.11,7.47a91.45,91.45,0,0,1,6.46,8.63c1.91,3.2,4.23,6.84,7.06,9.19,1.1.95,3.73,3.08,5.45,2.55,1.91-.63,2.12-3,2.12-4.69,0-2.45,1.1-7.15-.21-9.18s-4.44-1.7-5.65-3.84,0-4.48-1.91-6.51c-2.53-2.55-5.65-4.37-8.18-6.94l-.71-.75"/><path class="cls-12" d="M832,385.73c-1.92-.33-2.83,1.06-4.74,1.06s-4.14-1.7-5.85-2.45-3-1.39-4.75-.42c-.9.53-2.82,2-2.52,3.3.5,1.92,4.34,1.92,5.75,2.78,2.52,1.39,3.93,1,6.76,1.06,2.32.11,3.33,1.61,5.35,2.35,2.62,1,5.85.53,8.58,1,1.51.22,6.36,1.07,5.65-1.91-.51-2.14-3.54-1.29-4.75-2.46-.7-.65-.7-2-1.41-2.67a6.68,6.68,0,0,0-3.53-.86c-1.31,0-3.13.75-4.14-.74"/><path class="cls-12" d="M855.68,336.86c-1.62-.75-2.93-2.89-4.55-3.42-2.41-.85-3.32,2.77-4.33,4.48-1.82,3.3-5.46,4.06-7.88,6.62-1.82,1.7-2.83,3.94-4.74,5.65-1.41,1.07-2.52,2.14-4.34,1.92-2.32-.32-2.92-.85-4,1.82-1.11,2.45-1.41,5.76.11,8,.91,1.28,2.42,2,3.12,3.3s.3,2.79.61,4.17c.5,3.2,2.42,2.24,4.44,3,1.11.44,1.81,1.6,2.82,2,1.52.63,1.62.1,2.73-.44,1.52-.73,2.21-.41,3.83.65s3.54,2.55,5.45,1c1.72-1.49,1.31-4.59,1.31-6.73,0-2.56.41-3.73,2.33-5.23A4.72,4.72,0,0,0,855,359.9c.3-2.14.3-2.14,2-2.88,1.12-.42,1.32-.11,1.62-1.61.3-1.27-.3-2.67-.81-3.93-1-2.47-3.42-5.45-1.61-8.22,1-1.39,3.33-1.82,3.13-4.06s-2.12-1.61-3.53-2.24"/><path class="cls-12" d="M824.09,282c-2.12-.53-5-1.27-5.05,1.72-.1,2.55,1.72,3.73,4,3.73,1.21,0,3.43-1.18,3.74-2.56a2.42,2.42,0,0,0-2.63-2.77"/><path class="cls-12" d="M858.4,260.44c-3-.64-2.53,2.88-3.74,4.48-.9,1.07-2.32.85-1.71,2.67.3,1.07,1.71,1.82,2.42,2.78s1.31,2.24,2.93,1.27,1-3.08,1.11-4.59c.2-2.88,1.41-3.83-.61-6.3"/><path class="cls-12" d="M896.14,196.73c-2-.21-2.12,2.14-1.52,3.52.92,2,1.92,2.89,1.92,5.23,0,1.93.1,4.38-1.11,6.08s-3.73,2-4.84,3.95c-1.21,2.25-.1,2.67-2.72,3.2a28.72,28.72,0,0,1-5.36.75c-2.41.11-3.93,1.6-4.43,4-.1.65.2,1.93-.2,2.46-.51,1-1.12.21-1.82.64-1.42.75-1.81,2.88-1.11,4.37,1,1.93,3.13,1.93,4.14,4,.81,1.93,2.22,3.2,3.42.43,1-2.24-.7-5.87,2.33-6.93.81-.32,1.72.1,2.52-.32,1.22-.75,1-1.93,1.71-3,1.72-2.77,2.93.12,4.85.53a2.88,2.88,0,0,0,2.42-.73,33,33,0,0,1,5.36-3,3.76,3.76,0,0,0,2.92-3.84,32,32,0,0,0-.91-6.93c-.31-1.07-.71-2.13-.91-3.2-.3-1.72.1-3.42-.2-5.13-.41-2.34-4.14-5.87-6.46-6.29"/><path class="cls-12" d="M895,183.18c-1.81-.86-5.75-3.74-5.35.32.2,1.92,1.62,3.41.1,5-.81.74-1.91.31-1.81,2,.1,1.49,1.61,2,2.62,2.78.91.53,1.72,1.38,2.93.85.71-.43.91-1.6,1.61-1.92,1.82-.75,3.13,1.92,5,.85.61-.43.81-1.5,1.41-2s1.51-.32,2-.85c1.31-1.07.8-2.88-.21-4.05-1.6-2.14-2.92-1.07-4.94-1.6-1.11-.32-1.82-1.29-3-1.39"/><path class="cls-12" d="M877.67,152.34c-.81-.75-5.55-5.77-6.35-3.32-.31,1.18,1.91,2.67,2.62,3.32a12.5,12.5,0,0,1,2.12,3,19.42,19.42,0,0,1,2.42,7.68c.3,2.77,2.53,4.16,3.63,6.5.91,2.14,1.41,5.34,3.44,6.73s3.23.42,3.33-1.81c.09-2.67-1.82-3.2-2.73-5.23-.7-1.82.2-3.95-.6-5.66s-3.24-2.13-4.24-3.73c-.91-1.39-.4-3.1-1-4.59a9.29,9.29,0,0,0-2.63-3"/><path class="cls-12" d="M433.25,103c-1.72-.43-3.44.85-5.15.75a52.16,52.16,0,0,0-6,.75c-2.72.21-5.65-4.49-8.06-.32-1.32,2.34.9,1.6,2.11,2.45,1.62,1.17.1,2.34.4,4,.61,2.89,4,1.92,6,1.92s3,2.25,4.85,1.07c1-.64,1.5-1.92,2.61-2.56a17.35,17.35,0,0,1,3.84-1.06c1.41-.33,4.34-1.61,5.25-3,1.81-2.87-3.54-5.75-5.85-4.15"/><path class="cls-12" d="M627.7,410c-4.23,0-5.45,10.24-9.68,12.37-2.43,1.07-4.24.43-6.46,2.13-2.83,1.93-3.23,4.06-3.23,7.47,0,3.85.81,7.27-1,10.47-1.82,3.41-3.84,5.34-2.83,9.6,1.41,6.41,4.84,14.09,11.5,8.32,2-1.7,2.42-2.77,3-5.33.81-3.42,2.21-5.12,4-8.32,2.63-4.7,1.42-10.67,3.24-15.8,1-2.56,1.4-6.19,2.82-8.32,1.21-2.14,2.83-.85,2.62-4.49-.2-2.35-1-8.1-3.43-8.32"/><path class="cls-12" d="M930.65,369.83c-5.65-3.41-8.88-5.76-14.13,0-7.86,9.17-3.63-3-7.26-6.83-3-3.2-12.11.21-8.07,4.48,1.41,1.7,7.86.22,6.46,2.77-1,1.72-5,.22-3.84,4.7.81,2.77,3.84,1.28,6.66,1.92a25,25,0,0,1,8.88,4.48c2,1.5,5.45,3.84,4,7.26-.61,1.49-6.26,3.63-2.62,5.76,2.62,1.5,5.24-3,8.48,0,1,.85.8,2.14,2.41,2.77a16.39,16.39,0,0,0,4.64,0c3-1.06,3.44-6,7.27-6.4,3.64-.21,4.64,3,6,5.55s2.83,5.33,5.86,5.33c.8.22,1.61-.85,2.82-.85,1,.22,2.23,1.92,3.24,1.5,3.83-1.5-8.08-9.81-8.89-12.17"/><line class="cls-12" x1="952.25" y1="388.82" x2="952.25" y2="388.61"/><path class="cls-12" d="M952.86,387.33c1.41-.86,1.41-2.14.6-3.41-1-2.13-2-1.07-3.63-1.93-3-1.49-3.23-4.06-5.05-6.61-3.83-4.7-8.88-3.41-13.93-5.34"/><path class="cls-12" d="M934.9,404.62c-4.45,2.34-5.26,12.38-6.46,16.86-.61,2.77-1.62,6.62-4.45,7.25-3.83.86-6.25-3.2-8.68-5.33-2.21-1.92-5.24-3.63-3.83-7.25.81-2.14,4.64-4.27,4.24-6.84-.6-3.2-5.86-1.07-8.07-1.7s-4-3.63-6.46-1.72c-.81.65.2,2.35-.61,3-.8.85-1.61,0-2.42.2-2.62.65-3.23,0-5,3.21s-2.43,10.46-7.07,6.61c-1.82-1.48-1-3-3.64-3.41-2.41-.42-4.23,1.5-5.65,3s-3,2.56-4.43,3.84c-1.42,1.71-1.62,4.06-2.63,5.77-5.25-4.92-5.25,4.69-8.27,8.1-2.63,2.79-3.84,3.2-7.48,3.42-4,.21-5.23,2.78-8.87,3.2-5.45.43-6.46-.64-8.48,4.7-1,2.77-3.43,4.91-4.44,7.68-.4,1.71.2,3.21,0,4.91-.4,1.71-1,2.13-1.82,3.63-2.21,3.84-.4,4.91.41,9.18.4,2.77-.2,5.76.2,8.53.2,1.93,2,4.7,1.62,6.83-.81,3.2-5.65,2.78-6.06,7.05-.6,8.75,13.32.21,16.55.42,3,.22,5.66,1.72,8.68.65,3.63-1.07,5.45-3.85,9.49-4.7,8.47-1.92,14.72-10.89,24-5.12a43,43,0,0,1,4.84,3.84c1.82,1.71.81,2.34,1.22,4.48,1.61,6.83,4.44-1.07,7.87,1.07,1,.85,1.62,7.68,2,9.18.61,3.84-1.82,6.61,2.42,7.89,1.82.43,4.44.22,6.25.43.61,0,1.62.64,2.23.43.8-.21,1.21-1.5,1.61-1.5,3-.64,5.45,1.71,8.67,0,1.42-.64,2.23-1.7,3.84-2.13,2-.43,3.23.43,5.25-.64,5.25-2.56,2.22-6.83,5.85-10.25,1.42-1.49,4.45-2.13,5.45-4.05.81-1.92-.4-3,1.21-4.91,2.83-3.63,5.45-3.2,7.07-7.69,2.62-7.47,8.48-11.52,8.07-20.49-.2-5.33-3.23-6-5-10.24-.61-1.28-.2-3-.81-4.06-1-2.13-2.22-2.13-3.23-4.69-.41-1.5-.41-3.42-1.21-4.91-1-1.71-3-2.77-4.24-4.27-2.82-3.2-1.82-7-2.22-11.31-.21-1.28,0-4.48-.8-5.76-1-1.71-3.44-1.5-4.45-3.21-1.41-2.35,1-8.75-1.41-9.38"/><path class="cls-12" d="M912.69,522.22c-2,0-3.23-2.13-5-.43-1,1.07-.41,4.06-.81,5.55-.81,2.78-4,8.12,1.62,5.55,1-.43,1.81-1.7,2.62-2.13,1-.43,2.42,0,3.23-.43,1.41-.85,2.62-3.41,3.43-5.12,1.81-4.7-1.22-2.77-4.44-2.77"/><path class="cls-12" d="M995.84,506c-2.82-.85,1.21-8.32-3.22-8.53-3.43-.22-1.42,9.38-2,11.3-1.22,4.06-6.66,3.21-7.68,6.62-.6,2.56,1.82,2.13,2.23,4.06.2,1.49-1.21,2.56-1.21,4,6.25,2.35,6.25-6.19,11.29-7.68,2-.64,6.66-1.5,6.07-5.12-.41-1.93-2.43-1.5-3.84-1.5,0-1.28,0-2.56-1-3.2"/><path class="cls-12" d="M977.68,522.65c-6.86-2.56-8.08,6.4-13.32,9.18-3.23,1.7-6.26.42-9.68,2.77-2.83,2.13-5.86,4.06-8.69,6-3.43,1.92-3.84,3.2.21,3.63,4.23.42,6,0,9.28-3,1.41-1.28,3-3.2,4.64-4.06,1.81-1.28,2.62-.85,4.44-1.28,3-.64,4.84-3,7.67-4.48,1.42-.86,11.5-7.9,5.85-8.75"/><path class="cls-12" d="M863.85,301.53c.6-4.7,3-7.47,1.21-11.54-1-2.13-.61-3-2.83-3.4a3.25,3.25,0,0,0-4,2.56c-.41,1.71,1,3.41.2,5.33-.81,2.35-2.82,3-1.62,5.77a22,22,0,0,0,5.05,4.7c2,.63,4.24-.44,2.22-2.78"/><path class="cls-12" d="M877.17,354.25c-3.23,2.56-7.47,0-10.9,1.06-2.22.85-7.87,6.62-2.83,5.77,2-.43,2.43-2.78,4.85-2.57,2.82.22,4,2.79,7.27,1.5a16.88,16.88,0,0,0,4-2.78c1-1.7.41-5.12-2-3.2"/><path class="cls-12" d="M864.05,371.32c3.23-.21,1.41,6.19,4.65,7.05,5,1.48,1.81-4.7,1.2-6.4a12.35,12.35,0,0,1-.4-3.85c.4-1.28,2.83-2.14,2.42-3.62-.4-1.29-2.83-1.07-3.63-1.07-1.61,0-2.22,1.07-4.24,0l-.41-.22c-2.61-.43-3,4.49-3.83,6.19s-2.22,1.71-1.82,3.85c.21.85,2,2.13,2.43,3.4.4,1.72,0,9,2.82,4.7,1.62-2.56.4-6.18.61-8.75"/><path class="cls-12" d="M881.6,322.65c-3.42-1.48-2,1.5-3.62,2.79s-3.63.2-5.45.63c-1.42.44-5.65,3-4,4.92s4.64-1.5,6.86,1.27c1.62,1.93.4,3.63,3,4.91,2.63,1.49,2.83.22,3.63-2.13a28.78,28.78,0,0,1,1-3.2c.2-1.5.61-1.28.4-3-.2-.86-1-2.56-1.41-3.63-.2-1.28,1.82-1.72-.2-2.57"/><path class="cls-12" d="M881.6,392.24c-2.41,0-3.83,4.9-.59,5.12,3,.21,5.24-5.76.8-5.12"/><path class="cls-12" d="M885.24,372c-2.83.63-3.43,2.55-.81,3.62,3.64,1.49,4.05-3.21,1.42-3.84"/><path class="cls-12" d="M875.35,397.36c-2.42-1.07-5,3.41-3.83,4.48,2.62,1.71,6.66-1.28,4.23-4"/><path class="cls-12" d="M872.53,316.47c-1.62-.22-6.26,6.18-2.22,6.4,3,0,6.25-4.9,2.22-6.62"/><path class="cls-12" d="M870.91,304.3c-3.43-2.13-3.63,3-.2,4.27,5,2.13,3.64-4.06.4-3.84"/><path class="cls-12" d="M853.15,393.31c-1.61-.44-3.23.21-3.23,2.13-.2,2.57,1.62,1.5,3,1.5,1.81.2,3,1.48,3.43-1.07.2-2.13-1.62-2.78-3.43-2.56"/><path class="cls-12" d="M967.59,377.3c-2.62.85-3.23,3.84-6.05,4.69-2,.65-6.47,1.28-2,3,1.41.41,6.25.63,7.47-.22,1.81-1.5,3.83-6.84.8-7.47"/><path class="cls-12" d="M390.36,52.87c-4,.43-7.68,1.28-11.71,1.28-5.24-.21-9.29-.64-13.93,1.07-3.42,1.07-6.66.43-10.08,1.07-4,.64-6.27,3.41-9.49,5.12-3.84,1.92-22.61-.64-21.2,6.4,1.82,9.61,20.59-1.49,23.82,5.13,1,2.35-1,7.25-.6,10,.4,2.35-1,1.49,1,2.77,1.41.85,3.64-.64,4.65,1.5.81,2.34-1,1.07-1.82,1.92-1.42,1.28-1,.42-2,2.56-.81,1.71.2,1.92-1.41,3.42-1,1.06-3,1.27-4,2.77-4.23,5.12-1.21,15.37,1.42,20.49,1.81,3.42,3.83,2.13,7.26,3.62,1.61.65,1.82,2.57,4.44,1.93,1.82-.43,2.83-2.35,3.84-4.06.6-1.49.81-2.77,2.21-3.84s2.83-.64,4.25-2.13c2.21-2.56,2-6.19,5.45-8.11,3.22-1.93,5.85-.22,9.27-.22,3-.21,5.26-3,7.88-4.26,2.42-1.29,4-3.64,6.46-4.92s5.25.43,8.07-.21c2.63-.42,5.65-1.92,8.48-2.77,2-.64,4-1.07,4.84-3.42-.81-.43-4-1.07-4.23-1.7-.81-1.72,1-2.57,2.21-2.57,2,0,4.45,5.12,6.05,1.92,1.82-3.41-4.84-5.12-2.61-7.47,1.41-1.28,5.85-.21,7.87-1.49,1.41-.86,2.62-2.78,3.63-4.27,1-1.71.81-3.63,1.61-4.91.61-1.07,2.63-1.28,3-2.35.8-1.7-.8-2.56-.2-4.05,1.81-4.06,16.35-3.63,16.75-7,.2-4.26-11.3-1.7-13.32-1.7-4.64-.22-7.27-3.42-11.91-3.85-7.46-.42-15.14.43-22.4.43a44.41,44.41,0,0,0-13.12,1.71"/><path class="cls-12" d="M340.71,52.66c-5.46.64-9.69,2.77-15.34,1.71-5.45-.86-10.5-2.35-15.95-.86-3,.86-8.28-.21-10.69,1.07-5.45,3,2.82,2.56,3.83,3.42,4.24,3.41-4.84,6.83-7.27,7-3.83.43-7.27-.21-9.48,3.2-.81,1.07.2,1.92-.81,2.78-1.21,1.06-3.83.21-5-.22-2.43-.85-4.45-3.2-6.46.22-2,3.62,1.2,4,3.63,4.48,3.83.64,5.65,2.13,9.49,1.49,2.21-.43,7.66,0,9.08-2.35,2.62-3.84-3-2.77-5.05-3.2.41-4.91,9.69-1.7,12.72-2.56s5.85-3.41,8.88-4.7c6.05-2.56,12.11-2.56,18.36-3.84,2.83-.64,5.45-2.13,8.48-2.77,2.62-.64,5.65,0,8.28-1.07,3.43-1.28,3.23-3.42-.4-4.27-2-.42-4.45.22-6.26.22"/><path class="cls-12" d="M298.93,83.82c-2.22,0-5.25.64-7.27,0-1.82-.43-2.42-1.92-3.83-2.77-2.83-1.71-4.65-.86-7.47.85-.81.64-2.62,2.56-3.84,2.35-2.21-.64,0-1.71-.2-3-.61-1.71.41-1.71-1.82-2.13-1.81-.43-3.22.85-4.44,1.92-1.81,1.28-5,4-5,6.61.2,4.7,6.26,2.35,9.09,1.92,4.43-.64,10.89-1.49,14.72,1.5,2.23,1.71,5.05,4.26,4.25,7.47-.41,1.49-3.24,6.61-4.45,7.26-3.22,1.49-8.06-1.93-11.1-.22-4.43,2.56,2.63,3.63,4.64,3.63,4.65.21,6.06.86,8.28,4.91,1,2.14.61,3,3.43,3.84.81.21,3.23.64,3.84,0,2.22-1.92-3.63-7.47,2-6.4,2.41.21,4.23,4.05,7.06,1.28,4.24-3.85-3.43-6-2.83-9.18.81-4.06,6.66-.64,7.88.64,1.81,1.71,1.81,3.2,4.84,1.07,1.61-1.07,3.63-4,3.23-6.4-.81-3.2-3.44-2.57-5.65-3.2-7.27-1.71,1.2-6-3.84-10.25-1.62-1.28-10.29-3.63-11.3-1.71"/><path class="cls-12" d="M290.05,56.71c-2,.43-3,1.71-4.64,2.35-1.42.64-3.84-.21-4.84.43-5.87,3.2,3.62,4.27,5.85,3.84,1.81-.21,9.88.43,10.69-1.28,1-1.92-5.25-6.83-6.86-5.34"/><path class="cls-12" d="M259.17,105.16c-2.22,0-2,1.29-3,2.35-.2.43-2.62,3.2-2.62,3.42-1.21,4.48,3.63,1.28,5.45,1.07,2.22-.22,7.06,2.77,6.46-2.14-.41-2.35-3.84-6.4-6.06-4.91"/><path class="cls-12" d="M240.2,71.23c-3.24-.86-4,1.28-6.66,2.13-3.84,1.07-3.24-1.92-5.46-3.41-3.83-2.56-17,3.41-10.29,5.76,3.23,1.07,7.47-.86,11.1-.21,2.63.64,4,1.49,6.86.85,1.21-.21,6.46-.64,7.27-1.5,2.22-2.34-1.42-3.62-3.23-3.62"/><path class="cls-12" d="M259.78,69.31c-3.44,0-3.44.21-6.06,1.92-2.22,1.28-4.85,1.92-1.21,3.41a14.07,14.07,0,0,0,6.66-.42c-.61.42,1.81-3.42,1.61-2.78.2-1.49.2-2.56-1.81-2.56"/><path class="cls-12" d="M250.89,77.84c-4.64-1.7-5.24,1.29-8.48,2.78-1.61.64-3-.64-3.63,1.71-.4,1.92,1.22,2.34,2.42,3.2,3.64,2.78,3.64.43,7.06-1.71,1.22-.64,2.63-.21,3.64-1.28,1.22-1.28,1.42-3.63-.4-4.27"/><path class="cls-12" d="M263.61,61.62c-1,0-5.25-.85-5.86-.21-1.61,1.28,1,4.27,2.23,4.69a5.75,5.75,0,0,0,5.24-.85c1.42-1.49,1.42-3.84-1-3.84"/><path class="cls-12" d="M265.22,77.42c-3.84,0-4.44,0-7.06,2.35-1.21.85-4.84,3-1.42,4.27.61.21,6.66-1.71,7.47-2.14,1.62-.85,3.63-3.84.61-4.48"/><path class="cls-12" d="M295.49,78.06c-3.63,1.07-1.21,4.7,1.62,3.41,2.83-1.06,2.22-4.27-1-3.63"/><path class="cls-12" d="M272.49,63.33c-4.45.21-1,5.12,2,3.2,2.83-1.7,1-4.26-1.61-3.41"/><path class="cls-12" d="M267.84,68.45c-1,1.5-.6,4.49,1.62,3,2.42-1.28.2-4-2-2.77"/><path class="cls-12" d="M263.61,72.72c-2.23,1.71.4,3.42,1.82,2.35a1.54,1.54,0,0,0-1.22-2.77"/><path class="cls-12" d="M240.6,64c-3.64-.43-6.66,2.35-2.22,3.63,3,.85,7.06-3,2.82-3.42"/><path class="cls-12" d="M248.26,68.88a2.73,2.73,0,0,0-1,2.14c2,.85,4.45-2.14,1.62-2.57"/><path class="cls-12" d="M214.56,67.6c-4.24-.21-8.47,3.42-2.62,3.2,1,0,3.43,0,4.24-.64,1.61-1.28,1-3.63-1.42-2.77"/><path class="cls-12" d="M231.52,80.41c-2.43-.86-3.24-.22-5.05.85-2.83,1.92-1.21,1.71-4.64,1.07-2-.43-4,0-6.26-.43-1.62-.43-2.82-1.71-4.44-2.13-2.63-.43-4,1.92-6.25,2.77-1.82.64-4.24-.21-6.06.64-2.42,1.07-2.63,2.14-.4,4.27,1.82,1.49,4.84.64,7.06,3-1.21.64-14.53-1.92-8.48,3,1.62,1.28,6.66,2.35,8.68,1.91,3.43-1.06,4.64-4.48,8.88-4,3,.43,5.05,2.78,8.07,2.78,1.62,0,8.08-1.07,8.69-1.71,3.22-3-1.22-3.63-1.42-5.55-.2-2.56,5.25-3.2,2.22-6.4"/><path class="cls-12" d="M238.38,90.86c-3.44.43-4.24,4.28-.2,4.28,3.63,0,5.24-5.13.81-4.28"/><path class="cls-12" d="M202.65,74.64c-4-.42-4.84-.21-7.87,1.92-3.22,2.14-7.06.86-10.09,3-4.24,2.78-1,5.55,3,4.91,2.62-.42,5.25-2.35,7.87-2.77a98.21,98.21,0,0,0,11.3-2.56c2.22-.64,6.26-.86,2.63-3.42-2.22-1.28-4.64.21-6.67-1.07"/><path class="cls-12" d="M222.43,278.91c-5.24-4.49-11.1-9.4-18-10.47a22.8,22.8,0,0,0-9.29.43c-3.22,1.07-4.64,3.64-.2,3.84,3.84.21,5.05-.42,8.89,1.28,4.43,1.72,5.65,1.72,8.07,5.55,2,3,2.82,1.71,6.05,1.92,1.22,0,6.87,2.35,5.25-1.48,0-.44-.61-.87-.81-1.07"/><path class="cls-12" d="M232.73,282.11c-1.41-.22-3.84-1.07-5,0-.8.85-.2,2.13-.8,3-.81.85-2,.64-2.63,1.29-3.63,3.83,5.65,2.77,8.28,2.77,2,0,10.29-.86,8.87-4.69-1-2.78-7.06-1.28-8.87-2.35"/><path class="cls-12" d="M862.63,307.72c-3.42-.85-2.82,2.77-.2,3.41,3.44.85,3.44-3.41.41-3.41"/><path class="cls-12" d="M877,311.35c-2.62.22-1.82,3.2.2,3.2,2-.22,2.22-3.85-.2-3.63"/><path class="cls-12" d="M889.07,354.88c-3.42.22-1.4,4.28.61,4.07,2.83-.44,1.21-3.64-.4-4.27"/><path class="cls-12" d="M862.23,394.37c-3.43.85-.8,5.34,1.62,3.64,2.22-1.29,1.21-4.49-1.42-3.85"/><path class="cls-12" d="M992.62,431.51c-4-1.06-3.84,4.49-.61,5.12,3,.64,5.25-5.55.81-5.12"/><path class="cls-12" d="M308.21,158.53c-2.22.85-2.82,3.2-4.24,4.9-1.82,2.14-4.64,3.42-6.86,5.13-7.67,6.4,7.67,2.77,10.3,3.84,2.21.64,3,3.41,5.45,3,3.83-.85,1.41-2.55,1-4.27-.41-1.48-.81-.85-.61-2.55,0-1.07,1.81-1.5,1.41-3-.6-3.42-3.43-1.07-5.05-.22-1.61-1.92,3.44-6-.6-6.82"/><path class="cls-12" d="M221,169.83c1.41,1.5-.4,3.21.6,4.92,1,2.13,3.64,2.13,5.46,2.35,2.42.21,4-.44,4.64,2.34.81,3.84-1.82,3-3.64,3.84-1.2.64-7.86,6.62-4.64,8.11,0,0,12.31-3.62,6.46,1.07h.2c-1.61,3-8.07,4.69-11.1,4.06-2-.43-3.63-1.5-3.23-3.85.41-2.13,2.83-2.13,3.64-4,1.61-2.77.81-8.75-3-7.9-2.82.65-6.66,6-8.08,8.33-1.2,1.7-4,7.89-5.85,3.2-1.21-2.78,2.83-6,3.84-8.12,1.81-3.41,1.61-4.48,5.25-5.76,3-1.06,6.05-3,1.21-4.26-3.44-1.07-6.66,1.06-10.1,1.49-5.65.64-3.63-2.14-.2-4,3-1.5,6.05-1.29,9.09-3,3.22-1.71,6.66-3.21,9.08,1.07"/><path class="cls-13" d="M312.86,456.7c4.64-6.2,14.13-1.5,18.36-7.69,1.82-2.77,2.63-6.61,3.83-9.61,1.42-3.2,3.64-6.82,3.84-10.45,0-5.12-3.84-12.8-1.21-17.51.81-1.48,2.22-2.13,3.43-3.2,2-2.13,1.61-3.41,2.62-6,1.42-3.85,5.45-4.91,6.06-9.18a31.69,31.69,0,0,0-.21-8.75,10.52,10.52,0,0,0-1.41-4.27c-1.61-2.14-1.61-1.07-3.83-1.28-3.44-.42-4.44-2.34-7.27-4.48a18.81,18.81,0,0,0-9.88-3.63l-3.64-.64a20.92,20.92,0,0,0-3.63,0c-3.23-.42-2.22-1.28-4-3.2a14.49,14.49,0,0,0-6.06-3.41c-2.82-.43-3,1.07-5.24,1.27-.2-1.27-.2-2.77-1-3.84l-.2-.64c-2-2.34-3.43-1.06-4.24-4.69-.2-1.07.2-2.35,0-3.2-.61-1.28-2-1.28-2.42-2.57-.81-2.13.4-4.48-.81-6.82-1-1.93-3.83-4.07-5.65-5.13-6.46-4.05-13.73.85-18.16-6-2-3-2.83-4.06-5.65-5.77-2-1.28-3.84-3.63-5.66-5.33C258,318,258,316.9,254.13,318a13.83,13.83,0,0,1-9.29,0,29.62,29.62,0,0,1-4.64-1.29c-1.42-.65-3-2.35-4.65-2.78-2.82-.42-4.23,3.2-7.06,2.13.2-.85,2.42-3,1.41-4-.61-.85-3.22.85-3.83,1.07-2.83,1.5-7.07,1.92-9.29,3.63-2.83,2.14-1.82,8.11-4.84,9-2.83.87-2.22-1.7-3.44-2.77-1.4-1.07-2.61-1.07-4.63-.63v.41c-2.63-1.28-4.64,2.14-7.47,1.5-2.22-.65-2-1.5-3.63-3.2-.81-1.06-2.43-1.91-3.24-3.2-1.41-2.57-.4-6,.61-8.53,1.42-3.85,2.22-5.34.81-9.41-.81-1.91,0-2.13-2.43-3.2a8.21,8.21,0,0,0-5-.21c-1.82.21-6.86,3-8.28.21s3.84-10.67,4.65-13.43c.6-1.72,3.43-6,2.42-7.69-1-1.92-7.07-.85-8.48,0-3.23,1.7-2.22,4.69-3.63,7.47-1.21,2.35-4.64,4.05-6.86,4.7-2.23.85-6.66-.22-8.89-1.28C151,284.24,152,281,151,277.63c-1-3.86-3.23-6.19-2.23-10.46.81-3.21,3.24-5.55,3.84-9,.61-3.63.41-5.77,3.23-8.33a44.39,44.39,0,0,1,7.47-5.34c4-2.77,6-1.06,10.49-.63,2,.22,4.85.63,6.66-.85,1.21-1.07.6-2.14,2.22-3,1.42-.86,8.08-1.07,9.9-.21,1.61.63,2.21,2.13,3.62,2.55s1.82-.85,3.44.65c3.63,3.2-1.41,16,5.45,16.44,6.46.41,3.83-12.82,3-16-2.42-9.39,3-13.66,10.9-16.86,3.43-1.5,7.07-3.2,9.28-6.4,2.63-3.84,2-6,2.83-10,1-4.48,3-.85,5.85-3.2s4.85-6.18,7.07-9l.2-.42c2.22-2.57,4.24-.65,7.07-1.29,3.42-1.06,2.22-4.05,3.63-7,1.81-3.63,4.44-3.41,7.67-4.48,2.83-1.07,5-3,8.07-3.85,1.21-.63,7.47-2.13,4.24,1.5-.8,1.07-8.47,1.92-3.43,4.48,3,1.28,5.65-3.2,8.28-3.84,1.81-.64,7.06-.64,5.65-4.27-1-2.56-5.65-.43-7.07-3-2-3.63,3.43-4.7,4.24-6.83,2.83-6.62-15.54,1.71-16.55.85-2.42-2.13,3.63-6,5.25-6.61,2.83-.86,5.85.21,8.88-.64,3.23-.85,5.45-1.49,9.08-1.28,4.64.64,5.85,1.49,10.3-1.49,3.83-2.57,12.51-1.92,12.31-9.19,0-2.76-3-5.76-5.05-7.47-3.23-2.55-4-2.34-4-7,0-3,.81-6.82-1.21-8.75-3.63-3-6.66,1.07-10.09,1.49a7,7,0,0,1-3.63-.2c-2.63-2.14.19-1.72.4-4.06,0-1.71-2.82-6.62-4-7.47-1-.85-11.9-1.92-13.92-.64-3.63,2.13-.81,7-3.43,9.39-1.82,1.92-7.27-.64-5.25,5.33.8,2.78,3.84,4.7,1,7.9-4.85,5.34-11.91.22-13.53,9-.4,2.55-.6,6.82-3,8.32-2,1.28-5.85-.21-6.86-2.35-2.23-5.12,3.63-5.12,4.23-8.32.81-4.27-4.84-2.35-7.06-2.78-2.42-.63-6.06-3.2-7.87-4.9-1.41-1.29-1.21-3.2-3.43-3.42-1.62,0-3.23,2.35-5.45,1.49,0-3.41,3-5.76-1.62-6.82a7,7,0,0,1,.81-1.71l-.6.42c1-2.13.2-4,2-5.55,1.2-1.07,2.62-.21,4-.85,3-1.5,4.24-4.27,8.08-4.91,3.62-.64,5.85-2.13,9.27-4.27,3-1.92,6.07-2.34,9.29-4.06,2.43-1.49,4.44-4.9,6.86-5.76,2.83-1.06,6.26,1.28,9.29.43,2.22-.64,7.66-5.12,8.88-7,2.83-4.7-2.62-3-5.25-2.56-3.43.64-4,1.49-6.86,3.41-4.64,3.42-3-.43-4.84-3-1.22-1.71-2.83-.85-3.44-3-.2-1.28,1.21-2.55.81-3.84-1-4-4.24-1.06-5.85.64-.41.21-.2,1.5-.61,1.92-1,.86-2,0-3,.43-1.82,1.07-1.42,1.71-2.22,3.63-1.82,4.48-3,3-7.07,3.84-2,.43-2.22,1.07-4.64,1.07-2.42-.21-5.05-1.28-7.47-.86-1.82.43-2.42,1.92-4.65,1.29-1.2-.43-2.21-1.71-3.62-2.35-6.87-2.78-14.34,6.61-21.8,2.35-2.62-1.71-2.62-4.27-6.06-5.34a22.47,22.47,0,0,0-5.45-1.28c-2.61-.43-6.25.43-8.68-.43s-2.62-2.77-5.85-3a23.7,23.7,0,0,0-8.67.64c-3.84,1.5-5.46,2.78-9.49,3.21-3.84.42-5.05,1.7-8.68.42-1-.42-3.83-.85-4.84-1.49-1.22-1.07,0-2.14-2-3-2.22-.86-6.67,0-8.88,0-3.64,0-7.47.21-10.9-.86-2.82-1.06-4.85-2.13-8.07-1.91l.19.21c-3.42.42-6.25,1.49-9.68,1.7-3.44,0-6.26,0-9.49,1.29S82,91.72,78.53,92.79c-1.82.64-9.89,1.06-10.5,2.35-1.41,2.55,4,3.84,4,5.76,0,1.7-5.45,4-6.86,3.63-1-.22-2-1.93-3.84-2.35a6.35,6.35,0,0,0-4.44,1.06c-1.41.64-4.64,2.78-5,4.49,3,1.27,6,.63,9.28.85,6.86.64-.61,3-3.23,4C52.09,115,38.16,115.2,36.75,124c-1.21,6,3.83.42,5.45,1.7,1.82,1.5-5.45,4.06,0,5.55,1.41.22,8.48-3,5.45,1.07-1.21,1.92-6.46,2.35-8.48,3.42-1,.42-7.06,3.2-7.06,4.69,0,3.63,8.47-1.06,9.89-1.49,4.44-1.07,6.66-1.71,10.29-4.7,3.43-3,7.88-3.62,11.3-6.19,3-2.13,5.25-4.48,8.68-5.55,3.43-1.28,4,0,1.42,2.35-1.62,1.28-6.46,3.2-2.83,4.49,2.83.84,6.46-3.21,8.48-4.49,3-1.92,5-3.63,8.67-2.35,3.24,1.07,6.46,1.92,9.69,3,6.46,2.35,10.1,9.82,9.29,17.08-.4,3-2.63,6-2.42,9,.4,3,3.42,5.13,4.84,7.68.81,1.28,3.43,8.33,1.61,9.4-2.22,1.07-2.82-6-4-6.83-2.83-1.71-4.44,1.28-3.23,3.62,1.41,3.21,3.64,2.56,2,6.83a67.14,67.14,0,0,1-4.65,8.54c-2,3.63-5.25,4.7-7.67,7.68-2.62,3-.4,6.62-2,9.82-1,2.35-4.64,2.78-5,5.77-.2,1.92,1.61,5.55,2.22,7.68a34.74,34.74,0,0,1,.6,6.4l-.2-.84c.2,1.91-.6,6.18.61,7.46.81.85,2.63.64,3.43,1.07,1.81,1.28,1.61,1.92,2.42,3.62,1,3,2.63,5.55,2.22,8.75-.2,1.07-1,2.78-.8,3.85.4,2.14,1.61,1.49,2.22,3,1.62,3.63-1.42,5.55-1.21,8.31.4,2.79,3.22,2.36,4.64,3.64,1.61,1.28,1.41,2.13,2,4.27.4,1.91,2,7.05,4.84,7.25,3.84,0,0-5.12-.61-6.82-1-2.35-.81-4.7-1.4-7.05-.81-2.56-2.83-4.49-3.44-7-.2-1.28.2-2.56,0-3.63-.61-1.7-1.82-2.14-2.43-3.63-.79-1.71-1-4.27,1.42-4.69l.4-.22c4.24-.64,4.64,3,4.64,6.19,0,3.42.41,4.7,2.23,7.9,1.81,2.77,2,5.77,3.23,8.54,1.61,3.41,4.64,5.55,6.46,9,1.2,2.35,3.83,5.76,4,8.54.2,3.2-2.62,4.69-1.41,7.9,1.21,3.62,7.26,5.34,10.09,8.1,3.23,3.21,6.66,3.42,10.7,4.91,4.23,1.28,5.65,1.5,9.49.43,3.62-.85,7.66-.22,9.68,3,.6,1.29-.2,2.14,1,3.42a11,11,0,0,0,3.84,1.92c3,1.72,5.85,1.93,8.87,3,3.24,1.07,1.82,3.2,4.24,4.9,1,.65,2.63-.42,3.64.65,1.82,2.13-.61,1.7-1,3.2-1,4.47,2,4.9,4.84,7,2.42,1.7,4.24,5.33,7.47,6.18,3.84.87,6.86-6.62,9.28-4.68l-.4-.44c2,1.71,3,5.77,3.83,8.12a15.56,15.56,0,0,1,.81,7.47c-.2,4.27-.61,7-3.63,9.82a10.64,10.64,0,0,0-3,3c-.2.42.4,1.49,0,1.92-.61.85-1.61.64-2,1.29-3.24,3.41-5.66,8.75-3,13.65a11.86,11.86,0,0,0,2,2.35c.4,2.57-.41,1.5-1.82,2.78-2,1.92-2,.21-2.23,3.41a17,17,0,0,0,.41,4.48c.6,4.27,3.23,3,5.24,6.4,2.63,4.07,2.83,8.12,6.27,11.75,5.65,6,6.05,17.07,13.31,22,3.64,2.35,7.07,1.71,10.3,5.33,1.82,1.93,5.45,4.06,6.25,6.41.61,2.13.21,5.76.41,7.9,0,2.77.2,5.55.2,8.32v2.78l-.4.21c-.21,5.55,1.82,10.46,2.42,15.79.61,5.77-.6,12,.2,17.93a74.12,74.12,0,0,1,.81,11.74c0,3.63-1.82,6.62-1.41,9.82.2,3.2,2.41,6,2.82,9.18.2,1.91.2,4.69,1.21,6.4,1,1.92,1.21,1.06,2.63,2.13,5.65,4.49,4.84,15.59,7.87,22,1.21,3,1.41,5.33,2.22,8.11,1,3.41,4.44,6.83,6.45,10s3.84,4.91,7.47,3.42c1.42-.43,1.62-2.57,3.84-1.29,1.41.86,1.61,3.2,2.62,4.49,1.62,2.56,3.44,3,6.26,2.77,1.21,0,2.62.64,3.23-.64,1-2.56-1.62-1.92-2.83-2.56-2.62-1.28-4.84-2.56-6.46-5.34-.81-1.49-1-3-2-4.27-1.4-2.13-2.21-1.92-2.21-4.9.2-6.83,8.07-9.4.6-13.88-2.62-1.71-4.64-3-2.22-6.19.81-1.28,2.43-1.28,3-2.77.41-1.07-.4-2.78,0-4.06,1-3.63,3.63-3.2-.2-5.76-2.83-1.71-4.85-4.27,0-3.84,3,.21,3.83,1.49,4-3,0-3.42-2.22-6.4,2.63-6.62,3.23-.21,6.26,1.71,8.88-2.13,1.61-2.14,1-6,0-8.33-1.41-3.2-5.45-6,.2-5.33,2.42.22,3.84,1.28,6.66,0,3.23-1.07,2-1.07,2.83-3.63.4-1.07.6-1.92,1-3,.4-.85,1.4-1.7,1.81-3.41.81-3.84,1.41-6.19,4-9.18,4-4.06,5.85-6.4,5-12.6-.6-5.54-.6-5.75,3.24-9.38"/><path class="cls-13" d="M578.87,217.37c-.81,4.55.79,7.4-.81,11.95-1.08,3.7-.55,6.83-3.77,8-4,1.42-6.2-2-9.42-2.56-4-.58-5.38,3.69-9.69,2.56a64,64,0,0,1-10.49-3.42c-3.77-1.42-6.19-5.12-10.23-4.84-5.92.57-3.5,4.27-5.12,8-2.41,6.55-5.65,0-9.14-1.41-1.35-.57-3,.28-4-.29-1.89-.86-1.61-2.28-3-3.41-3.23-2.29-7-1.15-10.23-3.14h0c-1.34-1.13-4.3-2.27-4.56-4.26-.55-2.29,1.34-2.57,2.15-4.55,1.61-5.13-.27-8-4.85-8-7.27,0-14.53,2.27-21.79,2.84-4.32.29-7.81.57-11.85,2.84-3.23,1.72-5.65,4-9.69,3.14-5.65-1.14-4.57-2-8.34,2.85-3.22,4.27-8.34,6-10,11.38-1.08,3.41-.54,7.39-3.24,10.24-2.42,2.57-5.65,5.12-8.07,7.68-1.35,1.14-3.5,2.29-4.3,4-1.08,1.7-.27,3.42-.81,4.83-1.61,4-5.92,4.84-7,9.11-.81,4,1.08,8.55,1.62,12.23.53,4.85-.81,7.41-1.88,12a26.78,26.78,0,0,0,4.3,22.2c3,4,7,6.84,9.42,10.82a39.46,39.46,0,0,0,7.53,10.24c4.84,4.83,8.61,4.27,13.73,2.57,4.3-1.72,8.61.56,13.72-.29,8.08-1.43,15.88-10.54,22.87-1.43,1.08,1.15,1.89,3.42,3.24,4,2.15.57,3-1.42,4.57-1.7,4.57,0,7.26,3.42,7.26,8V350l-.26-.85c.54,8.53-6.2,13.93-.55,21.34,2.43,3.41,6.2,5.4,8.08,9.1,1.89,3.42,1.34,7.4,2.7,11.1,1.34,4,1.07,7.4,1.88,11.67,1.08,5.69,1.34,5.4-1.62,10.25a23.67,23.67,0,0,0,.27,27c2.43,3.42,5.38,8.25,5.12,12.81,0,5.41-1.62,6,1.61,11.66,2.16,3.7,3,7.69,4.57,11.67,1.62,3.7,4.31,6.55,4.84,10.82.54,4-1.34,8.25,2.16,11.38,3.23,2.56,7,0,10.76-.57,5.39-.85,12.38-1.42,17-4.84,3-2.55,4.58-6.54,7.27-9.67,3-3.13,6.18-5.41,7.8-9.68,1.07-2.84.81-6.54,1.88-9.39,1.62-4,5.38-4,8.35-6.83,2.15-2.56,2.42-5.41,1.88-9.11s-2.43-6.83-.81-10.52c1.35-3.42,5.66-6.27,8.61-8.26,4-2.84,9.15-5.41,11-10.24,1.61-3.71-.28-7.41-.81-11.39-.28-4,.27-7.4-.81-11.1-1.61-4.27-1.61-5.12-1.35-9.39.28-8-2.68-16.22,5.93-20.77l-.28-.28c3.77-2.85,5.93-6.56,9.15-9.39s7.28-5.13,10-8.54c5.37-6.55,8.61-16.52,11.57-24.77.81-2.83,3.49-10-1.62-10.8-2.42-.29-6.73,4.55-9.68,4.83-2.7.29-7.27.57-10,0-5.92-1.13-4-4-5.37-8.53-1.62-6-9.42-6.55-12.38-11.39-1.62-2.28-.28-6-1.89-8.82-2.16-3.13-4.31-3.13-5.38-7.12-.54-2.85,0-6-.81-8.82-.81-4-3.5-5.11-5.92-8-2.16-3.13-3-6.26-4.31-10-1.07-3.12-3.76-6-4.3-9.39,1.89-.57,7.8,3.13,9.42,4.55,2.69,2.85,4.85,8.82,6.73,12.52,1.61,3.14,4.3,7.12,5.11,10.54.81,4.27-1.08,6,3,8.82,1.61,1.13,3.23,1.13,4.84,2.85,1.08,1.13,1.88,3.13,2.69,4.55,2.16,3.42,4.31,6.83,5.12,11.1.27,3.12-1.08,7.1,2.42,8.25,3,.85,8.88-2.85,11.57-3.41,5.12-1.14,10.49-.29,13.72-4.84,2.7-3.42,3.77-5.7,7.27-8.53A83.78,83.78,0,0,0,652.6,284c2.16-2,7.26-8,7.26-11.39,0-5.11-7.8-6.26-10.76-8.81-3-2.85-2.42-7.69-6.72-4-2.7,2.55-2.43,6.82-7.27,5.69a14.19,14.19,0,0,1-4.85-4.27c-1.34-2.28.53-3.42-.26-5.69-1.08-2-5.12-2.28-6.73-4-1.88-1.72-2.69-4.85-3.5-7.12l-.54-.85c1.07-5.42,5.38-3.42,7.53-.86,3.24,4,3.24,6.55,7.8,8.54,3.24,1.42,7,3.41,10.51,3.12,1.88-.28,2.68-3.12,5.37-1.42,1.89,1.42.81,3.42,1.89,4.84,2.43,2.28,7.27,1.14,10.23,1.43,2.69.29,5.65,1.71,8.07,1.71,4.57,0,8.88-4,13.46-.86,2.41,2,2.69,6,4.84,8.82.81.85,1.62.85,2.41,1.7.28.87-.26,2.29,0,2.85,1.36,2.29,1.89,3.42,4.32,3.71,4.84.85,1.34-2.29,4.57-3.71,3.5-1.7,3.23,2.29,3.23,4.84s-1.34,5.42-1.08,8c.27,3.41,2.69,4.55,4,7.68,1.61,2.85.27,6,1.61,9.1,1.08,3.14,3.77,4.86,4.85,8.26a139.4,139.4,0,0,0,6.46,14.8l-.27-.85c2.42,4,5.38-1.71,7-3.7,3.23-4,1.62-4,1.89-9.38.26-4,1.07-8.26,1.34-12.24.28-4.85,3.23-6,6.46-9.12,2.69-2.83,6.73-5.12,8.89-8.54,2.69-4,2.15-5.4,6.18-8.25,2.43-1.7,7-4.83,10.23-3.13,2.43,1.15,1.07,2,2.15,3.7a20.83,20.83,0,0,0,4,4.55c3.23,3.13,4.57,6,5.66,10.54.52,2.85-.28,8.25,3.48,8.25,3.51,0,3.24-6.84,6.2-5.69,1.61.85,3,8.54,3.77,10.52a39.7,39.7,0,0,1,4,19.36c0,3.42-.81,6,.54,9.1,1.61,3.13,4.85,6,6.73,9.4,1.61,3.12,2.69,7.4,5.11,10,3,3.41,6.72,5.41,6.46.28a78.46,78.46,0,0,0-1.88-11.39c-1.35-4-5.66-4.83-8.35-8-6.46-6.53-7-10.8-5.92-19.62.81-5.42,2.15-5.13,6.19-2.85,4.57,2.57,5.38,3.7,7.53,7.69.55,1.13,2.16,2.55,2.69,3.41.28.86.81,4.84,1.36,5.12,3.22,2.57,5.11-2.56,6.72-4.26,2.7-3.42,6.73-4.56,7.54-9.11.53-3.42-.28-10-1.88-12.53-3.5-6-16.43-13.94-10.5-22.19,2.42-3.42,6.73-3.42,9.69-1.14,1.07.57.26,4.55,3.76,3.12.81-.28.81-3.4,2.15-4.27,1.08-.85,3-.28,4-.85,2.16-.85,3-3.13,5.38-3.41h-.54c13.19-2.27,15.88-18.49,16.69-29.88-5.11-.28-1.08-2.85-1.34-5.4-.28-2-4.85-6.55-6.2-8.25s-5.65-5.42-6.18-7.4c-.54-3.42,4-5.7,5.92-7.69-2.7-2.85-6.73.57-10-.56-1.34-.58-6.72-4.85-6.72-6.27,0-2,7-7.69,8.88-7.4,4.31.85-.54,6.55,3.23,8,4.58,1.72,5.38-7.68,10.23-.85,1.34,1.71.26,2.29,2.42,4.27,1.61,1.43,3,1.14,4.3,3.42,1.89,3.13.81,6,1.89,8.82.81,2.57.26,2.57,3.22,2.57a31.57,31.57,0,0,0,4.85-1.72c8.88-7.1-8.34-12.81-9.69-18.49-.53-3.7,3-4.84,3.24-8.54.26-3.41-2.16-8.53,4.3-6.55,1.88.57,1.35,3.14,4,2.85,3-.28,2.43-1.42,2.43-4,.26-1.72-1.08-3.7-.81-5.7.27-2.27,1.35-3.69,1.88-5.69.81-3.13,1.08-6.55,1.62-10,1.07-4.55-.27-4.84-2.43-8.82-2.69-4.27-2.69-6.54-7.8-8.26-3.22-.85-6.19,0-9.15-.85-2.15-.56-2.15-1.13-3.77-2-.8-.57-3.22-1.71-3.77-2.28-2.15-1.42-1.61.57-2.15-2.56-.26-1.42.54-4.27,1.08-5.69,1.35-2.85,3.5-8,6.46-9.1,1.35-.57,4.31-.29,5.92,0s3.76,2,5.11,2c2.16,0,2.7-1.7,4.3-2.27,3-.57,3.51,1.42,5.66,2,1.61.57,3.76,1.43,5.65.57,3.5-1.14,1.62-.85,1.62-3.41,0-2-1.08-9.11,4-6.26,2.43,1.42,3.24,8.25,7.53,4,1.62-1.14.27-4,2.16-5.12,2.42-1.71,4,0,4.31,2.27.54,2.57-1.89,3.42-2.43,5.41-.53,2.56.81,4,.27,6.26s-3.23.85-2.95,4c0,1.71,2.68,3.7,3.49,4.83a80.07,80.07,0,0,0,8.61,10.54c1.35,1.41,7.54,8.25,9.42,7.4,2.69-1.15-.27-3.14-.27-4.27,0-.86-.26-1.43-.26-2.28.26-1.42,1.88-1.42,2.14-2.28.55-2-.53-3.13-.81-5.41,0-.57,1.89-.85,1.89-2.56-.27-1.14-1.89-2-2.15-2.84-.81-1.71-1.07-4.55-2.42-5.69-1.89-2.56-4-1.14-6.19-2.56-4.31-3.14-2.43-7.4,2.15-7.12,2.43.28,3.77,2,6.19,2,1.89-.28,4.3-2,5.92-2.56h-.26c3.22-2,2.41-5.69,6.72-6.55,3.23-.57,8.07.86,3.49-3.41-1.34-1.71-10.49-4.55-4.56-7.68,3.22-1.71,9.68,4,12.91,4.27,1.07.28,3.5.85,4.31,0,2.15-2.28-.55-2.57-1.08-4.27-2.42-5.41-3.5-4.27-8.61-5.41-7.53-2-15.61-2.28-22.88-5.12-8.34-2.85-22.33-8-31.22-5.41.55,1.14,1.35,2.84,1.89,3.7-3,1.42-6.19-2-9.15-2.84-4-.86-8.88,0-12.92.28-4.57,0-6.18-1.14-10.49-2.85-3.77-1.42-8.88-.57-12.92-.85-5.92,0-8.07-.29-12.91-3.42-5.65-3.41-10.77-3.13-17-3.13-3,0-7.8-.85-10,1.14-2.41,2,.28,3.42-3.49,4.27-1.62.29-4-.85-5.65-.85-3.5,0-3,1.42-5.65,2.27-3.77,1.14-5.93-2-8.35-4a29.41,29.41,0,0,0-18-6c-2.15.29-3.76,2-6.46,2.28-3.5.28-7-2-10.76-2.28-6.19-.28-13.18,3.7-19.11,1.71.81-3.42,6.19-1.71,6.19-6,0-3.42-4-4-6.46-3.71h.27c-3,0-5.65,1.14-8.07.85s-5.92-1.71-8.08-2.56c-2.68-.85-4.57-2.85-7.53-1.42-2.68,1.13-1.89,3.13-3.77,4.27-1.61.85-3.77.56-5.38.56A30.2,30.2,0,0,0,679,72a28.4,28.4,0,0,0-4.84.85c-3.23,1.14-1.89,1.14-3.77,2.85s0,1.7-3.23,2.56c-1.35.28-3.23-.57-4.58,0-5.91,2,.81,2.56,1.08,6-2.42.86-17.76-3.41-17,2.28.27.86,3.23,3.42,4,4,.53.28-.28,1.7.53,2.27,1.08.85,2.7.29,3.5.85,2.15,1.43,1.89.29,1.89,3.71,0,1.42.26,3.12-.55,4.26-2.41,2.85-8.34,1.43-8.34-2.27,0-2,1.62-2.85,1.35-5.12-.54-2-3.23-4.84-4-6.27-2.43-3.7-3.24-7.4-8.08-7.11-5.39.28-7,3.7-3.22,7.68,1.88,1.71,8.33,6.83,1.88,6.26-3.5-.28-5.93-4-9.7-4.26-4.84-.29-6.45,2.84-10.22,4.26-3,1.14-8.07,0-11.3,0s-18.3,6.55-19.11,5.41c-.53-1.42,2.69-2.28,2.16-3.7s-3.77-2-5.12-1.42c-5.65,2.28,2.16,4.83-2.15,8.25-1.08,1.14-3.5-.28-5.11.57-2.16,1.14-1.35,2.56-2.43,3.42-3,2.84-4.3,0-8.07,0-2.16,0-.8,2.27-4,.85-.26,0-3.49-3.42-3.49-4-.28-2.84,5.11-1.42,7.53-1.42s7.54,1.14,8.34-1.71c1.35-4-5.11-4.55-7.26-5.4-5.93-2-13.19-3.7-18.57-5.69-2.7-.86-4.3-2.85-7.8-2.28v-.28c-7.8-.29-13.45,2-21,3.41-6.73,1.42-10.78,11.67-15.88,16.79a29.61,29.61,0,0,1-9.16,6.26c-4.57,2-7.8,1.14-8.87,6.83-.55,2.85.26,8,2.41,10,3.24,3.13,5.93-.28,8.89-1.71,4.3-2.27,5.65-.85,7.26,3.7.54,1.43,2.16,9.68,2.69,10,2.16,1.7,8.89-3.13,9.42-5.13.81-1.42-.27-3.7.54-5.12.81-2,3-2.28,3.77-4,2.42-4.83-3.5-6.26-2.15-11.09,1.34-4.56,6.18-4,8.61-6.83,2.42-2.57,2.69-7.4,7-6,5.66,1.71-.54,5.69-2.69,8.25-4.84,5.7-.81,14.23,6.19,12.24,2.42-.85,6.19-3.13,8.88-2.27,4.58,1.42,2.43,4.83-1.34,5.4-2.16.28-6.19-2-7.81.28-1.88,3.14,2.16,2.28,1.88,4-.8,2.85-2.41,2-4.3,2.56-2.15.57-2.69-1.14-4.31,2-.53,1.14.28,3.42,0,4.55,0-.28-3.77,4-3.22,3.7-3.51,2-1.35-.85-4.31-1.13-3.77-.29-6.19,4.26-9.95,4.26-2.7,0-2.43-2.27-4.32-2.84-2.41-.57-3.76,1.43-5.91,1.14-6.73-.28-3.23-4-3-7.68.53-5.7-5.11-4-5.92.28-.54,2.84,3.49,6.55.81,9.1-1.62,2-7.27,1.14-10,3.42-2.43,2-4.58,5.12-7.27,6.83-1.34,1.14-3,1.71-4,2.84s-1.61,4-3.22,4.56c-1.88.28-7.54-6-6.46.86-2.69.57-7.27-.86-8.08,2.55-1.34,4.56,3,2.85,5.12,3.7,4.3,1.72,8.88,12.52,2.15,14.81-5.11,1.7-13.45-2.86-18.84,0-3.22,1.7-1.88,5.68-2.15,9.1-.54,3.7-2.15,4.83-3.77,7.68,5.11,2.28-1.07,7.12,5.39,8.25,3.76.57,7-1.13,8.61,3.71,3-3.42,4.3-.57,7.8-1.71,2.69-.86,1.62-1.71,3.77-3.7,1.34-1.43,4-2,4.84-3.41.54-1.43-.81-4.27,0-6,.54-1.7,2.15-2.83,3.5-3.69,4.3-2.56,4.57-1.43,6.73-6,1.61-3.42,1.08-3.7,5.38-3.42,1.61,0,3.76.86,5.38.29.81-.29.54-2,1.07-2,1.36-.57,2.17.29,3.24,0,3.49-.86,6.45-2,8.61,2.56.81,1.71-.27,4,1.08,5.7.8.56,4.3,1.41,5.1,1.7,1.62.85,5.66,1.71,6.73,2.85,1.62,2,.54,4.27,1.09,6.54,2.41,10,2.15-6.26,6.45-4.27,2.16-4.56-12.91-11.09-14.8-14.79-1.88-3.42-1.35-9.11,3.23-6.55,1.62.85,2.42,4.26,3.77,5.4,1.61,1.43,3.23,1.15,4.84,2.28,2.69,1.42,6.19,4.27,7.53,7.12a16.81,16.81,0,0,1,.81,3.7c.54,2.27.27,2.84,1.35,4.55.8,1.7,2.69,3.13,3.23,4.55.53,1.14,1.34,5.12,2.15,5.69,3.23,2.85,6.19-2.55,6.19-5.12,0-2.27-2.16-5.4-1.35-7.69,1.08-2.84,5.65-2,8.35-2.26,1.35,2,0,3.41.26,5.68.28,2.57,1.89,3.7,3,6,.8,1.42,1.34,3.13,3,4,.8.57,1.88,0,3,.28a18.76,18.76,0,0,1,2.42,1.71c2.16.28,2.42-.86,4.84-1.14,2.16-.28,3.5,1.42,5.65,1.42,3-.28,7.27-5.12,9.7-.57"/><path class="cls-14" d="M580.89,172.61c-1.22.85-1.62,1.92-3.14,2.45s-3.52.22-5,1c-2.12,1.07-1.11,2.24-1,4.16.1,1.49-.61,3.09-2.32,2.88-3.33-.54-3.53-6-6.66-6.83-5.05-1.28-7,5.34-8.69,9-.79,1.82-2.31,3.32-2.82,5.23-.5,2.14.91,3.1,2.13,4.7,1,1.39,2.21,4.16,4.23,3.2.71-.32,1-1.18,2-1.49,1.32-.32,2.62.43,3.93,0,1-.32,1.72-1.5,2.53-2.14a8.06,8.06,0,0,1,3.83-1.17c3.13-.33,6.36,1.27,9,2.77,2.42,1.29,4.43,2.67,7.16,2,1.92-.53,5.05-.86,6.46-2.34,2.82-3.2-1.62-6.84-3.94-8.33-2-1.28-4.24-2.24-6.36-3.31-1.1-.53-3.42-1.17-4-2.35-1.31-3,2.42-2.45,3.54-3.73,1.4-1.5,1.7-5.56-.81-5.66"/><path class="cls-14" d="M619.94,173.46a9.73,9.73,0,0,0-7.67,3c-1.31,1.39-3.74,3.32-3.94,5.45-.2,2.56,2.63,6.08,4,7.89,1.21,1.4,2.21,2.88,3.33,4.38.91,1.38,2.62,2.67,3.23,4.37a12.5,12.5,0,0,1,0,5.77c-.4,1.5-1.62,2.66-1.72,4.37-.1,3.09,2,3.21,4.24,3.84,2.42.75,3.94,3.1,6.46,3.85,5.45,1.6,8.57-4.16,6.46-9.29-1.21-2.77-4.75-3.2-5.86-5.76s1.42-2.25,2.93-1.92c2.43.42,3.33-.75,2.12-3.2s-3.53-3.32-5.86-3.95a13.3,13.3,0,0,1-7.46-4.91c-1.31-1.71-2.22-5.23.71-6,1.51-.33,2.82.95,4.44.1s1.51-3.1,1-4.81c-.71-2.23-3.74-3.41-5.95-3.3"/><path class="cls-13" d="M461.3,134c-.5,0-1.51-.21-1.61-.74-.31-1.18,1.21-1,1.51-1.61,1.11-2.24-3.53-2.24-4.65-1.5-2.71,1.5-3.22,7.47-2.12,10.14.91,2.25,3.94,3.42,5.66,4.59.91.75,2.82,3.53,1.91,4.81s-2.92-.21-3.93,1.17-1.62,3.95-.3,5c.6.53,1.72,0,1.51,1.28-.1,1-1.51.85-2.12,1.17-1.31.43-2.52,1.5-2,3.31.81,2.77,3.23-.64,4.65-1.18,2.31-.95,4.13.75,6.25.44,1.22-.12,1.42-1.07,2.22-1.5s1.62-.11,2.42-.32c2-.53.91-2.24,2-3.84.51-.75,1.52-.75,1.61-1.82s-.9-2-1.61-2.56-1.81-.85-2.52-1.6a15.75,15.75,0,0,1-2-3.2c-1.11-1.71-4.25-3.31-4.55-5.55-.41-2.67,2.22-1.71,3-3.42,1.71-3.52-3.64-3-5-3"/><path class="cls-13" d="M448.08,142.73c-1.92.86-1.71,2.78-3.73,3.09s-3.44.11-3.44,2.78c0,1.6,2.12,2.35,1.62,3.84s-2.82,1-2.42,3.31c.71,4.38,6.05-.21,7.86-.64,1.62-.32,3.14.11,4.15-1.82.81-1.49-.31-3,.2-4.58.81-2.35,2.52-2.46.61-4.91-1.72-2.14-2.63-2-4.85-1.07"/><path class="cls-13" d="M495,197.15c-2.82,0-2.52,2.25-2.72,4.49-.2,2.45-.3,4.27,2.72,4.17s3.23-2,3.23-4.71c0-2.13-.1-4.16-2.82-3.95"/><path class="cls-13" d="M494.4,191.07c-3.13.43-.5,4.8,2,3.32,1.81-1.19.1-4-1.81-3.42"/><path class="cls-13" d="M511.66,208.57c-1.72,0-6.26-1.16-6.06,1.71.1,1.39.81,1.49,1.92,1.93,1.51.53,1.21.74,2.22,1.81,4,4.69,5.75-6.08,1.82-5.55"/><path class="cls-13" d="M570.08,220.43c-1.11-.12-2.72,0-3,1.38-.39,2.13,1.92,1.49,3.13,1.82s2.43,1.48,2.73-.75c.31-1.71-1.21-1.92-2.42-2.35"/><path class="cls-13" d="M731.35,323.4c-3.33.1-2,5.55-2.23,7.69-.1,1.5-.69,2.67.31,3.83a3.25,3.25,0,0,0,3.43,1.19,10.06,10.06,0,0,0,3-2.57c1.31-1.38,1-2.55.2-4.15-.9-1.94-2.42-5.89-4.74-6.09"/><path class="cls-13" d="M798.56,350.83a30.66,30.66,0,0,1-5.15-5.22c-1-1.4-1.72-3.32-2.83-4.6-1.41-1.81-8.68-3.42-9.88-1.07-1.62,3.32,4.33,5.45,5.95,6.74,2.32,1.91,5.35,4.9,6.16,8s-.91,4.68,1.11,7.47a91.45,91.45,0,0,1,6.46,8.63c1.91,3.2,4.23,6.84,7.06,9.19,1.1.95,3.73,3.08,5.45,2.55,1.91-.63,2.12-3,2.12-4.69,0-2.45,1.1-7.15-.21-9.18s-4.44-1.7-5.65-3.84,0-4.48-1.91-6.51c-2.53-2.55-5.65-4.37-8.18-6.94l-.71-.75"/><path class="cls-13" d="M832,385.73c-1.92-.33-2.83,1.06-4.74,1.06s-4.14-1.7-5.85-2.45-3-1.39-4.75-.42c-.9.53-2.82,2-2.52,3.3.5,1.92,4.34,1.92,5.75,2.78,2.52,1.39,3.93,1,6.76,1.06,2.32.11,3.33,1.61,5.35,2.35,2.62,1,5.85.53,8.58,1,1.51.22,6.36,1.07,5.65-1.91-.51-2.14-3.54-1.29-4.75-2.46-.7-.65-.7-2-1.41-2.67a6.68,6.68,0,0,0-3.53-.86c-1.31,0-3.13.75-4.14-.74"/><path class="cls-13" d="M855.68,336.86c-1.62-.75-2.93-2.89-4.55-3.42-2.41-.85-3.32,2.77-4.33,4.48-1.82,3.3-5.46,4.06-7.88,6.62-1.82,1.7-2.83,3.94-4.74,5.65-1.41,1.07-2.52,2.14-4.34,1.92-2.32-.32-2.92-.85-4,1.82-1.11,2.45-1.41,5.76.11,8,.91,1.28,2.42,2,3.12,3.3s.3,2.79.61,4.17c.5,3.2,2.42,2.24,4.44,3,1.11.44,1.81,1.6,2.82,2,1.52.63,1.62.1,2.73-.44,1.52-.73,2.21-.41,3.83.65s3.54,2.55,5.45,1c1.72-1.49,1.31-4.59,1.31-6.73,0-2.56.41-3.73,2.33-5.23A4.72,4.72,0,0,0,855,359.9c.3-2.14.3-2.14,2-2.88,1.12-.42,1.32-.11,1.62-1.61.3-1.27-.3-2.67-.81-3.93-1-2.47-3.42-5.45-1.61-8.22,1-1.39,3.33-1.82,3.13-4.06s-2.12-1.61-3.53-2.24"/><path class="cls-13" d="M824.09,282c-2.12-.53-5-1.27-5.05,1.72-.1,2.55,1.72,3.73,4,3.73,1.21,0,3.43-1.18,3.74-2.56a2.42,2.42,0,0,0-2.63-2.77"/><path class="cls-13" d="M858.4,260.44c-3-.64-2.53,2.88-3.74,4.48-.9,1.07-2.32.85-1.71,2.67.3,1.07,1.71,1.82,2.42,2.78s1.31,2.24,2.93,1.27,1-3.08,1.11-4.59c.2-2.88,1.41-3.83-.61-6.3"/><path class="cls-13" d="M896.14,196.73c-2-.21-2.12,2.14-1.52,3.52.92,2,1.92,2.89,1.92,5.23,0,1.93.1,4.38-1.11,6.08s-3.73,2-4.84,3.95c-1.21,2.25-.1,2.67-2.72,3.2a28.72,28.72,0,0,1-5.36.75c-2.41.11-3.93,1.6-4.43,4-.1.65.2,1.93-.2,2.46-.51,1-1.12.21-1.82.64-1.42.75-1.81,2.88-1.11,4.37,1,1.93,3.13,1.93,4.14,4,.81,1.93,2.22,3.2,3.42.43,1-2.24-.7-5.87,2.33-6.93.81-.32,1.72.1,2.52-.32,1.22-.75,1-1.93,1.71-3,1.72-2.77,2.93.12,4.85.53a2.88,2.88,0,0,0,2.42-.73,33,33,0,0,1,5.36-3,3.76,3.76,0,0,0,2.92-3.84,32,32,0,0,0-.91-6.93c-.31-1.07-.71-2.13-.91-3.2-.3-1.72.1-3.42-.2-5.13-.41-2.34-4.14-5.87-6.46-6.29"/><path class="cls-13" d="M895,183.18c-1.81-.86-5.75-3.74-5.35.32.2,1.92,1.62,3.41.1,5-.81.74-1.91.31-1.81,2,.1,1.49,1.61,2,2.62,2.78.91.53,1.72,1.38,2.93.85.71-.43.91-1.6,1.61-1.92,1.82-.75,3.13,1.92,5,.85.61-.43.81-1.5,1.41-2s1.51-.32,2-.85c1.31-1.07.8-2.88-.21-4.05-1.6-2.14-2.92-1.07-4.94-1.6-1.11-.32-1.82-1.29-3-1.39"/><path class="cls-13" d="M877.67,152.34c-.81-.75-5.55-5.77-6.35-3.32-.31,1.18,1.91,2.67,2.62,3.32a12.5,12.5,0,0,1,2.12,3,19.42,19.42,0,0,1,2.42,7.68c.3,2.77,2.53,4.16,3.63,6.5.91,2.14,1.41,5.34,3.44,6.73s3.23.42,3.33-1.81c.09-2.67-1.82-3.2-2.73-5.23-.7-1.82.2-3.95-.6-5.66s-3.24-2.13-4.24-3.73c-.91-1.39-.4-3.1-1-4.59a9.29,9.29,0,0,0-2.63-3"/><path class="cls-13" d="M433.25,103c-1.72-.43-3.44.85-5.15.75a52.16,52.16,0,0,0-6,.75c-2.72.21-5.65-4.49-8.06-.32-1.32,2.34.9,1.6,2.11,2.45,1.62,1.17.1,2.34.4,4,.61,2.89,4,1.92,6,1.92s3,2.25,4.85,1.07c1-.64,1.5-1.92,2.61-2.56a17.35,17.35,0,0,1,3.84-1.06c1.41-.33,4.34-1.61,5.25-3,1.81-2.87-3.54-5.75-5.85-4.15"/><path class="cls-13" d="M627.7,410c-4.23,0-5.45,10.24-9.68,12.37-2.43,1.07-4.24.43-6.46,2.13-2.83,1.93-3.23,4.06-3.23,7.47,0,3.85.81,7.27-1,10.47-1.82,3.41-3.84,5.34-2.83,9.6,1.41,6.41,4.84,14.09,11.5,8.32,2-1.7,2.42-2.77,3-5.33.81-3.42,2.21-5.12,4-8.32,2.63-4.7,1.42-10.67,3.24-15.8,1-2.56,1.4-6.19,2.82-8.32,1.21-2.14,2.83-.85,2.62-4.49-.2-2.35-1-8.1-3.43-8.32"/><path class="cls-13" d="M930.85,370c5,1.93,10.1.64,13.93,5.34,1.82,2.55,2,5.12,5.05,6.61a20.16,20.16,0,0,1,3.63,1.93c3.17,2.21.55,6.26-.6,6.26l-.21-.08c1.66,2.09,12.72,10.67,8.89,12.17-1,.42-2.23-1.28-3.24-1.5-1.21,0-2,1.07-2.82.85-3,0-4.44-2.76-5.86-5.33s-2.41-5.76-6-5.55c-3.83.43-4.24,5.34-7.27,6.4a16.39,16.39,0,0,1-4.64,0c-1.61-.63-1.41-1.92-2.41-2.77-3.24-3-5.86,1.5-8.48,0-3.64-2.13,2-4.27,2.62-5.76,1.41-3.42-2-5.76-4-7.26a25,25,0,0,0-8.88-4.48c-2.82-.64-5.85.85-6.66-1.92-1.21-4.48,2.83-3,3.84-4.7,1.4-2.55-5-1.07-6.46-2.77-4-4.27,5-7.68,8.07-4.48,3.63,3.84-.6,16,7.26,6.83,5.25-5.76,8.48-3.41,14.13,0"/><path class="cls-13" d="M934.9,404.62c-4.45,2.34-5.26,12.38-6.46,16.86-.61,2.77-1.62,6.62-4.45,7.25-3.83.86-6.25-3.2-8.68-5.33-2.21-1.92-5.24-3.63-3.83-7.25.81-2.14,4.64-4.27,4.24-6.84-.6-3.2-5.86-1.07-8.07-1.7s-4-3.63-6.46-1.72c-.81.65.2,2.35-.61,3-.8.85-1.61,0-2.42.2-2.62.65-3.23,0-5,3.21s-2.43,10.46-7.07,6.61c-1.82-1.48-1-3-3.64-3.41-2.41-.42-4.23,1.5-5.65,3s-3,2.56-4.43,3.84c-1.42,1.71-1.62,4.06-2.63,5.77-5.25-4.92-5.25,4.69-8.27,8.1-2.63,2.79-3.84,3.2-7.48,3.42-4,.21-5.23,2.78-8.87,3.2-5.45.43-6.46-.64-8.48,4.7-1,2.77-3.43,4.91-4.44,7.68-.4,1.71.2,3.21,0,4.91-.4,1.71-1,2.13-1.82,3.63-2.21,3.84-.4,4.91.41,9.18.4,2.77-.2,5.76.2,8.53.2,1.93,2,4.7,1.62,6.83-.81,3.2-5.65,2.78-6.06,7.05-.6,8.75,13.32.21,16.55.42,3,.22,5.66,1.72,8.68.65,3.63-1.07,5.45-3.85,9.49-4.7,8.47-1.92,14.72-10.89,24-5.12a43,43,0,0,1,4.84,3.84c1.82,1.71.81,2.34,1.22,4.48,1.61,6.83,4.44-1.07,7.87,1.07,1,.85,1.62,7.68,2,9.18.61,3.84-1.82,6.61,2.42,7.89,1.82.43,4.44.22,6.25.43.61,0,1.62.64,2.23.43.8-.21,1.21-1.5,1.61-1.5,3-.64,5.45,1.71,8.67,0,1.42-.64,2.23-1.7,3.84-2.13,2-.43,3.23.43,5.25-.64,5.25-2.56,2.22-6.83,5.85-10.25,1.42-1.49,4.45-2.13,5.45-4.05.81-1.92-.4-3,1.21-4.91,2.83-3.63,5.45-3.2,7.07-7.69,2.62-7.47,8.48-11.52,8.07-20.49-.2-5.33-3.23-6-5-10.24-.61-1.28-.2-3-.81-4.06-1-2.13-2.22-2.13-3.23-4.69-.41-1.5-.41-3.42-1.21-4.91-1-1.71-3-2.77-4.24-4.27-2.82-3.2-1.82-7-2.22-11.31-.21-1.28,0-4.48-.8-5.76-1-1.71-3.44-1.5-4.45-3.21-1.41-2.35,1-8.75-1.41-9.38"/><path class="cls-13" d="M912.69,522.22c-2,0-3.23-2.13-5-.43-1,1.07-.41,4.06-.81,5.55-.81,2.78-4,8.12,1.62,5.55,1-.43,1.81-1.7,2.62-2.13,1-.43,2.42,0,3.23-.43,1.41-.85,2.62-3.41,3.43-5.12,1.81-4.7-1.22-2.77-4.44-2.77"/><path class="cls-13" d="M995.84,506c-2.82-.85,1.21-8.32-3.22-8.53-3.43-.22-1.42,9.38-2,11.3-1.22,4.06-6.66,3.21-7.68,6.62-.6,2.56,1.82,2.13,2.23,4.06.2,1.49-1.21,2.56-1.21,4,6.25,2.35,6.25-6.19,11.29-7.68,2-.64,6.66-1.5,6.07-5.12-.41-1.93-2.43-1.5-3.84-1.5,0-1.28,0-2.56-1-3.2"/><path class="cls-13" d="M977.68,522.65c-6.86-2.56-8.08,6.4-13.32,9.18-3.23,1.7-6.26.42-9.68,2.77-2.83,2.13-5.86,4.06-8.69,6-3.43,1.92-3.84,3.2.21,3.63,4.23.42,6,0,9.28-3,1.41-1.28,3-3.2,4.64-4.06,1.81-1.28,2.62-.85,4.44-1.28,3-.64,4.84-3,7.67-4.48,1.42-.86,11.5-7.9,5.85-8.75"/><path class="cls-13" d="M863.85,301.53c.6-4.7,3-7.47,1.21-11.54-1-2.13-.61-3-2.83-3.4a3.25,3.25,0,0,0-4,2.56c-.41,1.71,1,3.41.2,5.33-.81,2.35-2.82,3-1.62,5.77a22,22,0,0,0,5.05,4.7c2,.63,4.24-.44,2.22-2.78"/><path class="cls-13" d="M877.17,354.25c-3.23,2.56-7.47,0-10.9,1.06-2.22.85-7.87,6.62-2.83,5.77,2-.43,2.43-2.78,4.85-2.57,2.82.22,4,2.79,7.27,1.5a16.88,16.88,0,0,0,4-2.78c1-1.7.41-5.12-2-3.2"/><path class="cls-13" d="M864.05,371.32c3.23-.21,1.41,6.19,4.65,7.05,5,1.48,1.81-4.7,1.2-6.4a12.35,12.35,0,0,1-.4-3.85c.4-1.28,2.83-2.14,2.42-3.62-.4-1.29-2.83-1.07-3.63-1.07-1.61,0-2.22,1.07-4.24,0l-.41-.22c-2.61-.43-3,4.49-3.83,6.19s-2.22,1.71-1.82,3.85c.21.85,2,2.13,2.43,3.4.4,1.72,0,9,2.82,4.7,1.62-2.56.6-7.47.81-10"/><path class="cls-13" d="M881.6,322.65c-3.42-1.48-2,1.5-3.62,2.79s-3.63.2-5.45.63c-1.42.44-5.65,3-4,4.92s4.64-1.5,6.86,1.27c1.62,1.93.4,3.63,3,4.91,2.63,1.49,2.83.22,3.63-2.13a28.78,28.78,0,0,1,1-3.2c.2-1.5.61-1.28.4-3-.2-.86-1-2.56-1.41-3.63-.2-1.28,1.82-1.72-.2-2.57"/><path class="cls-13" d="M881.6,392.24c-2.41,0-3.83,4.9-.59,5.12,3,.21,5.24-5.76.8-5.12"/><path class="cls-13" d="M885.24,372c-2.83.63-3.43,2.55-.81,3.62,3.64,1.49,4.05-3.21,1.42-3.84"/><path class="cls-13" d="M875.35,397.36c-2.42-1.07-5,3.41-3.83,4.48,2.62,1.71,6.66-1.28,4.23-4"/><path class="cls-13" d="M872.53,316.47c-1.62-.22-6.26,6.18-2.22,6.4,3,0,6.25-4.9,2.22-6.62"/><path class="cls-13" d="M870.91,304.3c-3.43-2.13-3.63,3-.2,4.27,5,2.13,3.64-4.06.4-3.84"/><path class="cls-13" d="M853.15,393.31c-1.61-.44-3.23.21-3.23,2.13-.2,2.57,1.62,1.5,3,1.5,1.81.2,3,1.48,3.43-1.07.2-2.13-1.62-2.78-3.43-2.56"/><path class="cls-13" d="M967.59,377.3c-2.62.85-3.23,3.84-6.05,4.69-2,.65-6.47,1.28-2,3,1.41.41,6.25.63,7.47-.22,1.81-1.5,3.83-6.84.8-7.47"/><path class="cls-13" d="M390.36,52.87c-4,.43-7.68,1.28-11.71,1.28-5.24-.21-9.29-.64-13.93,1.07-3.42,1.07-6.66.43-10.08,1.07-4,.64-6.27,3.41-9.49,5.12-3.84,1.92-22.61-.64-21.2,6.4,1.82,9.61,20.59-1.49,23.82,5.13,1,2.35-1,7.25-.6,10,.4,2.35-1,1.49,1,2.77,1.41.85,3.64-.64,4.65,1.5.81,2.34-1,1.07-1.82,1.92-1.42,1.28-1,.42-2,2.56-.81,1.71.2,1.92-1.41,3.42-1,1.06-3,1.27-4,2.77-4.23,5.12-1.21,15.37,1.42,20.49,1.81,3.42,3.83,2.13,7.26,3.62,1.61.65,1.82,2.57,4.44,1.93,1.82-.43,2.83-2.35,3.84-4.06.6-1.49.81-2.77,2.21-3.84s2.83-.64,4.25-2.13c2.21-2.56,2-6.19,5.45-8.11,3.22-1.93,5.85-.22,9.27-.22,3-.21,5.26-3,7.88-4.26,2.42-1.29,4-3.64,6.46-4.92s5.25.43,8.07-.21c2.63-.42,5.65-1.92,8.48-2.77,2-.64,4-1.07,4.84-3.42-.81-.43-4-1.07-4.23-1.7-.81-1.72,1-2.57,2.21-2.57,2,0,4.45,5.12,6.05,1.92,1.82-3.41-4.84-5.12-2.61-7.47,1.41-1.28,5.85-.21,7.87-1.49,1.41-.86,2.62-2.78,3.63-4.27,1-1.71.81-3.63,1.61-4.91.61-1.07,2.63-1.28,3-2.35.8-1.7-.8-2.56-.2-4.05,1.81-4.06,16.35-3.63,16.75-7,.2-4.26-11.3-1.7-13.32-1.7-4.64-.22-7.27-3.42-11.91-3.85-7.46-.42-15.14.43-22.4.43a44.41,44.41,0,0,0-13.12,1.71"/><path class="cls-13" d="M340.71,52.66c-5.46.64-9.69,2.77-15.34,1.71-5.45-.86-10.5-2.35-15.95-.86-3,.86-8.28-.21-10.69,1.07-5.45,3,2.82,2.56,3.83,3.42,4.24,3.41-4.84,6.83-7.27,7-3.83.43-7.27-.21-9.48,3.2-.81,1.07.2,1.92-.81,2.78-1.21,1.06-3.83.21-5-.22-2.43-.85-4.45-3.2-6.46.22-2,3.62,1.2,4,3.63,4.48,3.83.64,5.65,2.13,9.49,1.49,2.21-.43,7.66,0,9.08-2.35,2.62-3.84-3-2.77-5.05-3.2.41-4.91,9.69-1.7,12.72-2.56s5.85-3.41,8.88-4.7c6.05-2.56,12.11-2.56,18.36-3.84,2.83-.64,5.45-2.13,8.48-2.77,2.62-.64,5.65,0,8.28-1.07,3.43-1.28,3.23-3.42-.4-4.27-2-.42-4.45.22-6.26.22"/><path class="cls-13" d="M298.93,83.82c-2.22,0-5.25.64-7.27,0-1.82-.43-2.42-1.92-3.83-2.77-2.83-1.71-4.65-.86-7.47.85-.81.64-2.62,2.56-3.84,2.35-2.21-.64,0-1.71-.2-3-.61-1.71.41-1.71-1.82-2.13-1.81-.43-3.22.85-4.44,1.92-1.81,1.28-5,4-5,6.61.2,4.7,6.26,2.35,9.09,1.92,4.43-.64,10.89-1.49,14.72,1.5,2.23,1.71,5.05,4.26,4.25,7.47-.41,1.49-3.24,6.61-4.45,7.26-3.22,1.49-8.06-1.93-11.1-.22-4.43,2.56,2.63,3.63,4.64,3.63,4.65.21,6.06.86,8.28,4.91,1,2.14.61,3,3.43,3.84.81.21,3.23.64,3.84,0,2.22-1.92-3.63-7.47,2-6.4,2.41.21,4.23,4.05,7.06,1.28,4.24-3.85-3.43-6-2.83-9.18.81-4.06,6.66-.64,7.88.64,1.81,1.71,1.81,3.2,4.84,1.07,1.61-1.07,3.63-4,3.23-6.4-.81-3.2-3.44-2.57-5.65-3.2-7.27-1.71,1.2-6-3.84-10.25-1.62-1.28-10.29-3.63-11.3-1.71"/><path class="cls-13" d="M290.05,56.71c-2,.43-3,1.71-4.64,2.35-1.42.64-3.84-.21-4.84.43-5.87,3.2,3.62,4.27,5.85,3.84,1.81-.21,9.88.43,10.69-1.28,1-1.92-5.25-6.83-6.86-5.34"/><path class="cls-13" d="M259.17,105.16c-2.22,0-2,1.29-3,2.35-.2.43-2.62,3.2-2.62,3.42-1.21,4.48,3.63,1.28,5.45,1.07,2.22-.22,7.06,2.77,6.46-2.14-.41-2.35-3.84-6.4-6.06-4.91"/><path class="cls-13" d="M240.2,71.23c-3.24-.86-4,1.28-6.66,2.13-3.84,1.07-3.24-1.92-5.46-3.41-3.83-2.56-17,3.41-10.29,5.76,3.23,1.07,7.47-.86,11.1-.21,2.63.64,4,1.49,6.86.85,1.21-.21,6.46-.64,7.27-1.5,2.22-2.34-1.42-3.62-3.23-3.62"/><path class="cls-13" d="M259.78,69.31c-3.44,0-3.44.21-6.06,1.92-2.22,1.28-4.85,1.92-1.21,3.41a14.07,14.07,0,0,0,6.66-.42c-.61.42,1.81-3.42,1.61-2.78.2-1.49.2-2.56-1.81-2.56"/><path class="cls-13" d="M250.89,77.84c-4.64-1.7-5.24,1.29-8.48,2.78-1.61.64-3-.64-3.63,1.71-.4,1.92,1.22,2.34,2.42,3.2,3.64,2.78,3.64.43,7.06-1.71,1.22-.64,2.63-.21,3.64-1.28,1.22-1.28,1.42-3.63-.4-4.27"/><path class="cls-13" d="M263.61,61.62c-1,0-5.25-.85-5.86-.21-1.61,1.28,1,4.27,2.23,4.69a5.75,5.75,0,0,0,5.24-.85c1.42-1.49,1.42-3.84-1-3.84"/><path class="cls-13" d="M265.22,77.42c-3.84,0-4.44,0-7.06,2.35-1.21.85-4.84,3-1.42,4.27.61.21,6.66-1.71,7.47-2.14,1.62-.85,3.63-3.84.61-4.48"/><path class="cls-13" d="M295.49,78.06c-3.63,1.07-1.21,4.7,1.62,3.41,2.83-1.06,2.22-4.27-1-3.63"/><path class="cls-13" d="M272.49,63.33c-4.45.21-1,5.12,2,3.2,2.83-1.7,1-4.26-1.61-3.41"/><path class="cls-13" d="M267.84,68.45c-1,1.5-.6,4.49,1.62,3,2.42-1.28.2-4-2-2.77"/><path class="cls-13" d="M263.61,72.72c-2.23,1.71.4,3.42,1.82,2.35a1.54,1.54,0,0,0-1.22-2.77"/><path class="cls-13" d="M240.6,64c-3.64-.43-6.66,2.35-2.22,3.63,3,.85,7.06-3,2.82-3.42"/><path class="cls-13" d="M248.26,68.88a2.73,2.73,0,0,0-1,2.14c2,.85,4.45-2.14,1.62-2.57"/><path class="cls-13" d="M214.56,67.6c-4.24-.21-8.47,3.42-2.62,3.2,1,0,3.43,0,4.24-.64,1.61-1.28,1-3.63-1.42-2.77"/><path class="cls-13" d="M231.52,80.41c-2.43-.86-3.24-.22-5.05.85-2.83,1.92-1.21,1.71-4.64,1.07-2-.43-4,0-6.26-.43-1.62-.43-2.82-1.71-4.44-2.13-2.63-.43-4,1.92-6.25,2.77-1.82.64-4.24-.21-6.06.64-2.42,1.07-2.63,2.14-.4,4.27,1.82,1.49,4.84.64,7.06,3-1.21.64-14.53-1.92-8.48,3,1.62,1.28,6.66,2.35,8.68,1.91,3.43-1.06,4.64-4.48,8.88-4,3,.43,5.05,2.78,8.07,2.78,1.62,0,8.08-1.07,8.69-1.71,3.22-3-1.22-3.63-1.42-5.55-.2-2.56,5.25-3.2,2.22-6.4"/><path class="cls-13" d="M238.38,90.86c-3.44.43-4.24,4.28-.2,4.28,3.63,0,5.24-5.13.81-4.28"/><path class="cls-13" d="M202.65,74.64c-4-.42-4.84-.21-7.87,1.92-3.22,2.14-7.06.86-10.09,3-4.24,2.78-1,5.55,3,4.91,2.62-.42,5.25-2.35,7.87-2.77a98.21,98.21,0,0,0,11.3-2.56c2.22-.64,6.26-.86,2.63-3.42-2.22-1.28-4.64.21-6.67-1.07"/><path class="cls-13" d="M222.43,278.91c-5.24-4.49-11.1-9.4-18-10.47a22.8,22.8,0,0,0-9.29.43c-3.22,1.07-4.64,3.64-.2,3.84,3.84.21,5.05-.42,8.89,1.28,4.43,1.72,5.65,1.72,8.07,5.55,2,3,2.82,1.71,6.05,1.92,1.22,0,6.87,2.35,5.25-1.48,0-.44-.61-.87-.81-1.07"/><path class="cls-13" d="M232.73,282.11c-1.41-.22-3.84-1.07-5,0-.8.85-.2,2.13-.8,3-.81.85-2,.64-2.63,1.29-3.63,3.83,5.65,2.77,8.28,2.77,2,0,10.29-.86,8.87-4.69-1-2.78-7.06-1.28-8.87-2.35"/><path class="cls-13" d="M862.63,307.72c-3.42-.85-2.82,2.77-.2,3.41,3.44.85,3.44-3.41.41-3.41"/><path class="cls-13" d="M877,311.35c-2.62.22-1.82,3.2.2,3.2,2-.22,2.22-3.85-.2-3.63"/><path class="cls-13" d="M889.07,354.88c-3.42.22-1.4,4.28.61,4.07,2.83-.44,1.21-3.64-.4-4.27"/><path class="cls-13" d="M862.23,394.37c-3.43.85-.8,5.34,1.62,3.64,2.22-1.29,1.21-4.49-1.42-3.85"/><path class="cls-13" d="M992.62,431.51c-4-1.06-3.84,4.49-.61,5.12,3,.64,5.25-5.55.81-5.12"/><path class="cls-13" d="M308.21,158.53c-2.22.85-2.82,3.2-4.24,4.9-1.82,2.14-4.64,3.42-6.86,5.13-7.67,6.4,7.67,2.77,10.3,3.84,2.21.64,3,3.41,5.45,3,3.83-.85,1.41-2.55,1-4.27-.41-1.48-.81-.85-.61-2.55,0-1.07,1.81-1.5,1.41-3-.6-3.42-3.43-1.07-5.05-.22-1.61-1.92,3.44-6-.6-6.82"/><path class="cls-14" d="M221,169.83c1.41,1.5-.4,3.21.6,4.92,1,2.13,3.64,2.13,5.46,2.35,2.42.21,4-.44,4.64,2.34.81,3.84-1.82,3-3.64,3.84-1.2.64-7.86,6.62-4.64,8.11,0,0,12.31-3.62,6.46,1.07h.2c-1.61,3-8.07,4.69-11.1,4.06-2-.43-3.63-1.5-3.23-3.85.41-2.13,2.83-2.13,3.64-4,1.61-2.77.81-8.75-3-7.9-2.82.65-6.66,6-8.08,8.33-1.2,1.7-4,7.89-5.85,3.2-1.21-2.78,2.83-6,3.84-8.12,1.81-3.41,1.61-4.48,5.25-5.76,3-1.06,6.05-3,1.21-4.26-3.44-1.07-6.66,1.06-10.1,1.49-5.65.64-3.63-2.14-.2-4,3-1.5,6.05-1.29,9.09-3,3.22-1.71,6.66-3.21,9.08,1.07"/><path class="cls-15" d="M137,91.57c-5.92,6-12.92,11.11-18.85,16.79-3,2.85-6.19,4.84-9.41,7.12-1.89,1.42-4.31,2.56-5.39,4.55-2.42,3.7-.53.86.54,3.42,2.7,6.55,2.15,2.85,7,1.71,5.38-1.14,3.76,3.12,2.42,6.54-.81,1.71-1.62,2.28-1.62,4.55.27,1.71,2.7,3.14,2.43,5.13s-6.46,5.41-8.08,5.69"/><path class="cls-15" d="M111.69,166.42c21.8,2.84,44.41-.86,66.47-1.14,4.05,0,12.66-1.14,16.42.57.81.29.54,2.56,1.89,2.84,1.07.57,1.88-.28,3-.28,2.41,0,4-2.56,5.91.85"/><path class="cls-15" d="M231.45,190c2.42-6.82,2.15-2.56,7.54-3.41,3-.58,2.15-2.85,4.3-4.56,2.15-2,3.77-1.42,6.46-.85,5.38,1.14,7.8-.29,11.84-4.27,1.34-1.42,1.88-4.84,4.85-2.84,1.6,1.14,1.07,4.55,1.34,6.54"/><path class="cls-15" d="M264.55,173.82c0-2,0-4,1.61-4.84"/><path class="cls-15" d="M96.09,231.31c5.92-7.68,13.19,4.84,19.11,6.25,5.65,1.14,12.38-10.81,17,0,1.34,2.85-1.35,8,3.23,8.82,3.77.87,3.77-6.25,7.8-5.12,6.46,2-1.34,13.66,8.34,15.37"/><path class="cls-15" d="M162.29,299c1.61-2.55,5.11-2.27,5.92-3.7,1.34-2-1.35-3.69.81-5.69.53-.28,3.49,0,4.57-.28,1.61-.57,2.42-2.28,4-2.57"/><path class="cls-15" d="M175.75,297.89c-1.36,5.41-6.46,2.57-8.35,6.84"/><path class="cls-15" d="M172.25,302.16c3.23-.56,3.23,3.42,4.3,5.7"/><path class="cls-15" d="M178.44,309.56c0-4,1.08-4.55,4-6,.81-.3,3-.87,3.77-1.15,1.34-.29,2.69-1.14,3.77-1.42"/><path class="cls-15" d="M184.36,316.68a17.44,17.44,0,0,1,3.76-.56"/><path class="cls-15" d="M192.16,321.8c-1.62,1.7-.81,3.42,0,5.12"/><path class="cls-15" d="M211.54,324.93c1.08,3.42-1.08,5.12-3.77,6"/><path class="cls-15" d="M229.84,316.12c-.81.85,2.95,10.51-2.16,7.1-1.61-.85-1.07-11.37-4.3-3.7-3,7.68,5.38,14.23,11.3,15.08,4.31.57,5.92-.28,5.92,4.56,0,1.71-1.35,3.41-1.08,5.13.27,2.27,2.69,3.4,3,5.12,1.08,5.4-3.49,3.13-6.46,4.55-5.11,2.28-2.42,5.12-1.34,8.82,1.07,4.26-1.35,6.83-1.89,10.53-.26,2.27,1.62,2.56-.53,4.56-1.08,1.13-3.77,0-5.38.85-5.92,2.84-6.47,17.93.53,20.77,2.16.86,3-2,5.12-.57,1.61.85.53,3.13,1.88,4.55,4.58,4.27,7.54-2.55,11.31-3.41,5.37-1.14,4.29,6.26,6.72,8.54,2.42,2.56,7,.29,9.69,2.56,1.61,1.71,1.07,3.42,2.42,4.83,1.61,2,3,2.29,4,4.27.26.58-.55,2.28-.27,2.85.8,1.42,1.88,1.14,3.23,2.28,2.69,2.27,6.46,4,6.19,8.54-.28,4.27-3.5,4.27-.81,8.82,1.34,2.28,3.49,3.42,4.84,5.4,1.62,2,1.89,4.27,4,5.7,3.5,2,9.15-.57,7.53,6,0,1.14-2.15,1.43-2.42,2.57s1.08,1.7,1.08,2.55c0,2.28,1.34,3.7,0,6-2.16,3.14-7.27,2.56-6.73,8,.54,4.84,5.92,3.42,9.15,6.26.81.86.27,2,1.62,3.13a5.73,5.73,0,0,0,3.76.85"/><path class="cls-15" d="M202.12,354c3.77.56,4.3,4.83,8.07,5.4,1.62.28,3-1.7,5.12-.57s1.61,2.29,2.68,4c2.69,3.42,4.58,4,8.34,5.41,1.89.86,3.77,1.42,4.85,3.12,1.08,1.44.27,3.14,1.88,4.56"/><path class="cls-15" d="M214.76,359.64c.27,2.86,1.35,8.55-.81,10.54-1.88,2-5.65.85-7.53,3.13-1.34,1.7-.27,6.54-2.69,7.11-3.23,1.14-3.77-4.55-5.92-5.12"/><path class="cls-15" d="M241.4,351.68c2.7,1.15,1.89,4,3.77,5.13,3,2,5.92,0,7.54-2.57,2.42-4.55-4-9.1.81-10.82,3.5-1.13,8.61,2.85,10.22-3.69.54-2.56-1.07-3.41,0-6.26s3.5-3.42,3.5-6.84"/><path class="cls-15" d="M264,339.44c9.15.86-3.23,23.34,11.85,13.67.53-.28,1.6,0,2.41-.28,1.08-.57.55-2.29,2.15-2.86,3.51-.85,3,2.29,4.85,3.14,6.46,2.83,6.73-5.13,11.3-7.69"/><path class="cls-15" d="M287.16,336.89c-4.85,3.7-.28,9.67-3.5,14.22"/><path class="cls-15" d="M275.58,335.46c0,3.13-3.77,6-3,9.11.81,2,3,1.7,3.77,4a17,17,0,0,1,0,3.7"/><path class="cls-15" d="M237.37,404.62c.54,2.55,2.15,4.55,2.15,7.39,0,3.13-1.61,5.42-2.15,8.54-.81,5.41,5.39,10.25-1.35,11.95"/><path class="cls-15" d="M237.91,431.65c6.45,0,5.11,14.8,7.81,18.79.81,1.13,2.69.84,3.22,3.13.54,2.55-.27,2.84-1.34,4.27s-2.69,1.13-3.5,2.83c-1.08,2-.27,4.28,0,6.27.26,6.83-3,16.5.26,22.77,2.17,4,5.93,4,5.12,9.67-.27,2.28-1.62,4-1.88,6-.81,2.84-.27,4.55,0,7.68.53,2.85-.27,7.4.53,10s3.5,2.85,4.58,5.12c.54,1.43-.81,3.42,0,4.55.81,1.43,3.5.86,4.31,2.28,1.88,2.85-.81,6.27-.54,9.11.26,2.56,1.88,5.69,2.42,8.25.81,3.7,1.88,4.56,3.77,8,1.61,2.56.8,4.84,4.3,5.41,3,.57,5.12-3.42,7.53-.28"/><path class="cls-15" d="M286.35,478c-1.35,1.14-4.31.57-5.12,2-1.07,2,1.35,4.55,1.89,6.26,1.07,3.42-1.35,10.24,2.69,10.81"/><path class="cls-15" d="M247.6,451.85c.81-2.27,1.61-6,4.58-6,1.88.29,3.76,4.27,5.65,4.55a3.34,3.34,0,0,1,4.84-3.13c2.15,1.14,1.61,4.27,3.23,6,3.5,3.41,11.56.86,14,6,1.61,3.7-3.5,8,1.34,10.53,6.2,3.12,6.46-6.27,10-6.27"/><path class="cls-15" d="M275.86,438.48c-4.05-5.41-6.2-2.85-10,.29-4.85,4-3,3.41-2.7,9.38"/><path class="cls-15" d="M231.72,282c1.08,3.42-2.43,3.13-1.88,6.27"/><path class="cls-15" d="M463.15,187.2c-.27,5.68,3.77,1.7,5.93,2,3.22.29,4.65,4.56,8.15,4"/><path class="cls-15" d="M441.63,193.17c2.15,1.42,4.57-.57,5.92.57,3.77,2.28-.81,3.41-1.62,5.7-1.34,4,.54,8.81-3,12.51"/><path class="cls-15" d="M546,122.88c1.34-3.41,6.19-4,6.72-7.12.55-2.27-1.07-2-1.88-3.7a34.2,34.2,0,0,1-1.34-5.12,29.37,29.37,0,0,0-3.77-9.1c-3.77-6-.54-2.57,1.61-7.69"/><path class="cls-15" d="M544.42,93.28c-.81-1.71-3.49-4-5.38-4-2.42.28-1.88,1.42-3.49,2.84-4.58,4.27-3.77.29-8.89.86-5.92.57.54,3.13,2.42,5.12,3.23,2.84,3,4.27,1.89,8.54"/><path class="cls-15" d="M523.7,94.71c-1.89,1.13-3.77,0-5.38.85s-2.42,3.13-3.77,4.27c-1.35,1.71-3.23,2-4.57,4-.81,1.43-.81,4-1.88,5.7-2.43,4-6.47,3.69-5.66,8.82.81,3.41,4.58,8-1.07,10.52"/><path class="cls-15" d="M545.77,128c-.27,3.42-.27,6,1.08,8.82,2.41,5.7,4.84.86,8.87,3.7,1.89,1.14.81,2.28,1.89,3.42.81.85,4.31,2.56,4.57,3.7,1.34,4-3.76,2-4,6,3.77.86,6.73.57,9.42,2.57,1.88,2,3.77,6,7.26,7.11,3.23.85,7.81-3.13,10.49.57,3.77,4.83-3.49,5.69-3.76,9.67"/><path class="cls-15" d="M475.53,159c3.5.57,3,4.56,6.73,5.41,2.68.56,9.15-1.71,9.42,3.7.27,2.56-2.16,3.41-3.5,5.12-.27.57.27,2.28,0,3.13-.27.57-2.42,0-2.42.85,0,2.28,1.88,2.85,2.69,5.13a26.53,26.53,0,0,1,0,4.55"/><path class="cls-15" d="M487.91,180.08c2.69,0,2.69-2.85,5.11-3.7,1.08-.28,2.43,1.13,3.5.85,1.61-.28,1.89-.85,3-1.42,3.23-1.42,10.23-3.41,9.15,3.7"/><path class="cls-15" d="M490.33,170.4c3,1.71,12.65-.85,12.11,3.71"/><path class="cls-15" d="M486.3,163.86c-.27-4.84,5.38-9.39,2.15-13.94"/><path class="cls-15" d="M480.1,155.32c1.35,2.85,3.5,4.84,6.46,4"/><path class="cls-15" d="M501.63,172.4c1.62-3.71,5.65-1.71,7.27-5.69-1.35-.29-4.84-1.72-5.11-3.42-.27-2.56,3.23-2.85,4.84-4,4.57-3.7.27-6.27,1.62-11.67"/><path class="cls-15" d="M510.25,157.59c2.42.29,4,2.28,6.19,3.14,1.88.56,5.37-.29,5.65,2.85.27,5.68-10,3.7-13.19,3.7"/><path class="cls-15" d="M508.09,175.53c5.92-.85,8.88,0,9.69-7.4"/><path class="cls-15" d="M510.51,181.78c1.62-2.84,7-4,5.39-8"/><path class="cls-15" d="M516.16,175.81c1.62,2.28,10.5,2.28,8.62,5.69-2.16,4.27-7.53-3.13-7.53,5.41"/><path class="cls-15" d="M524.51,182.64c4.31,2.84-.27,5.41-1.08,8.55"/><path class="cls-15" d="M525.58,192.6c3.77-2.85,3.77.85,5.12,3.7,1.34,3.14,3,3.42-1.35,6.26"/><path class="cls-15" d="M532,199.72c4.31-.28,4.84-5.12,8.61-5.41,2.7,0,7.54,1.71,6.2,4.84"/><path class="cls-15" d="M547.92,201.42c1.88-1.7,5.11-1.13,5.65-4.55"/><path class="cls-15" d="M537.69,195.45c-.53-5.12-4.3-3.13-7.26-1.71"/><path class="cls-15" d="M535.54,192c1.34-6.26-5.65-17.92-11.57-12.52"/><path class="cls-15" d="M518.05,170.12c2.42,2.56,3.23.28,5.65-.29a13.38,13.38,0,0,1,6.73-.85c3.23,0,2.68.57,4.3-1.7.27-.29,0-2.29.27-2.85.54-1.14,2.16-1.42,2.69-2.56,1.08-3.13-1.34-7.11-1.61-10.25-.54-5.12-1.61-7.68-6.73-9.67"/><path class="cls-15" d="M525.86,145.36c2.41,1.43,10.49,2.56,12.91,2,3-.57,3-2.86,4.84-4.56,1.35-1.71,3-2.56,4.85-4"/><path class="cls-15" d="M529.89,138.53c4-.28,12.92-2,14.26,3.42"/><path class="cls-15" d="M538.77,133.12c1.88.86,5.73,1.14,7.62.29"/><path class="cls-15" d="M538,156.18c1.88-1.14,4-2.28,6.46-2,2.69.58,2.69,2,5.12,3.41,1.07.29,7,1.43,7.8.86,2.42-1.71-1.43-3.41,1.53-4.83"/><path class="cls-15" d="M529.62,178.37c0-.57,4.3-10,4.57-10.24.54-.85,4.58,2.27,4.85,2.27a24.49,24.49,0,0,0,6.45-.28c3.24-.86,9.42-4.27,10.78,2.56.8,4.83-7,5.41-.28,8.54"/><path class="cls-15" d="M546.85,170.12c5.1.86,2.15,10.24,6.72,9.39"/><path class="cls-15" d="M535,186.34c3.5,1.14,4.84-.29,8.08-.57,2.95-.29,6.81,2.28,10.3.86"/><path class="cls-15" d="M590.44,188.33c4.85-4,9.95,1.42,14,3.42,3.77,1.42,7.26,6,10.49,1.7"/><path class="cls-15" d="M593.13,195.45c7.26-2.57,7.81,6.25,12.92,9.39,1.07.85,3.23,1.71,4.31,1.42,1.61-.57,1.61-2.84,2.41-3.12,4.31-1.44,1.62,2.27,5.12,3.41"/><path class="cls-15" d="M608.21,194.31c1.88,4.27-3.51.86-3.51,4,0,1.43,3.77,2,4.31,3.41a17,17,0,0,1,0,3.71"/><path class="cls-15" d="M603.36,202.56c-1.35,4.56-1.62,6.83,2.15,9.68,3.5,2.85,7.26,3.42,5.65,9.1-.54,2-2.42,2-1.88,4.84.27,1.71,3.22,4,4.57,4.84,1.61,1.43,3.23,1.71,4.31,3.41,1.35,1.72-.27,2.85,1.61,4.27"/><path class="cls-15" d="M604.16,210.82c-1.88,2.55-4,1.7-6.45,2-2.43,0-4,1.13-6.46,1.7-5.38,1.15-7.27-2.84-12.11,2"/><path class="cls-15" d="M578.6,230.45c2.15,4.27,3,1.71,4.84.29,2.43-1.43,4.57-2.85,7.27-4.27,6.46-3.41,3.23-7.4,6.46-13.1"/><path class="cls-15" d="M578.87,227c3.77.29,4.84-5.7.53-4.85"/><path class="cls-15" d="M577.25,232.73c1.89,4.55.54,9.38-1.34,13.37"/><path class="cls-15" d="M574.56,237c1.08,2.28.54,4.83,2.69,6.26,2.7,1.7,6.46-.58,7.81-2.85,1.07-2,1.88-4.26,3-6.27,1.62-2.83,2.43-3.12,1.35-6.53"/><path class="cls-15" d="M589.09,232.16c6.19-.28,12.11,5.12,15.61,10,3.77,5.14,8.88,4.56,14.53,2.85"/><path class="cls-15" d="M619.51,240.13c-3.24-.85-6.46,3.13-3,4.83"/><path class="cls-15" d="M633.77,264.89c-1.08,6,4.57,4.26,7.8,5.11,4.85,1.44,6.73,6.56,2.42,10.26-2.69,2.55-9.42,1.13-9.14,5.68.26,4,5.91,4.27,5.37,8.82"/><path class="cls-15" d="M605.16,293.63c0-10.24,12.19.57,16.5-2.85,3-2.27.81-4.84,5.38-6a10.83,10.83,0,0,1,7.19,1.13"/><path class="cls-15" d="M643.45,271.15c.27-4,4.58-5.13,3.23-10"/><path class="cls-15" d="M612.51,175.25c-1.62-4-6.19-4.27-7.8-7.4-1.89-3.71,1.34-8.83,4.3-4.56,3.5-2.56.27-6.83,5.93-7.11,3.49-.29,8.87,2,12.1,2.56,1.61.28,2.15,1.42,3.76,1.42,2.16.28,4.31-1.42,6.46-.85,2.43.56,2.7,2,5.39,1.42,3.5-.57,4.31-1.71,1.62-4.55-.81-1.14-3,.56-3.77-1.71.27.29.53-5.41.53-5.13.54-2.84-1.34-3.13,2.16-4.55,2.69-1.14,4.85,1.14,7.26,1.42,5.12.58,7.81-1.14,11.57-3.41,3.23-1.71,3.77-2.56,6.74-.28,1.6,1.42,1.6,2.84,4,4.27a9.44,9.44,0,0,0,7.27,1.7c4-.85,2.42-2.28,6.45,0,3.77,1.71,4,3.7,6.72,6.27a16.67,16.67,0,0,0,6.74,4c2.15.85,2.69-.29,5.11-.29,2.7,0,4.31,2,6.73,3.13,1.62.86,4,.86,5.92,1.71,2.69,1.42,3.76,7.69,1.62,10-2.16,2.85-5.66-.29-7.81,4-.81,2,.54,2.57-1.07,4-1.36,1.71-3.24-.57-4,2.56-2.42,6.55,7.53,4.55,2.68,9.67-3,3.14-8.06,2-11,5.13-1.09,1.14-1.62,2.84-2.43,4-1.34,1.14-3-.28-3.22,2.28-.28,4.55,5.65,2.28,7.26,4.55,2.69,4.55-3.49,4.84-5.66,5.41-5.11.57-4.57,1.71-5.11,6.82-.8,7.12-7.79,11.39-11,17.66-1.89,3.69-1.61,4.84-6.18,4-1.62-.29-3-1.71-4.58-1.71s-3.24,1.71-4.85,2c0,3.7,5.66,5.12,6.19,8.53.54,2.84-3.23,4-4,7.69"/><path class="cls-15" d="M628.93,192.6c3.76-5.4,5.64,1.71,8.07,3.13,5.11,2.85,4.84-4,7.8-5.12,3.76-1.14,5.38,4.56,7.53,6,1.62,1.13,3.77.85,5.66,2.28,1.88,1.13,2.69,3.41,4.57,4.55,2.43,2,9.16,4.55,8.08,8.82-.28.57-3.23,2.56-3.77,3.42-1.08,1.7.8,2.55-1.35,4-3.5,2-6.18-1.14-7.8-2.85a33,33,0,0,0-9.16-6.83,20.44,20.44,0,0,0-8.06-.85c-3.24.28-3.24,1.13-5.93,3.13"/><path class="cls-15" d="M658,216.79c-.81,2.56-3.77,5.12-3.5,8,.27,1.71,3.5,5.69,4.31,7.69s2.69,4,3.22,5.68c.54,2.28-1.08,3.7.27,6"/><path class="cls-15" d="M670.64,211.11c3.22-.58,4,2.55,6.73,2.83,3.49.29,3.22-2.55,5.65-4.55,7.8-6,4.56,4.84,7.26,6.83"/><path class="cls-15" d="M637,195.17c.26-4-2.15-6.84-2.43-10.82-.26-8.25,5.12-2.57,9.15-2.28,1.89,0,2.7-1.42,5.12-1.14,4.85.85,4.3,3.7,6.45,5.7,2.7,2.55,6.46.85,10.23,3.12,2.69,1.72,5.12,9.12,9.42,8.54,2.15-.28,1.62-2.56,3-3.69,1.62-1.43,2.69-1.43,4.84-2.28,1.89-1.13-.26-2.57,3-2.28,1.88,0,3.23,2.84,4.58,2.56,4-1.13,1.62-5.4,7.53-4.55,4.05.57,9,2.56,12.73,3.14"/><path class="cls-15" d="M682.21,192c-1.35,6.26,6.46,1.71,6.46,6.84,0,5.68-6.19.28-8.34.57-.55,0-6.2,4.83-6.2,5.11.28,2.85,7.81,4.56,2.69,9.4"/><path class="cls-15" d="M684.09,200.85c2.15,6,4.3,1.71,8.35,3.14"/><path class="cls-15" d="M699.43,213.37c4-.28,4.58,3.14,6.72,5.7,1.36,1.42,4.58,1.14,2.16,3.7-.8.86-4.85-.29-6.45,0-9.42,2.27,4.84,10,1.88,16.51a46.66,46.66,0,0,1-7.53,8.82c-2.43,1.7-7.28.56-5.93,5.4,1.07,3.42,6.19,3.13,4.84,8-1.08,4-4.84,2.85-7.54,2.57"/><path class="cls-15" d="M708,219.64c4-2.85,6.2,3.13,7,6.25,1.08,4,0,7.4,2.69,10,3.23,3.42,4.84,2.27,5.65,7.4,1.35,7.68,2.69,5.69,9.69,8.26,3.76,1.7,5.65,3.7,9.95,4,.81,0,3.23.85,4,.28,2.42-1.71,0-4,.81-5.13,3-4.27,5.38,3.42,8.61,3.7,4.84,0,5.38-5.12,7.53-7.68,2.43-2.84,7.27-4.27,10.5-2l3.23,5.4c-.54,2.85-3,2-4.57,4-1.36,1.71-.27,3.41-.81,5.42s-2.15,3.11-3.23,5.11c-1.62,4-.54,8.26-3.76,11.39"/><path class="cls-15" d="M722.84,241.26c5.38-5.68,18,8.54,25.29,8.54"/><path class="cls-15" d="M750.83,250.37c2.95-4.84,7.26-2.27,11,0"/><path class="cls-15" d="M747.52,249.52a46.41,46.41,0,0,0,1.7,6.55c.8,2,2.68,2.84,3.49,4.83,1.35,3.42-2.15,7.69,1.62,10.54"/><path class="cls-15" d="M748.87,256.35c2.41-.28,6.27,0,8.42,1.42,1.07.57.26,2.28,1.61,3.13.81.29,2.15-.28,3,0,1.08.57,2.43,0,3.23,1.14.81,2-1.34,2.56-1.08,3.7.28,2.28,1.62,3.7,3.5,5.11"/><path class="cls-15" d="M775.77,247.82c3.51-.57,8.43,2.83,8.7,6.53s-3.77,4.85-3.77,8.25c.27,3.14,4.84,4.27,6.73,6.84,1.07,1.13,1.34,2.56,2.41,4,1.09.85,4.31.85,4,3.14-.81,6.25-14.26.28-8.35,11.67,1.89,3.7,3.23,4.83,4,9.1.26,1.7,0,4.27.81,6,.8,2,2.69,2.85,3.22,5.13"/><path class="cls-15" d="M792.54,332.05c4.57-1.43,6.46,4,10.49,3.41"/><path class="cls-15" d="M792,278.54c-.54,4.27,1.89,3.13,3.23,4.85,1.62,2,1.08,4.27,2.15,6.25,2.43,3.7,4,.85,7.27.29,4-.29,3.23.56,4.58,3.7,1.61,4.26,7,8.53,1.07,9.38-2.15.29-4.3-1.41-6.19,0-1.61,1.44-1.61,5.14-2.42,6.84"/><path class="cls-15" d="M794.15,275.42c2.43-2.28,2.43-4.85,6.2-2.85,3,1.7,1.08,3.14,2.41,5.69,1.62,2.56,4.32,2.28,5.66,4.83.81,2,0,4,1.35,6,2.15,4,7.26,4.55,8.06,9.95.81,4.27-4.84,8-7,3.42"/><path class="cls-15" d="M817.3,302.45c.27,2,2.15,4,2.15,6,0,3.13-1.35,2.55-3.23,4.27-1.34,1.42-1.89,2.83-3.23,4.27-1.61,1.13-3.22-.85-3.76,2.26"/><path class="cls-15" d="M798.46,271.72c1.61-4,5.65-1.43,8.07-.28.27-2.57,2.15-5.14,5.12-3.14,2.42,1.42.53,4.84,3,6.54"/><path class="cls-15" d="M829.41,352.54c3,1.7,4.31,4.84,7.8,4,1.35-.58,2.16-3.14,4-3.42,1.34-.57,3.49,1.13,4.84.57,4.3-2.57-.54-16.22,8.88-9.67"/><path class="cls-15" d="M719.89,165.85c2.68-1.42,2.68.57,4.57,1.43s3.23,1.7,5.38,2.55c1.62.57,5.11,1.71,6.19,3.13s.54,3.13,1.08,4.55c2.69,6,6.46,4.27,11.57,5.13,6.46,1.14,6.72,6.26,11.3,8.83,4.31,2.26,12.65,1.41,17.49,2.55,3.5.86,8.08,2,11.58,1.15,1.07-.29,2.41-1.72,3.76-2.29,2.42-.56,3.5-.28,5.66-1.41,1.07-.86,4.3-3.14,4.56-4.27.81-2.29-1.88-3.42-1.34-5.13.81-2.56,1.88-1.14,3.77-1.71.81-.28,1.62.85,2.42.57,1.08-.28,1.08-1.7,1.89-2,2.42-.85,8.88-.57,10-3.13,3.77-8.53-17.49-1.14-14.53-10,1.34-4.27,8.88.57,8.34-7.68-.27-2.85-6.19-7.69-2.42-10,2.42-1.42,7.8,2.28,10.5,2.85,5.38,1.14,7.8,2,10.76,7.12,1.88,3.69,2.69,4.84,6.72,6.26,2.16.85,4.58.56,7,2,1.61,1.14,2.69,3.7,4,4.56,4.31,2.26,15.07-7.12,13.45,4-.53,3.7-3.77,4-4.84,6.54-1.07,4,4,5.41,3,8.82-.53,2-3,1.71-4.3,2.56-1.62.85-2.15,1.71-3.77,3.14-2.15,1.7-7,2.56-6.73,6.54"/><path class="cls-15" d="M856.32,209.67c.81-2,2.7-2.27,4.58-2"/><path class="cls-15" d="M806.27,164.71c-4.31-9.1-13.73,1.71-19.38,1.14-3.5-.29-6.19-2-9.15-3.41-4-2-7.27-.29-11-1.15-4.58-.85-7.27-5.4-11.57-6.54-1.62-.28-5.12-1.43-6.46.29-1.62,2.55,1.88,3.7,1.62,5.4-.81,5.12-13.73-2.27-18.31-1.13-2.69.85-7.53,4-9.14,6.54"/><path class="cls-15" d="M878.93,223.34c2.68.85,7,4.84,7,4.84"/><path class="cls-15" d="M492.49,212.52c.28,4.84.54,6.55-1.08,10.25-2.15,4.84-1.07,4,2.16,8.54,2.42,3.41,3,6.25,3.5,9.95.54,3.42,3,7.12,2.69,10.82-.81,4.84-4.3,6.26,0,10.81,2.42,2.28,6.73,5.7,9.42,6.83,3.5,1.14,6.46-1.13,10-.85,3,.29,6.73,3.42,9.14,4.84,4.31,2.56,10,5.12,13.45,8.25,3.77,3.13,2.16,4.55,1.62,9.4-.26,2.27.27,4.27-.53,6-.81,1.42-2.43,2.85-3.23,4.55-1.62,3.7-2.15,6-.54,9.69a57.06,57.06,0,0,1,3,5.68c.81,2.27.53,4.27,1.08,6.55,1.34,4,5.38,5.69,8.06,8.82s3.77,6.54,7.54,8.82c2.16,1.42,2.16,1.14,4.58,1.7a20.26,20.26,0,0,1,5.65,1.44c1.88.56,3,1.7,5.11,1.13s2.42-2.28,3.77-3.13c2.16-.86,5.65,0,6.45-2.27,2.43-7.4-12.64-9.12-7.8-17.94,1.89-3.42,2.7-4.83,3.23-8.82.54-5.12,2.42-4,4.57-8,1.62-2.57.81-7.12,1.62-9.95.81-3.42,4.39-3.7,6.53-6.27"/><path class="cls-15" d="M496.53,240.13c.81-2.28,3-3.7,4-5.12,0-.29,0-2.28.54-2.85a11.88,11.88,0,0,1,2.41-2.85"/><path class="cls-15" d="M545,234.15c.81,8.54.53,18.5.81,27,.27,4.83,3.49,21.62-3.5,21.05"/><path class="cls-15" d="M547.39,272.57c6.73,1.14,15.07,0,22.07,0,3.49,0,6.73,2,9.14,0,2.16-1.72,1.08-4.55,4.31-4.83"/><path class="cls-15" d="M513.75,269.43c.27,1.43-.26,5.13.27,6.28s2.15,1.41,2.69,3.4c.81,2.28.81,9.68.54,12.25-.54,4.84-3.76,4.27-5.92,7.95a9.52,9.52,0,0,0-1.34,5.42c.53,2.55,2.15,1.7,3.22,4,.81,1.13.54,3.41,1.08,4.83.54,2,1.88,2.28,1.88,4.55-.27,6.27-7.26,1.42-1.61,8.25,3.23,3.7,3.49,3.42,8.07,2.57,1.08,0,3.77.29,4.58-.28,1.61-1.44.54-4,1.61-5.14,2.42-2.83,5.66-.85,7.81-3.12,1.61-2,0-5.41,3.76-4.55"/><path class="cls-15" d="M459.93,219.64c-.26,3.7,4,10.52,1.07,13.37-1.88,2-6.18,0-8.34,2-1.34,1.43-1.6,4-3.49,5.69-1.62,2-4,2-6.19,2.85-3.5,1.42-2.42,2.27-4.85,4.84-3,3.42-7.26,2-11.84,2"/><path class="cls-15" d="M437.59,249.51c0,6.27.54,8-5.37,7.69-6.2-.29-5.65,1.7-5.93,7.4a7.85,7.85,0,0,1,0,2.56c-.53,1.14-1.61,1.42-1.89,2a9.19,9.19,0,0,1-1.6,2c-.55.86.26,2.28-.28,3.13-1.61,2.57-7.8,1.43-11,1.43"/><path class="cls-15" d="M437.87,251.8c5.65,5.68,11.3,11.08,17.48,16.22,5.65,4.27,14.81,6.82,19.39,12.23,1.6,1.7,1.07,5.41,3.76,5.69,2.42.28,2.68-2,4.3-2.85,1.35-.85,3.51-.29,4.85-1.14,1.61-.85,1.61-3.7,3-5.11,1.36-1.72,3-2.29,4.58-3.14,3.24-2,5.93-4.55,8.89-6.25"/><path class="cls-15" d="M585.61,303c1.61.28,5.11,1.43,6.72,1.15,2.15-.57,3.23-2.28,5.11-3.42"/><path class="cls-15" d="M605.79,308.14c-1.08,2.27-4.58,5.41-4,8,1.08,3.4,5.38,2.55,5.92-.86"/><path class="cls-15" d="M606.86,317.81c-.27,4,3,3.7,5.12,5.4,1.88,1.44,1.34,2.86,3.77,3.71,1.07.56,5.65-.29,6.45.85,1.62,2-1.88,5.13-3.23,6.83-2.42,3.42-3.5,3.42-6.72,4.84-2.7,1.43-4.32,4-7.27,4.56s-5.65-.58-8.61,0c-1.62.29-1.62,1.7-4,1.42-1.61,0-2.43-1.72-3.77-2.28-2.15-.85-4-.29-5.3-2.55"/><path class="cls-15" d="M603.9,344.29c-2.15,4.55-3.76,6.25-3.22,11.65.26,3.42.8,6.27.8,9.4"/><path class="cls-15" d="M577.8,342.57c.8,3.7,4.57,8.25,2.68,11.95-.8,1.72-4,1.42-4,4,0,1.13,3,3.13,3.51,4.27.8,1.43-.55,3.13.8,4.83,1.08,1.15,4.57,2,6.19,3.42,2.95,2.56,4.84,6,9.15,5.7"/><path class="cls-15" d="M566.23,343.71c.27,3.14,2.69,8.25,1.88,10.25-.27,1.41-3,2-3.77,3.7-.53,1.41.28,3.42-.27,4.83-.8,1.72-2.69,2.57-3.22,4.27-.28,1.42.53,3.13.53,4.27a27.39,27.39,0,0,0,1.62,9.39c.53,2.28,1.62,5.41,2.15,8,.54,5.69-.81,2.28-4,5.13-2.42,2-3,6.53-2.42,9.38.54,3.7,4.84,5.69,4,9.11-4.85,1.71-4.85-4-7.81-5.69-1.61-.57-3.49.28-4.84-.28-1.88-.57-3-2.29-4.84-2.85-3-.57-6.73,1.71-8.61-1.42-1.62-2.85,1.88-9.68,0-12.24-.81-1.43-2.43-1.14-4-1.14-3.23,0-1.35.57-3.77,2-3.76,1.71-5.38,1.71-7.27-2.56-.8-2,.55-2.84-1.61-4.27-.8-.57-4,.28-5.38.28-2.69,0-5.65-.28-8.34.29"/><path class="cls-15" d="M518.86,472.34c4.31-1.13,7.54,4.56,10.5-1.13,1.35-2.57.54-6.84.54-9.39,0-4-.27-7.69.27-11.39.54-4.26,3-5.12,3.76-9.39.54-4-1.07-7.11,3-8.54,2.16-.57,7.54,1.71,8.89-.28,3.49-4.84-4.58-3.42-5.93-2.84a30.58,30.58,0,0,1-11.3.57c-8.07-1.15-16.15-.57-24.22-1.43"/><path class="cls-15" d="M540.66,428.8c-1.08-2.55-2.69-3.12-3.49-6a21,21,0,0,1,.27-8.25c1.07-4,1.61-1.42,4.29-4,1.89-1.7,2.16-4,2.7-6.83"/><path class="cls-15" d="M546,430.8a11.46,11.46,0,0,0,9.16-2c2.41-1.7,5.37-6.54,7.53-7.39,2.69-.86,9.15,3.41,10.22,5.69,1.08,2.56.54,8,.28,10.53-.28,3.41-1.35,8.54-4.31,10.52-1.62.86-8.07,1.15-9.69.29s-5.92-6.83-6.73-8.83c-.54-1.7,0-3.41-1.07-4.83-1.35-2-4-.28-3.77-3.7"/><path class="cls-15" d="M529.9,459.25c6.18-.85,1.62,6.27,5.11,7.4,4.84,2,3.23-6.55,8.08-6.26,2.41.28,1.88,3.42,5.38,1.43,1.89-.86,1.61-2.85,2.68-4.27,1.88-2.85,5.84-5.65,7.27-9.11"/><path class="cls-15" d="M566.23,448.44c1.61,4,3.23,8.82,1.61,12.52-1.07,2.28-3.5,1.71-3,4.84.27,2.27,1.89,3.41,4,2.56"/><path class="cls-16" d="M557.35,473.77c-2.7.29-7.54,7.4-2.43,8.25,3,.57,6.73-7.11,3-8.25"/><path class="cls-15" d="M564.34,422c2.52-5.7,10.77-8.82,13.73-3.42,1.61,2.85-2.15,5.4.81,7.12,4.3,2.84,4.84-3.14,4.3-6-.81-4.55-7.26-9.38-2.42-12.8,4.57-3.7,15.15,3.13,18.11-3.7"/><path class="cls-15" d="M576.19,359.08c-4-.57-3.77,1.71-6.2,3.42s-4,1.71-7,1.71"/><path class="cls-15" d="M562.73,378.15c6.19-.28,4.85-9.67,4.85-14.24"/><path class="cls-15" d="M570.27,362.78c.53,3.42-.81,6.83,3.22,7.12,3.77,0,4.31-5.41,5.66-8"/><path class="cls-15" d="M561.38,370.75c1.89-1.14,3.77-2.56,6.2-2.85"/><path class="cls-15" d="M565.15,390.38c3,5.41,10,6,10,12.24,0,4-1.88,8.54-1.62,12.81"/><path class="cls-15" d="M574.57,398.64c6.46-4.84,5.38,5.12,5.65,8.82"/><path class="cls-15" d="M555.2,338.59c-3.24,1.42-5.65.57-8.61,1.42-4.31,1.15-6.2,5.41-10.77,3.13-2.7-1.42-5.92-6-9.16-1.42-1.87,2.28-.53,7.4-1.07,10.25s-.27,8-1.34,10.53c-1.35,4-5.11,4.55-6.46,9.38-1.08,4.27-.27,6.27-5.11,6.84-1.35.28-2.69-.57-3.77-.29-1.35,0-3.23,1.42-4.84,1.71"/><path class="cls-15" d="M501.91,375.3c4.57-1.7,1.07-5.12,3.23-7.11,2.15-2.28,4.3,1.42,5.92.57,4-1.15,3-10.82,1.34-13.38-.8-1.42-5.65-1.7-3.77-4.84,1.62-2.85,6.2,1.14,7,1.43,7.53,1.42,1.88-7.68,10-6.83"/><path class="cls-15" d="M516.17,328.92c-1.61,5.12-6.45,6.54-3.77,11.67,1.09,2,3,3.7,4.05,5.4s0,3.42,2.95,4.27"/><path class="cls-15" d="M507.84,351.39c-3-5.4-4.58,2-5.39,3.13-1.62,2.29-5.92,1.14-7.54,4.27"/><path class="cls-15" d="M497.34,351.68a4.65,4.65,0,0,1,5.92.58"/><path class="cls-15" d="M513.21,311c-.53,4.27-3.77,5.42-5.65,8.54-1.88,3.41-1.34,7.4-3.49,10.82-3,4.26-4,1.71-7.54,3.41-3.23,2-1.88,5.41-3,8.54"/><path class="cls-15" d="M510,305.86c-3.5-.85-5.66,2.29-8.61,2.85-1.89.29-6.73.57-8.61,0-4.58-1.15-9.7-9.1-14-2.56a26.24,26.24,0,0,0-1.88,8c-.27,2.57,1.34,4.84.8,7.12-.8,2.57-3.5,3.42-4,6.54-.27,2.85,1.62,4.57,1.89,7.12"/><path class="cls-15" d="M446.74,260.05c-6.46.57-3.76,6.25-3.5,11.39.28,6.53.28,11.37,1.89,17.35,1.35,4.55,3.23,9.1-1.61,10.24-3.77.86-7.81-1.14-11.85-.57-4.3.85-7.27,1.15-6.18,6,.53,2.55,1.88,8.53,3.77,8.81,4.56.85,5.11-4.83,7.8,2.27.81,2.29-.27,2.85,1.88,4.29.27.28,5.39.56,5.65.56,2.7-.87,2.42-2.28,3.23-4.55,1.35-3.42,1.88-5.13,4.31-7.68.81-1.15,1.88-1.15,2.69-2.29.54-.56,0-2,.8-2.85,2.16-2.55,4.58-2.27,7.54-2.55,4.57-.28,10.77.57,14-2,4.85-3.42,1.62-8.82,1.89-13.65"/><path class="cls-15" d="M410.68,293.63c3-.57,6.2-.85,8.62,1.7s1.34,5.7,5.91,6"/><path class="cls-15" d="M465.85,300.46c-.53,4.84,1.07,4.84,3.77,7.1.54.3,1.88.3,2.42.87.81.57.54,2.27.81,2.55a9.59,9.59,0,0,0,4.92.87"/><path class="cls-15" d="M472.58,310.42c-3,8-18.57,2.56-18.57,10-.27,1.7,1.61,2.84,1.61,4.27.54,2.55-.26,3.12-.8,5.69-.54,2-1.35,2.56-1.08,4.83.54,2.28,2.42,2.85,2.16,5.7"/><path class="cls-15" d="M463.7,315.26c.54,4.26,2.43,8.24,3.5,12.22.53,3.14-.28,6.84-.54,9.69"/><path class="cls-15" d="M467.47,314.41c0,4.83,1.88,7.39,3,11.37.54,2.85,0,6.56,0,9.39"/><path class="cls-15" d="M454.28,321.52c-4.31.56-5.11.56-8.07-2.57"/><path class="cls-15" d="M438.13,319.51c1.35,2.29-.54,3.71-.26,5.71.26,1.13,2.69,1.41,2.69,2.55-.28,1.43-2.16,1.15-2.69,2.28-1.62,2.57-3,2.29-.81,5.12,1.62,2.28,5.65,1.43,3.5,6"/><path class="cls-15" d="M436.52,331.19c-7-1.42-8.07-19.93-15.34-7.69"/><path class="cls-15" d="M431.14,326.92a27.37,27.37,0,0,1-3.23,6.27"/><path class="cls-15" d="M427.1,311c-2.42,1.43-4.85-2-7.26-.57-1.62,1.14-.54,2.85-1.35,4-.54,1.13-1.89.85-2.7,2.56"/><path class="cls-15" d="M419.56,309.85c-3.22-3.14-4.3-7.12-9.42-3.7"/></g></g></svg>