<?xml version="1.0" encoding="UTF-8"?>
<svg width="1000" height="500" viewBox="0 0 1000 500" xmlns="http://www.w3.org/2000/svg">
  <!-- Background -->
  <rect width="100%" height="100%" fill="#e6f3ff"/>
  
  <!-- World Map (simplified) -->
  <g id="world-map">
    <!-- Africa -->
    <path id="africa" d="M550,320 L560,310 L570,310 L580,300 L590,300 L600,290 L610,290 L620,280 L630,280 L640,270 L650,270 L660,260 L670,260 L680,250 L690,250 L700,240 L710,240 L720,230 L730,230 L740,220 L750,220 L760,210 L770,210 L770,220 L760,230 L750,240 L740,250 L730,260 L720,270 L710,280 L700,290 L690,300 L680,310 L670,320 L660,330 L650,340 L640,350 L630,360 L620,370 L610,380 L600,390 L590,400 L580,410 L570,420 L560,430 L550,440 L540,450 L530,460 L520,470 L510,470 L500,470 L490,470 L480,470 L470,460 L460,450 L450,440 L440,430 L430,420 L420,410 L410,400 L400,390 L390,380 L380,370 L370,360 L360,350 L350,340 L340,330 L330,320 L340,310 L350,300 L360,290 L370,280 L380,270 L390,260 L400,250 L410,240 L420,230 L430,220 L440,210 L450,200 L460,190 L470,180 L480,170 L490,160 L500,150 L510,140 L520,130 L530,120 L540,110 L550,100 L560,90 L570,80 L580,70 L590,60 L600,50 L610,40 L620,30 L630,20 L640,10 L650,0 L660,0 L670,0 L680,0 L690,0 L700,0 L710,0 L720,0 L730,0 L740,0 L750,0 L760,0 L770,0 L780,0 L790,0 L800,0 L810,0 L820,0 L830,0 L840,0 L850,0 L860,0 L870,0 L880,0 L890,0 L900,0 L910,0 L920,0 L930,0 L940,0 L950,0 L960,0 L970,0 L980,0 L990,0 L1000,0 L1000,10 L990,20 L980,30 L970,40 L960,50 L950,60 L940,70 L930,80 L920,90 L910,100 L900,110 L890,120 L880,130 L870,140 L860,150 L850,160 L840,170 L830,180 L820,190 L810,200 L800,210 L790,220 L780,230 L770,240 L760,250 L750,260 L740,270 L730,280 L720,290 L710,300 L700,310 L690,320 L680,330 L670,340 L660,350 L650,360 L640,370 L630,380 L620,390 L610,400 L600,410 L590,420 L580,430 L570,440 L560,450 L550,460 L540,470 L530,480 L520,490 L510,500 L500,500 L490,500 L480,500 L470,500 L460,500 L450,500 L440,500 L430,500 L420,500 L410,500 L400,500 L390,500 L380,500 L370,500 L360,500 L350,500 L340,500 L330,500 L320,500 L310,500 L300,500 L290,500 L280,500 L270,500 L260,500 L250,500 L240,500 L230,500 L220,500 L210,500 L200,500 L190,500 L180,500 L170,500 L160,500 L150,500 L140,500 L130,500 L120,500 L110,500 L100,500 L90,500 L80,500 L70,500 L60,500 L50,500 L40,500 L30,500 L20,500 L10,500 L0,500 L0,490 L10,480 L20,470 L30,460 L40,450 L50,440 L60,430 L70,420 L80,410 L90,400 L100,390 L110,380 L120,370 L130,360 L140,350 L150,340 L160,330 L170,320 L180,310 L190,300 L200,290 L210,280 L220,270 L230,260 L240,250 L250,240 L260,230 L270,220 L280,210 L290,200 L300,190 L310,180 L320,170 L330,160 L340,150 L350,140 L360,130 L370,120 L380,110 L390,100 L400,90 L410,80 L420,70 L430,60 L440,50 L450,40 L460,30 L470,20 L480,10 L490,0 L500,0 L510,0 L520,0 L530,0 L540,0 L550,0 Z" fill="#b3d9ff" stroke="#4d94ff" stroke-width="1"/>
    
    <!-- Europe -->
    <path id="europe" d="M500,100 L510,90 L520,80 L530,70 L540,60 L550,50 L560,40 L570,30 L580,20 L590,10 L600,0 L610,0 L620,0 L630,0 L640,0 L650,0 L660,0 L670,0 L680,0 L690,0 L700,0 L710,0 L720,0 L730,0 L740,0 L750,0 L760,0 L770,0 L780,0 L790,0 L800,0 L810,0 L820,0 L830,0 L840,0 L850,0 L860,0 L870,0 L880,0 L890,0 L900,0 L910,0 L920,0 L930,0 L940,0 L950,0 L960,0 L970,0 L980,0 L990,0 L1000,0 L1000,10 L990,20 L980,30 L970,40 L960,50 L950,60 L940,70 L930,80 L920,90 L910,100 L900,110 L890,120 L880,130 L870,140 L860,150 L850,160 L840,170 L830,180 L820,190 L810,200 L800,210 L790,220 L780,230 L770,240 L760,250 L750,260 L740,270 L730,280 L720,290 L710,300 L700,310 L690,320 L680,330 L670,340 L660,350 L650,360 L640,370 L630,380 L620,390 L610,400 L600,410 L590,420 L580,430 L570,440 L560,450 L550,460 L540,470 L530,480 L520,490 L510,500 L500,500 L490,500 L480,500 L470,500 L460,500 L450,500 L440,500 L430,500 L420,500 L410,500 L400,500 L390,500 L380,500 L370,500 L360,500 L350,500 L340,500 L330,500 L320,500 L310,500 L300,500 L290,500 L280,500 L270,500 L260,500 L250,500 L240,500 L230,500 L220,500 L210,500 L200,500 L190,500 L180,500 L170,500 L160,500 L150,500 L140,500 L130,500 L120,500 L110,500 L100,500 L90,500 L80,500 L70,500 L60,500 L50,500 L40,500 L30,500 L20,500 L10,500 L0,500 L0,490 L10,480 L20,470 L30,460 L40,450 L50,440 L60,430 L70,420 L80,410 L90,400 L100,390 L110,380 L120,370 L130,360 L140,350 L150,340 L160,330 L170,320 L180,310 L190,300 L200,290 L210,280 L220,270 L230,260 L240,250 L250,240 L260,230 L270,220 L280,210 L290,200 L300,190 L310,180 L320,170 L330,160 L340,150 L350,140 L360,130 L370,120 L380,110 L390,100 L400,90 L410,80 L420,70 L430,60 L440,50 L450,40 L460,30 L470,20 L480,10 L490,0 L500,0 Z" fill="#99ccff" stroke="#4d94ff" stroke-width="1"/>
    
    <!-- Asia -->
    <path id="asia" d="M500,100 L490,90 L480,80 L470,70 L460,60 L450,50 L440,40 L430,30 L420,20 L410,10 L400,0 L390,0 L380,0 L370,0 L360,0 L350,0 L340,0 L330,0 L320,0 L310,0 L300,0 L290,0 L280,0 L270,0 L260,0 L250,0 L240,0 L230,0 L220,0 L210,0 L200,0 L190,0 L180,0 L170,0 L160,0 L150,0 L140,0 L130,0 L120,0 L110,0 L100,0 L90,0 L80,0 L70,0 L60,0 L50,0 L40,0 L30,0 L20,0 L10,0 L0,0 L0,10 L10,20 L20,30 L30,40 L40,50 L50,60 L60,70 L70,80 L80,90 L90,100 L100,110 L110,120 L120,130 L130,140 L140,150 L150,160 L160,170 L170,180 L180,190 L190,200 L200,210 L210,220 L220,230 L230,240 L240,250 L250,260 L260,270 L270,280 L280,290 L290,300 L300,310 L310,320 L320,330 L330,340 L340,350 L350,360 L360,370 L370,380 L380,390 L390,400 L400,410 L410,420 L420,430 L430,440 L440,450 L450,460 L460,470 L470,480 L480,490 L490,500 L500,500 L510,500 L520,500 L530,500 L540,500 L550,500 L560,500 L570,500 L580,500 L590,500 L600,500 L610,500 L620,500 L630,500 L640,500 L650,500 L660,500 L670,500 L680,500 L690,500 L700,500 L710,500 L720,500 L730,500 L740,500 L750,500 L760,500 L770,500 L780,500 L790,500 L800,500 L810,500 L820,500 L830,500 L840,500 L850,500 L860,500 L870,500 L880,500 L890,500 L900,500 L910,500 L920,500 L930,500 L940,500 L950,500 L960,500 L970,500 L980,500 L990,500 L1000,500 L1000,490 L990,480 L980,470 L970,460 L960,450 L950,440 L940,430 L930,420 L920,410 L910,400 L900,390 L890,380 L880,370 L870,360 L860,350 L850,340 L840,330 L830,320 L820,310 L810,300 L800,290 L790,280 L780,270 L770,260 L760,250 L750,240 L740,230 L730,220 L720,210 L710,200 L700,190 L690,180 L680,170 L670,160 L660,150 L650,140 L640,130 L630,120 L620,110 L610,100 L600,90 L590,80 L580,70 L570,60 L560,50 L550,40 L540,30 L530,20 L520,10 L510,0 L500,0 Z" fill="#80bfff" stroke="#4d94ff" stroke-width="1"/>
    
    <!-- North America -->
    <path id="north-america" d="M100,100 L90,90 L80,80 L70,70 L60,60 L50,50 L40,40 L30,30 L20,20 L10,10 L0,0 L0,10 L10,20 L20,30 L30,40 L40,50 L50,60 L60,70 L70,80 L80,90 L90,100 L100,110 L110,120 L120,130 L130,140 L140,150 L150,160 L160,170 L170,180 L180,190 L190,200 L200,210 L210,220 L220,230 L230,240 L240,250 L250,260 L260,270 L270,280 L280,290 L290,300 L300,310 L310,320 L320,330 L330,340 L340,350 L350,360 L360,370 L370,380 L380,390 L390,400 L400,410 L410,420 L420,430 L430,440 L440,450 L450,460 L460,470 L470,480 L480,490 L490,500 L500,500 L490,490 L480,480 L470,470 L460,460 L450,450 L440,440 L430,430 L420,420 L410,410 L400,400 L390,390 L380,380 L370,370 L360,360 L350,350 L340,340 L330,330 L320,320 L310,310 L300,300 L290,290 L280,280 L270,270 L260,260 L250,250 L240,240 L230,230 L220,220 L210,210 L200,200 L190,190 L180,180 L170,170 L160,160 L150,150 L140,140 L130,130 L120,120 L110,110 L100,100 Z" fill="#cce6ff" stroke="#4d94ff" stroke-width="1"/>
    
    <!-- South America -->
    <path id="south-america" d="M300,300 L290,290 L280,280 L270,270 L260,260 L250,250 L240,240 L230,230 L220,220 L210,210 L200,200 L190,190 L180,180 L170,170 L160,160 L150,150 L140,140 L130,130 L120,120 L110,110 L100,100 L90,90 L80,80 L70,70 L60,60 L50,50 L40,40 L30,30 L20,20 L10,10 L0,0 L0,10 L10,20 L20,30 L30,40 L40,50 L50,60 L60,70 L70,80 L80,90 L90,100 L100,110 L110,120 L120,130 L130,140 L140,150 L150,160 L160,170 L170,180 L180,190 L190,200 L200,210 L210,220 L220,230 L230,240 L240,250 L250,260 L260,270 L270,280 L280,290 L290,300 L300,310 L310,320 L320,330 L330,340 L340,350 L350,360 L360,370 L370,380 L380,390 L390,400 L400,410 L410,420 L420,430 L430,440 L440,450 L450,460 L460,470 L470,480 L480,490 L490,500 L500,500 L490,490 L480,480 L470,470 L460,460 L450,450 L440,440 L430,430 L420,420 L410,410 L400,400 L390,390 L380,380 L370,370 L360,360 L350,350 L340,340 L330,330 L320,320 L310,310 L300,300 Z" fill="#e6f2ff" stroke="#4d94ff" stroke-width="1"/>
    
    <!-- Australia -->
    <path id="australia" d="M800,400 L790,390 L780,380 L770,370 L760,360 L750,350 L740,340 L730,330 L720,320 L710,310 L700,300 L690,290 L680,280 L670,270 L660,260 L650,250 L640,240 L630,230 L620,220 L610,210 L600,200 L590,190 L580,180 L570,170 L560,160 L550,150 L540,140 L530,130 L520,120 L510,110 L500,100 L510,90 L520,80 L530,70 L540,60 L550,50 L560,40 L570,30 L580,20 L590,10 L600,0 L610,0 L620,0 L630,0 L640,0 L650,0 L660,0 L670,0 L680,0 L690,0 L700,0 L710,0 L720,0 L730,0 L740,0 L750,0 L760,0 L770,0 L780,0 L790,0 L800,0 L800,10 L790,20 L780,30 L770,40 L760,50 L750,60 L740,70 L730,80 L720,90 L710,100 L700,110 L690,120 L680,130 L670,140 L660,150 L650,160 L640,170 L630,180 L620,190 L610,200 L600,210 L590,220 L580,230 L570,240 L560,250 L550,260 L540,270 L530,280 L520,290 L510,300 L500,310 L490,320 L480,330 L470,340 L460,350 L450,360 L440,370 L430,380 L420,390 L410,400 L400,410 L410,420 L420,430 L430,440 L440,450 L450,460 L460,470 L470,480 L480,490 L490,500 L500,500 L510,500 L520,500 L530,500 L540,500 L550,500 L560,500 L570,500 L580,500 L590,500 L600,500 L610,500 L620,500 L630,500 L640,500 L650,500 L660,500 L670,500 L680,500 L690,500 L700,500 L710,500 L720,500 L730,500 L740,500 L750,500 L760,500 L770,500 L780,500 L790,500 L800,500 L800,490 L790,480 L780,470 L770,460 L760,450 L750,440 L740,430 L730,420 L720,410 L710,400 L700,390 L690,380 L680,370 L670,360 L660,350 L650,340 L640,330 L630,320 L620,310 L610,300 L600,290 L590,280 L580,270 L570,260 L560,250 L550,240 L540,230 L530,220 L520,210 L510,200 L500,190 L490,180 L480,170 L470,160 L460,150 L450,140 L440,130 L430,120 L420,110 L410,100 L400,90 L390,80 L380,70 L370,60 L360,50 L350,40 L340,30 L330,20 L320,10 L310,0 L320,0 L330,0 L340,0 L350,0 L360,0 L370,0 L380,0 L390,0 L400,0 L410,0 L420,0 L430,0 L440,0 L450,0 L460,0 L470,0 L480,0 L490,0 L500,0 L510,0 L520,0 L530,0 L540,0 L550,0 L560,0 L570,0 L580,0 L590,0 L600,0 L610,0 L620,0 L630,0 L640,0 L650,0 L660,0 L670,0 L680,0 L690,0 L700,0 L710,0 L720,0 L730,0 L740,0 L750,0 L760,0 L770,0 L780,0 L790,0 L800,0 Z" fill="#b3d9ff" stroke="#4d94ff" stroke-width="1"/>
  </g>
  
  <!-- Grid lines -->
  <g id="grid" stroke="#e6f2ff" stroke-width="1" stroke-dasharray="2,2" opacity="0.5">
    <line x1="0" y1="100" x2="1000" y2="100"/>
    <line x1="0" y1="200" x2="1000" y2="200"/>
    <line x1="0" y1="300" x2="1000" y2="300"/>
    <line x1="0" y1="400" x2="1000" y2="400"/>
    <line x1="100" y1="0" x2="100" y2="500"/>
    <line x1="200" y1="0" x2="200" y2="500"/>
    <line x1="300" y1="0" x2="300" y2="500"/>
    <line x1="400" y1="0" x2="400" y2="500"/>
    <line x1="500" y1="0" x2="500" y2="500"/>
    <line x1="600" y1="0" x2="600" y2="500"/>
    <line x1="700" y1="0" x2="700" y2="500"/>
    <line x1="800" y1="0" x2="800" y2="500"/>
    <line x1="900" y1="0" x2="900" y2="500"/>
  </g>
  
  <!-- Coordinate labels -->
  <g id="labels" font-family="Arial" font-size="10" fill="#666">
    <text x="5" y="15">(0,0)</text>
    <text x="905" y="15">(1000,0)</text>
    <text x="5" y="490">(0,500)</text>
    <text x="905" y="490">(1000,500)</text>
  </g>
</svg>
